<?xml version="1.0" encoding="UTF-8"?>
<svg xmlns="http://www.w3.org/2000/svg" xmlns:xlink="http://www.w3.org/1999/xlink" width="335.044" height="156.778" viewBox="0 0 335.044 156.778">
<path fill-rule="nonzero" fill="rgb(0%, 0%, 0%)" fill-opacity="1" d="M 20.179688 9.609375 C 20.179688 9.195312 20.152344 9.195312 19.695312 9.195312 C 18.632812 10.113281 17.042969 10.113281 16.726562 10.113281 L 16.453125 10.113281 L 16.453125 10.730469 L 16.726562 10.730469 C 17.226562 10.730469 17.988281 10.644531 18.5625 10.457031 L 18.5625 17.984375 L 16.570312 17.984375 L 16.570312 18.597656 C 17.171875 18.570312 18.675781 18.570312 19.351562 18.570312 C 20.023438 18.570312 21.542969 18.570312 22.144531 18.597656 L 22.144531 17.984375 L 20.179688 17.984375 L 20.179688 9.609375 "/>
<path fill-rule="nonzero" fill="rgb(0%, 0%, 0%)" fill-opacity="1" d="M 46.132812 16.921875 C 46.132812 16.75 45.972656 16.75 45.828125 16.75 C 45.601562 16.75 45.585938 16.765625 45.515625 16.9375 C 45.414062 17.207031 45.027344 18.167969 43.707031 18.167969 C 41.6875 18.167969 41.6875 15.988281 41.6875 15.34375 C 41.6875 14.5 41.703125 12.621094 43.578125 12.621094 C 43.679688 12.621094 44.523438 12.652344 44.523438 12.722656 C 44.523438 12.734375 44.511719 12.75 44.484375 12.765625 C 44.4375 12.808594 44.253906 13.023438 44.253906 13.382812 C 44.253906 13.984375 44.742188 14.226562 45.097656 14.226562 C 45.398438 14.226562 45.945312 14.039062 45.945312 13.367188 C 45.945312 12.191406 44.296875 12.105469 43.523438 12.105469 C 40.96875 12.105469 39.96875 13.769531 39.96875 15.414062 C 39.96875 17.367188 41.328125 18.683594 43.4375 18.683594 C 45.6875 18.683594 46.132812 17.023438 46.132812 16.921875 "/>
<path fill-rule="nonzero" fill="rgb(0%, 0%, 0%)" fill-opacity="1" d="M 53.214844 14.3125 C 53.214844 12.992188 52.167969 12.105469 50.148438 12.105469 C 49.34375 12.105469 47.65625 12.175781 47.65625 13.382812 C 47.65625 13.984375 48.113281 14.242188 48.5 14.242188 C 48.929688 14.242188 49.34375 13.941406 49.34375 13.394531 C 49.34375 13.121094 49.246094 12.863281 49.003906 12.707031 C 49.476562 12.578125 49.820312 12.578125 50.089844 12.578125 C 51.066406 12.578125 51.652344 13.121094 51.652344 14.300781 L 51.652344 14.871094 C 49.390625 14.871094 47.109375 15.503906 47.109375 17.09375 C 47.109375 18.398438 48.773438 18.683594 49.761719 18.683594 C 50.867188 18.683594 51.566406 18.082031 51.855469 17.453125 C 51.855469 17.984375 51.855469 18.597656 53.300781 18.597656 L 54.03125 18.597656 C 54.335938 18.597656 54.449219 18.597656 54.449219 18.28125 C 54.449219 17.984375 54.320312 17.984375 54.117188 17.984375 C 53.214844 17.96875 53.214844 17.738281 53.214844 17.410156 Z M 51.652344 16.605469 C 51.652344 17.953125 50.449219 18.210938 49.992188 18.210938 C 49.289062 18.210938 48.699219 17.738281 48.699219 17.078125 C 48.699219 15.777344 50.25 15.328125 51.652344 15.257812 L 51.652344 16.605469 "/>
<path fill-rule="nonzero" fill="rgb(0%, 0%, 0%)" fill-opacity="1" d="M 57.445312 12.851562 L 59.511719 12.851562 L 59.511719 12.234375 L 57.445312 12.234375 L 57.445312 9.496094 L 56.84375 9.496094 C 56.828125 10.914062 56.140625 12.335938 54.722656 12.378906 L 54.722656 12.851562 L 55.886719 12.851562 L 55.886719 16.835938 C 55.886719 18.355469 57.058594 18.683594 58.09375 18.683594 C 59.152344 18.683594 59.78125 17.882812 59.78125 16.820312 L 59.78125 16.0625 L 59.179688 16.0625 L 59.179688 16.808594 C 59.179688 17.753906 58.753906 18.167969 58.304688 18.167969 C 57.445312 18.167969 57.445312 17.207031 57.445312 16.878906 L 57.445312 12.851562 "/>
<path fill-rule="nonzero" fill="rgb(0%, 0%, 0%)" fill-opacity="1" d="M 67.429688 16.921875 C 67.429688 16.75 67.273438 16.75 67.128906 16.75 C 66.898438 16.75 66.886719 16.765625 66.8125 16.9375 C 66.714844 17.207031 66.328125 18.167969 65.007812 18.167969 C 62.988281 18.167969 62.988281 15.988281 62.988281 15.34375 C 62.988281 14.5 63.003906 12.621094 64.878906 12.621094 C 64.980469 12.621094 65.824219 12.652344 65.824219 12.722656 C 65.824219 12.734375 65.8125 12.75 65.78125 12.765625 C 65.738281 12.808594 65.554688 13.023438 65.554688 13.382812 C 65.554688 13.984375 66.039062 14.226562 66.398438 14.226562 C 66.699219 14.226562 67.242188 14.039062 67.242188 13.367188 C 67.242188 12.191406 65.59375 12.105469 64.820312 12.105469 C 62.269531 12.105469 61.265625 13.769531 61.265625 15.414062 C 61.265625 17.367188 62.628906 18.683594 64.734375 18.683594 C 66.984375 18.683594 67.429688 17.023438 67.429688 16.921875 "/>
<path fill-rule="nonzero" fill="rgb(0%, 0%, 0%)" fill-opacity="1" d="M 75.417969 15.460938 C 75.417969 13.523438 74.101562 12.105469 71.851562 12.105469 C 69.515625 12.105469 68.265625 13.597656 68.265625 15.460938 C 68.265625 17.339844 69.585938 18.683594 71.835938 18.683594 C 74.171875 18.683594 75.417969 17.265625 75.417969 15.460938 Z M 71.851562 18.167969 C 69.984375 18.167969 69.984375 16.492188 69.984375 15.316406 C 69.984375 14.644531 69.984375 13.925781 70.261719 13.410156 C 70.574219 12.835938 71.21875 12.578125 71.835938 12.578125 C 72.652344 12.578125 73.167969 12.964844 73.414062 13.367188 C 73.699219 13.882812 73.699219 14.628906 73.699219 15.316406 C 73.699219 16.507812 73.699219 18.167969 71.851562 18.167969 "/>
<path fill-rule="nonzero" fill="rgb(0%, 0%, 0%)" fill-opacity="1" d="M 81.394531 8.765625 L 81.394531 9.382812 C 82.285156 9.382812 82.386719 9.382812 82.386719 9.941406 L 82.386719 12.835938 C 82.070312 12.566406 81.4375 12.148438 80.449219 12.148438 C 78.414062 12.148438 76.96875 13.410156 76.96875 15.414062 C 76.96875 17.464844 78.386719 18.683594 80.292969 18.683594 C 81.082031 18.683594 81.753906 18.414062 82.3125 17.941406 L 82.3125 18.683594 L 84.867188 18.597656 L 84.867188 17.984375 C 83.976562 17.984375 83.878906 17.984375 83.878906 17.425781 L 83.878906 8.652344 Z M 82.3125 17.152344 C 81.710938 18.027344 80.980469 18.210938 80.464844 18.210938 C 78.6875 18.210938 78.6875 16.390625 78.6875 15.445312 C 78.6875 14.769531 78.6875 14.054688 79.003906 13.511719 C 79.445312 12.707031 80.292969 12.621094 80.621094 12.621094 C 81.210938 12.621094 81.839844 12.878906 82.3125 13.511719 L 82.3125 17.152344 "/>
<path fill-rule="nonzero" fill="rgb(0%, 0%, 0%)" fill-opacity="1" d="M 91.800781 15.429688 C 92.132812 15.429688 92.21875 15.429688 92.21875 15.070312 C 92.21875 14.644531 92.117188 13.566406 91.457031 12.894531 C 90.855469 12.289062 90.054688 12.105469 89.21875 12.105469 C 86.984375 12.105469 85.765625 13.566406 85.765625 15.375 C 85.765625 17.378906 87.242188 18.683594 89.40625 18.683594 C 91.570312 18.683594 92.21875 17.164062 92.21875 16.921875 C 92.21875 16.707031 92.003906 16.707031 91.914062 16.707031 C 91.6875 16.707031 91.671875 16.75 91.585938 16.9375 C 91.214844 17.867188 90.265625 18.167969 89.578125 18.167969 C 87.503906 18.167969 87.484375 16.234375 87.484375 15.429688 Z M 87.484375 15.015625 C 87.515625 14.425781 87.53125 13.867188 87.832031 13.351562 C 88.101562 12.894531 88.605469 12.578125 89.21875 12.578125 C 90.753906 12.578125 90.886719 14.300781 90.898438 15.015625 L 87.484375 15.015625 "/>
<path fill-rule="nonzero" fill="rgb(0%, 0%, 0%)" fill-opacity="1" d="M 21.328125 34.371094 C 21.328125 34.011719 21.351562 33.902344 22.117188 33.902344 L 22.355469 33.902344 L 22.355469 33.59375 C 22.007812 33.621094 21.269531 33.621094 20.890625 33.621094 C 20.511719 33.621094 19.765625 33.621094 19.417969 33.59375 L 19.417969 33.902344 L 19.65625 33.902344 C 20.425781 33.902344 20.445312 34.011719 20.445312 34.371094 L 20.445312 36.703125 L 17.464844 36.703125 L 17.464844 34.371094 C 17.464844 34.011719 17.484375 33.902344 18.253906 33.902344 L 18.492188 33.902344 L 18.492188 33.59375 C 18.140625 33.621094 17.40625 33.621094 17.023438 33.621094 C 16.648438 33.621094 15.898438 33.621094 15.550781 33.59375 L 15.550781 33.902344 L 15.789062 33.902344 C 16.558594 33.902344 16.578125 34.011719 16.578125 34.371094 L 16.578125 39.621094 C 16.578125 39.980469 16.558594 40.089844 15.789062 40.089844 L 15.550781 40.089844 L 15.550781 40.398438 C 15.898438 40.367188 16.636719 40.367188 17.015625 40.367188 C 17.394531 40.367188 18.140625 40.367188 18.492188 40.398438 L 18.492188 40.089844 L 18.253906 40.089844 C 17.484375 40.089844 17.464844 39.980469 17.464844 39.621094 L 17.464844 37.011719 L 20.445312 37.011719 L 20.445312 39.621094 C 20.445312 39.980469 20.425781 40.089844 19.65625 40.089844 L 19.417969 40.089844 L 19.417969 40.398438 C 19.765625 40.367188 20.503906 40.367188 20.882812 40.367188 C 21.261719 40.367188 22.007812 40.367188 22.355469 40.398438 L 22.355469 40.089844 L 22.117188 40.089844 C 21.351562 40.089844 21.328125 39.980469 21.328125 39.621094 L 21.328125 34.371094 "/>
<path fill-rule="nonzero" fill="rgb(0%, 0%, 0%)" fill-opacity="1" d="M 23.738281 37.886719 C 23.800781 36.402344 24.636719 36.152344 24.972656 36.152344 C 26 36.152344 26.101562 37.5 26.101562 37.886719 Z M 23.726562 38.097656 L 26.507812 38.097656 C 26.726562 38.097656 26.757812 38.097656 26.757812 37.886719 C 26.757812 36.902344 26.21875 35.933594 24.972656 35.933594 C 23.816406 35.933594 22.902344 36.960938 22.902344 38.207031 C 22.902344 39.542969 23.945312 40.507812 25.09375 40.507812 C 26.308594 40.507812 26.757812 39.402344 26.757812 39.214844 C 26.757812 39.113281 26.679688 39.09375 26.628906 39.09375 C 26.539062 39.09375 26.519531 39.152344 26.5 39.234375 C 26.148438 40.261719 25.253906 40.261719 25.152344 40.261719 C 24.65625 40.261719 24.257812 39.960938 24.027344 39.589844 C 23.726562 39.113281 23.726562 38.453125 23.726562 38.097656 "/>
<path fill-rule="nonzero" fill="rgb(0%, 0%, 0%)" fill-opacity="1" d="M 28.886719 33.484375 L 27.449219 33.59375 L 27.449219 33.902344 C 28.148438 33.902344 28.226562 33.972656 28.226562 34.460938 L 28.226562 39.640625 C 28.226562 40.089844 28.117188 40.089844 27.449219 40.089844 L 27.449219 40.398438 C 27.78125 40.390625 28.308594 40.367188 28.554688 40.367188 C 28.804688 40.367188 29.292969 40.390625 29.664062 40.398438 L 29.664062 40.089844 C 28.996094 40.089844 28.886719 40.089844 28.886719 39.640625 L 28.886719 33.484375 "/>
<path fill-rule="nonzero" fill="rgb(0%, 0%, 0%)" fill-opacity="1" d="M 31.585938 33.484375 L 30.148438 33.59375 L 30.148438 33.902344 C 30.847656 33.902344 30.929688 33.972656 30.929688 34.460938 L 30.929688 39.640625 C 30.929688 40.089844 30.820312 40.089844 30.148438 40.089844 L 30.148438 40.398438 C 30.480469 40.390625 31.007812 40.367188 31.257812 40.367188 C 31.507812 40.367188 31.992188 40.390625 32.363281 40.398438 L 32.363281 40.089844 C 31.695312 40.089844 31.585938 40.089844 31.585938 39.640625 L 31.585938 33.484375 "/>
<path fill-rule="nonzero" fill="rgb(0%, 0%, 0%)" fill-opacity="1" d="M 37.316406 38.265625 C 37.316406 36.992188 36.320312 35.933594 35.113281 35.933594 C 33.867188 35.933594 32.902344 37.019531 32.902344 38.265625 C 32.902344 39.550781 33.9375 40.507812 35.101562 40.507812 C 36.308594 40.507812 37.316406 39.53125 37.316406 38.265625 Z M 35.113281 40.261719 C 34.683594 40.261719 34.246094 40.050781 33.976562 39.589844 C 33.726562 39.152344 33.726562 38.546875 33.726562 38.1875 C 33.726562 37.796875 33.726562 37.261719 33.96875 36.820312 C 34.234375 36.363281 34.703125 36.152344 35.101562 36.152344 C 35.542969 36.152344 35.96875 36.375 36.230469 36.800781 C 36.488281 37.230469 36.488281 37.808594 36.488281 38.1875 C 36.488281 38.546875 36.488281 39.082031 36.269531 39.523438 C 36.050781 39.972656 35.609375 40.261719 35.113281 40.261719 "/>
<path fill-rule="nonzero" fill="rgb(0%, 0%, 0%)" fill-opacity="1" d="M 44.707031 39.851562 L 44.707031 40.507812 L 46.175781 40.398438 L 46.175781 40.089844 C 45.476562 40.089844 45.394531 40.019531 45.394531 39.53125 L 45.394531 33.484375 L 43.960938 33.59375 L 43.960938 33.902344 C 44.660156 33.902344 44.738281 33.972656 44.738281 34.460938 L 44.738281 36.613281 C 44.449219 36.253906 44.019531 35.992188 43.484375 35.992188 C 42.304688 35.992188 41.261719 36.972656 41.261719 38.257812 C 41.261719 39.523438 42.238281 40.507812 43.375 40.507812 C 44.011719 40.507812 44.460938 40.167969 44.707031 39.851562 Z M 44.707031 37.179688 L 44.707031 39.222656 C 44.707031 39.402344 44.707031 39.421875 44.597656 39.589844 C 44.300781 40.070312 43.851562 40.289062 43.425781 40.289062 C 42.976562 40.289062 42.617188 40.03125 42.378906 39.652344 C 42.117188 39.242188 42.089844 38.675781 42.089844 38.265625 C 42.089844 37.898438 42.109375 37.300781 42.398438 36.851562 C 42.605469 36.542969 42.984375 36.214844 43.523438 36.214844 C 43.871094 36.214844 44.289062 36.363281 44.597656 36.8125 C 44.707031 36.980469 44.707031 37 44.707031 37.179688 "/>
<path fill-rule="nonzero" fill="rgb(0%, 0%, 0%)" fill-opacity="1" d="M 153.859375 74.992188 C 154.175781 74.972656 154.347656 74.753906 154.347656 74.503906 C 154.347656 74.175781 154.097656 74.015625 153.867188 74.015625 C 153.628906 74.015625 153.378906 74.164062 153.378906 74.515625 C 153.378906 75.023438 153.878906 75.441406 154.484375 75.441406 C 156 75.441406 156.570312 73.109375 157.277344 70.21875 C 158.042969 67.070312 158.691406 63.890625 159.230469 60.691406 C 159.597656 58.570312 159.96875 56.578125 160.304688 55.289062 C 160.425781 54.804688 160.765625 53.519531 161.152344 53.519531 C 161.460938 53.519531 161.710938 53.707031 161.75 53.746094 C 161.421875 53.769531 161.253906 53.984375 161.253906 54.234375 C 161.253906 54.566406 161.503906 54.722656 161.730469 54.722656 C 161.96875 54.722656 162.21875 54.574219 162.21875 54.226562 C 162.21875 53.6875 161.679688 53.300781 161.132812 53.300781 C 160.375 53.300781 159.816406 54.386719 159.269531 56.417969 C 159.238281 56.527344 157.886719 61.53125 156.789062 68.046875 C 156.527344 69.570312 156.238281 71.234375 155.910156 72.621094 C 155.730469 73.347656 155.273438 75.222656 154.464844 75.222656 C 154.109375 75.222656 153.867188 74.992188 153.859375 74.992188 "/>
<path fill-rule="nonzero" fill="rgb(0%, 0%, 0%)" fill-opacity="1" d="M 167.75 63.890625 C 167.808594 63.628906 168.039062 62.714844 168.734375 62.714844 C 168.785156 62.714844 169.023438 62.714844 169.234375 62.84375 C 168.957031 62.894531 168.757812 63.144531 168.757812 63.382812 C 168.757812 63.539062 168.867188 63.730469 169.136719 63.730469 C 169.355469 63.730469 169.675781 63.550781 169.675781 63.152344 C 169.675781 62.632812 169.085938 62.492188 168.746094 62.492188 C 168.167969 62.492188 167.820312 63.023438 167.699219 63.253906 C 167.453125 62.59375 166.914062 62.492188 166.625 62.492188 C 165.589844 62.492188 165.019531 63.78125 165.019531 64.027344 C 165.019531 64.128906 165.117188 64.128906 165.140625 64.128906 C 165.21875 64.128906 165.25 64.109375 165.269531 64.019531 C 165.609375 62.964844 166.265625 62.714844 166.605469 62.714844 C 166.792969 62.714844 167.140625 62.804688 167.140625 63.382812 C 167.140625 63.691406 166.972656 64.359375 166.605469 65.753906 C 166.445312 66.371094 166.09375 66.789062 165.65625 66.789062 C 165.597656 66.789062 165.367188 66.789062 165.160156 66.660156 C 165.40625 66.609375 165.628906 66.402344 165.628906 66.121094 C 165.628906 65.851562 165.40625 65.773438 165.261719 65.773438 C 164.960938 65.773438 164.710938 66.03125 164.710938 66.351562 C 164.710938 66.808594 165.210938 67.007812 165.648438 67.007812 C 166.304688 67.007812 166.664062 66.3125 166.695312 66.25 C 166.8125 66.617188 167.171875 67.007812 167.769531 67.007812 C 168.796875 67.007812 169.363281 65.722656 169.363281 65.472656 C 169.363281 65.375 169.273438 65.375 169.246094 65.375 C 169.15625 65.375 169.136719 65.414062 169.117188 65.484375 C 168.785156 66.550781 168.109375 66.789062 167.789062 66.789062 C 167.402344 66.789062 167.242188 66.472656 167.242188 66.132812 C 167.242188 65.914062 167.300781 65.691406 167.410156 65.253906 L 167.75 63.890625 "/>
<path fill-rule="nonzero" fill="rgb(0%, 0%, 0%)" fill-opacity="1" d="M 175.609375 66.351562 L 175.609375 67.007812 L 177.074219 66.898438 L 177.074219 66.589844 C 176.375 66.589844 176.296875 66.519531 176.296875 66.03125 L 176.296875 59.984375 L 174.859375 60.09375 L 174.859375 60.402344 C 175.558594 60.402344 175.640625 60.472656 175.640625 60.960938 L 175.640625 63.113281 C 175.351562 62.753906 174.921875 62.492188 174.382812 62.492188 C 173.207031 62.492188 172.160156 63.472656 172.160156 64.757812 C 172.160156 66.023438 173.136719 67.007812 174.273438 67.007812 C 174.910156 67.007812 175.359375 66.667969 175.609375 66.351562 Z M 175.609375 63.679688 L 175.609375 65.722656 C 175.609375 65.902344 175.609375 65.921875 175.5 66.089844 C 175.199219 66.570312 174.753906 66.789062 174.324219 66.789062 C 173.875 66.789062 173.515625 66.53125 173.277344 66.152344 C 173.015625 65.742188 172.988281 65.175781 172.988281 64.765625 C 172.988281 64.398438 173.007812 63.800781 173.296875 63.351562 C 173.507812 63.042969 173.886719 62.714844 174.425781 62.714844 C 174.773438 62.714844 175.191406 62.863281 175.5 63.3125 C 175.609375 63.480469 175.609375 63.5 175.609375 63.679688 "/>
<path fill-rule="nonzero" fill="rgb(0%, 0%, 0%)" fill-opacity="1" d="M 180.648438 63.890625 C 180.710938 63.628906 180.9375 62.714844 181.636719 62.714844 C 181.6875 62.714844 181.925781 62.714844 182.136719 62.84375 C 181.855469 62.894531 181.65625 63.144531 181.65625 63.382812 C 181.65625 63.539062 181.765625 63.730469 182.035156 63.730469 C 182.253906 63.730469 182.574219 63.550781 182.574219 63.152344 C 182.574219 62.632812 181.984375 62.492188 181.648438 62.492188 C 181.070312 62.492188 180.71875 63.023438 180.601562 63.253906 C 180.351562 62.59375 179.8125 62.492188 179.523438 62.492188 C 178.488281 62.492188 177.921875 63.78125 177.921875 64.027344 C 177.921875 64.128906 178.019531 64.128906 178.039062 64.128906 C 178.117188 64.128906 178.148438 64.109375 178.167969 64.019531 C 178.507812 62.964844 179.164062 62.714844 179.503906 62.714844 C 179.695312 62.714844 180.042969 62.804688 180.042969 63.382812 C 180.042969 63.691406 179.875 64.359375 179.503906 65.753906 C 179.34375 66.371094 178.996094 66.789062 178.558594 66.789062 C 178.5 66.789062 178.269531 66.789062 178.058594 66.660156 C 178.308594 66.609375 178.527344 66.402344 178.527344 66.121094 C 178.527344 65.851562 178.308594 65.773438 178.160156 65.773438 C 177.859375 65.773438 177.609375 66.03125 177.609375 66.351562 C 177.609375 66.808594 178.109375 67.007812 178.546875 67.007812 C 179.203125 67.007812 179.5625 66.3125 179.59375 66.25 C 179.714844 66.617188 180.070312 67.007812 180.671875 67.007812 C 181.695312 67.007812 182.265625 65.722656 182.265625 65.472656 C 182.265625 65.375 182.175781 65.375 182.144531 65.375 C 182.054688 65.375 182.035156 65.414062 182.015625 65.484375 C 181.6875 66.550781 181.011719 66.789062 180.691406 66.789062 C 180.300781 66.789062 180.140625 66.472656 180.140625 66.132812 C 180.140625 65.914062 180.203125 65.691406 180.3125 65.253906 L 180.648438 63.890625 "/>
<path fill-rule="nonzero" fill="rgb(0%, 0%, 0%)" fill-opacity="1" d="M 192.667969 63.640625 C 192.816406 63.640625 193.007812 63.640625 193.007812 63.441406 C 193.007812 63.242188 192.816406 63.242188 192.679688 63.242188 L 186.710938 63.242188 C 186.570312 63.242188 186.378906 63.242188 186.378906 63.441406 C 186.378906 63.640625 186.570312 63.640625 186.71875 63.640625 Z M 192.679688 65.574219 C 192.816406 65.574219 193.007812 65.574219 193.007812 65.375 C 193.007812 65.175781 192.816406 65.175781 192.667969 65.175781 L 186.71875 65.175781 C 186.570312 65.175781 186.378906 65.175781 186.378906 65.375 C 186.378906 65.574219 186.570312 65.574219 186.710938 65.574219 L 192.679688 65.574219 "/>
<path fill-rule="nonzero" fill="rgb(0%, 0%, 0%)" fill-opacity="1" d="M 199.253906 60.519531 C 199.253906 60.28125 199.253906 60.261719 199.023438 60.261719 C 198.40625 60.902344 197.527344 60.902344 197.210938 60.902344 L 197.210938 61.207031 C 197.40625 61.207031 197.996094 61.207031 198.515625 60.949219 L 198.515625 66.109375 C 198.515625 66.472656 198.484375 66.589844 197.589844 66.589844 L 197.269531 66.589844 L 197.269531 66.898438 C 197.617188 66.867188 198.484375 66.867188 198.882812 66.867188 C 199.28125 66.867188 200.148438 66.867188 200.496094 66.898438 L 200.496094 66.589844 L 200.179688 66.589844 C 199.28125 66.589844 199.253906 66.480469 199.253906 66.109375 L 199.253906 60.519531 "/>
<path fill-rule="nonzero" fill="rgb(0%, 0%, 0%)" fill-opacity="1" d="M 207.597656 64.605469 L 210.378906 64.605469 C 210.515625 64.605469 210.707031 64.605469 210.707031 64.40625 C 210.707031 64.207031 210.515625 64.207031 210.378906 64.207031 L 207.597656 64.207031 L 207.597656 61.417969 C 207.597656 61.277344 207.597656 61.089844 207.398438 61.089844 C 207.199219 61.089844 207.199219 61.277344 207.199219 61.417969 L 207.199219 64.207031 L 204.410156 64.207031 C 204.269531 64.207031 204.078125 64.207031 204.078125 64.40625 C 204.078125 64.605469 204.269531 64.605469 204.410156 64.605469 L 207.199219 64.605469 L 207.199219 67.398438 C 207.199219 67.535156 207.199219 67.726562 207.398438 67.726562 C 207.597656 67.726562 207.597656 67.535156 207.597656 67.398438 L 207.597656 64.605469 "/>
<path fill-rule="nonzero" fill="rgb(0%, 0%, 0%)" fill-opacity="1" d="M 220.996094 59.972656 C 220.996094 59.945312 220.976562 59.875 220.886719 59.875 C 220.855469 59.875 220.84375 59.882812 220.734375 59.992188 L 220.039062 60.761719 C 219.949219 60.621094 219.492188 59.875 218.386719 59.875 C 216.164062 59.875 213.921875 62.074219 213.921875 64.386719 C 213.921875 66.03125 215.09375 67.117188 216.621094 67.117188 C 217.488281 67.117188 218.246094 66.71875 218.773438 66.261719 C 219.699219 65.445312 219.867188 64.539062 219.867188 64.507812 C 219.867188 64.40625 219.769531 64.40625 219.75 64.40625 C 219.6875 64.40625 219.640625 64.425781 219.621094 64.507812 C 219.53125 64.796875 219.300781 65.503906 218.613281 66.082031 C 217.925781 66.640625 217.300781 66.808594 216.78125 66.808594 C 215.882812 66.808594 214.828125 66.289062 214.828125 64.734375 C 214.828125 64.167969 215.035156 62.554688 216.03125 61.386719 C 216.640625 60.679688 217.578125 60.183594 218.464844 60.183594 C 219.480469 60.183594 220.070312 60.949219 220.070312 62.105469 C 220.070312 62.503906 220.039062 62.515625 220.039062 62.613281 C 220.039062 62.714844 220.148438 62.714844 220.1875 62.714844 C 220.316406 62.714844 220.316406 62.695312 220.367188 62.515625 L 220.996094 59.972656 "/>
<path fill-rule="nonzero" fill="rgb(0%, 0%, 0%)" fill-opacity="1" d="M 22.460938 98.417969 L 21.859375 98.417969 C 21.816406 98.71875 21.714844 99.5625 21.5 99.707031 C 21.386719 99.808594 20.265625 99.808594 20.054688 99.808594 L 17.832031 99.808594 C 18.375 99.347656 19.679688 98.261719 19.894531 98.101562 C 21.484375 96.910156 22.460938 96.179688 22.460938 94.804688 C 22.460938 93.113281 20.925781 92.097656 19.035156 92.097656 C 17.414062 92.097656 16.023438 93.011719 16.023438 94.375 C 16.023438 95.136719 16.640625 95.347656 16.96875 95.347656 C 17.414062 95.347656 17.929688 95.050781 17.929688 94.390625 C 17.929688 93.785156 17.488281 93.484375 17.042969 93.429688 C 17.617188 92.769531 18.375 92.710938 18.675781 92.710938 C 19.996094 92.710938 20.628906 93.785156 20.628906 94.820312 C 20.628906 95.9375 19.867188 96.96875 19.277344 97.585938 L 16.167969 100.839844 C 16.023438 100.96875 16.023438 100.996094 16.023438 101.253906 L 16.023438 101.5 L 22.046875 101.5 L 22.460938 98.417969 "/>
<path fill-rule="nonzero" fill="rgb(0%, 0%, 0%)" fill-opacity="1" d="M 51.519531 97.113281 C 51.519531 95.792969 50.960938 95.050781 49.355469 95.050781 C 47.90625 95.050781 47.234375 96.023438 47.003906 96.480469 C 46.773438 95.261719 45.800781 95.050781 44.882812 95.050781 C 43.507812 95.050781 42.761719 95.9375 42.460938 96.625 L 42.445312 96.625 L 42.445312 95.050781 L 40.023438 95.164062 L 40.023438 95.777344 C 40.914062 95.777344 41.011719 95.777344 41.011719 96.339844 L 41.011719 100.882812 L 40.023438 100.882812 L 40.023438 101.5 C 40.351562 101.472656 41.386719 101.472656 41.789062 101.472656 C 42.1875 101.472656 43.234375 101.472656 43.5625 101.5 L 43.5625 100.882812 L 42.574219 100.882812 L 42.574219 97.828125 C 42.574219 96.265625 43.734375 95.519531 44.640625 95.519531 C 45.171875 95.519531 45.484375 95.835938 45.484375 96.953125 L 45.484375 100.882812 L 44.496094 100.882812 L 44.496094 101.5 C 44.828125 101.472656 45.859375 101.472656 46.261719 101.472656 C 46.660156 101.472656 47.707031 101.472656 48.039062 101.5 L 48.039062 100.882812 L 47.050781 100.882812 L 47.050781 97.828125 C 47.050781 96.265625 48.210938 95.519531 49.113281 95.519531 C 49.640625 95.519531 49.957031 95.835938 49.957031 96.953125 L 49.957031 100.882812 L 48.96875 100.882812 L 48.96875 101.5 C 49.300781 101.472656 50.332031 101.472656 50.734375 101.472656 C 51.132812 101.472656 52.179688 101.472656 52.511719 101.5 L 52.511719 100.882812 L 51.519531 100.882812 L 51.519531 97.113281 "/>
<path fill-rule="nonzero" fill="rgb(0%, 0%, 0%)" fill-opacity="1" d="M 59.414062 97.214844 C 59.414062 95.894531 58.367188 95.003906 56.347656 95.003906 C 55.546875 95.003906 53.855469 95.078125 53.855469 96.28125 C 53.855469 96.882812 54.3125 97.140625 54.699219 97.140625 C 55.128906 97.140625 55.546875 96.839844 55.546875 96.296875 C 55.546875 96.023438 55.445312 95.765625 55.203125 95.605469 C 55.675781 95.480469 56.019531 95.480469 56.289062 95.480469 C 57.265625 95.480469 57.851562 96.023438 57.851562 97.199219 L 57.851562 97.773438 C 55.589844 97.773438 53.308594 98.402344 53.308594 99.992188 C 53.308594 101.300781 54.972656 101.585938 55.960938 101.585938 C 57.066406 101.585938 57.765625 100.984375 58.054688 100.351562 C 58.054688 100.882812 58.054688 101.5 59.503906 101.5 L 60.234375 101.5 C 60.535156 101.5 60.648438 101.5 60.648438 101.183594 C 60.648438 100.882812 60.519531 100.882812 60.320312 100.882812 C 59.414062 100.867188 59.414062 100.640625 59.414062 100.308594 Z M 57.851562 99.507812 C 57.851562 100.855469 56.648438 101.109375 56.191406 101.109375 C 55.488281 101.109375 54.898438 100.640625 54.898438 99.980469 C 54.898438 98.675781 56.449219 98.230469 57.851562 98.15625 L 57.851562 99.507812 "/>
<path fill-rule="nonzero" fill="rgb(0%, 0%, 0%)" fill-opacity="1" d="M 63.746094 95.75 L 65.8125 95.75 L 65.8125 95.136719 L 63.746094 95.136719 L 63.746094 92.394531 L 63.144531 92.394531 C 63.128906 93.816406 62.441406 95.234375 61.023438 95.277344 L 61.023438 95.75 L 62.183594 95.75 L 62.183594 99.734375 C 62.183594 101.253906 63.359375 101.585938 64.390625 101.585938 C 65.453125 101.585938 66.082031 100.78125 66.082031 99.722656 L 66.082031 98.960938 L 65.480469 98.960938 L 65.480469 99.707031 C 65.480469 100.652344 65.050781 101.070312 64.605469 101.070312 C 63.746094 101.070312 63.746094 100.109375 63.746094 99.777344 L 63.746094 95.75 "/>
<path fill-rule="nonzero" fill="rgb(0%, 0%, 0%)" fill-opacity="1" d="M 74.535156 97.113281 C 74.535156 95.75 73.945312 95.050781 72.367188 95.050781 C 70.921875 95.050781 70.21875 96.066406 70.019531 96.496094 L 70.003906 96.496094 L 70.003906 91.550781 L 67.523438 91.664062 L 67.523438 92.28125 C 68.414062 92.28125 68.511719 92.28125 68.511719 92.839844 L 68.511719 100.882812 L 67.523438 100.882812 L 67.523438 101.5 C 67.851562 101.472656 68.886719 101.472656 69.289062 101.472656 C 69.6875 101.472656 70.734375 101.472656 71.0625 101.5 L 71.0625 100.882812 L 70.074219 100.882812 L 70.074219 97.828125 C 70.074219 96.28125 71.222656 95.519531 72.140625 95.519531 C 72.671875 95.519531 72.972656 95.863281 72.972656 96.953125 L 72.972656 100.882812 L 71.984375 100.882812 L 71.984375 101.5 C 72.3125 101.472656 73.34375 101.472656 73.746094 101.472656 C 74.148438 101.472656 75.195312 101.472656 75.523438 101.5 L 75.523438 100.882812 L 74.535156 100.882812 L 74.535156 97.113281 "/>
<path fill-rule="nonzero" fill="rgb(0%, 0%, 0%)" fill-opacity="1" d="M 82.632812 99.820312 C 82.632812 99.652344 82.472656 99.652344 82.328125 99.652344 C 82.101562 99.652344 82.085938 99.664062 82.015625 99.835938 C 81.914062 100.109375 81.527344 101.070312 80.207031 101.070312 C 78.1875 101.070312 78.1875 98.890625 78.1875 98.242188 C 78.1875 97.398438 78.203125 95.519531 80.078125 95.519531 C 80.179688 95.519531 81.023438 95.550781 81.023438 95.621094 C 81.023438 95.636719 81.011719 95.652344 80.984375 95.664062 C 80.9375 95.707031 80.753906 95.921875 80.753906 96.28125 C 80.753906 96.882812 81.242188 97.128906 81.597656 97.128906 C 81.898438 97.128906 82.445312 96.941406 82.445312 96.265625 C 82.445312 95.089844 80.796875 95.003906 80.023438 95.003906 C 77.46875 95.003906 76.46875 96.667969 76.46875 98.316406 C 76.46875 100.265625 77.828125 101.585938 79.9375 101.585938 C 82.1875 101.585938 82.632812 99.921875 82.632812 99.820312 "/>
<path fill-rule="nonzero" fill="rgb(0%, 0%, 0%)" fill-opacity="1" d="M 90.71875 98.359375 C 90.71875 96.425781 89.398438 95.003906 87.148438 95.003906 C 84.8125 95.003906 83.566406 96.496094 83.566406 98.359375 C 83.566406 100.238281 84.886719 101.585938 87.136719 101.585938 C 89.472656 101.585938 90.71875 100.164062 90.71875 98.359375 Z M 87.148438 101.070312 C 85.285156 101.070312 85.285156 99.390625 85.285156 98.214844 C 85.285156 97.542969 85.285156 96.824219 85.558594 96.308594 C 85.875 95.734375 86.519531 95.480469 87.136719 95.480469 C 87.953125 95.480469 88.46875 95.863281 88.714844 96.265625 C 89 96.78125 89 97.527344 89 98.214844 C 89 99.40625 89 101.070312 87.148438 101.070312 "/>
<path fill-rule="nonzero" fill="rgb(0%, 0%, 0%)" fill-opacity="1" d="M 96.59375 91.664062 L 96.59375 92.28125 C 97.484375 92.28125 97.585938 92.28125 97.585938 92.839844 L 97.585938 95.734375 C 97.269531 95.464844 96.640625 95.050781 95.648438 95.050781 C 93.613281 95.050781 92.167969 96.308594 92.167969 98.316406 C 92.167969 100.367188 93.585938 101.585938 95.492188 101.585938 C 96.28125 101.585938 96.953125 101.3125 97.515625 100.839844 L 97.515625 101.585938 L 100.066406 101.5 L 100.066406 100.882812 C 99.175781 100.882812 99.078125 100.882812 99.078125 100.324219 L 99.078125 91.550781 Z M 97.515625 100.050781 C 96.910156 100.925781 96.179688 101.109375 95.664062 101.109375 C 93.886719 101.109375 93.886719 99.289062 93.886719 98.347656 C 93.886719 97.671875 93.886719 96.953125 94.203125 96.410156 C 94.648438 95.605469 95.492188 95.519531 95.820312 95.519531 C 96.410156 95.519531 97.039062 95.777344 97.515625 96.410156 L 97.515625 100.050781 "/>
<path fill-rule="nonzero" fill="rgb(0%, 0%, 0%)" fill-opacity="1" d="M 107.101562 98.328125 C 107.429688 98.328125 107.515625 98.328125 107.515625 97.972656 C 107.515625 97.542969 107.417969 96.46875 106.757812 95.792969 C 106.15625 95.191406 105.351562 95.003906 104.519531 95.003906 C 102.285156 95.003906 101.066406 96.46875 101.066406 98.273438 C 101.066406 100.28125 102.542969 101.585938 104.707031 101.585938 C 106.871094 101.585938 107.515625 100.066406 107.515625 99.820312 C 107.515625 99.605469 107.300781 99.605469 107.214844 99.605469 C 106.984375 99.605469 106.972656 99.652344 106.886719 99.835938 C 106.515625 100.769531 105.566406 101.070312 104.878906 101.070312 C 102.800781 101.070312 102.785156 99.132812 102.785156 98.328125 Z M 102.785156 97.914062 C 102.816406 97.328125 102.828125 96.769531 103.132812 96.253906 C 103.402344 95.792969 103.90625 95.480469 104.519531 95.480469 C 106.054688 95.480469 106.183594 97.199219 106.199219 97.914062 L 102.785156 97.914062 "/>
<path fill-rule="nonzero" fill="rgb(0%, 0%, 0%)" fill-opacity="1" d="M 21.328125 117.269531 C 21.328125 116.910156 21.351562 116.800781 22.117188 116.800781 L 22.355469 116.800781 L 22.355469 116.492188 C 22.007812 116.523438 21.269531 116.523438 20.890625 116.523438 C 20.511719 116.523438 19.765625 116.523438 19.417969 116.492188 L 19.417969 116.800781 L 19.65625 116.800781 C 20.425781 116.800781 20.445312 116.910156 20.445312 117.269531 L 20.445312 119.601562 L 17.464844 119.601562 L 17.464844 117.269531 C 17.464844 116.910156 17.484375 116.800781 18.253906 116.800781 L 18.492188 116.800781 L 18.492188 116.492188 C 18.140625 116.523438 17.40625 116.523438 17.023438 116.523438 C 16.648438 116.523438 15.898438 116.523438 15.550781 116.492188 L 15.550781 116.800781 L 15.789062 116.800781 C 16.558594 116.800781 16.578125 116.910156 16.578125 117.269531 L 16.578125 122.523438 C 16.578125 122.878906 16.558594 122.988281 15.789062 122.988281 L 15.550781 122.988281 L 15.550781 123.300781 C 15.898438 123.269531 16.636719 123.269531 17.015625 123.269531 C 17.394531 123.269531 18.140625 123.269531 18.492188 123.300781 L 18.492188 122.988281 L 18.253906 122.988281 C 17.484375 122.988281 17.464844 122.878906 17.464844 122.523438 L 17.464844 119.910156 L 20.445312 119.910156 L 20.445312 122.523438 C 20.445312 122.878906 20.425781 122.988281 19.65625 122.988281 L 19.417969 122.988281 L 19.417969 123.300781 C 19.765625 123.269531 20.503906 123.269531 20.882812 123.269531 C 21.261719 123.269531 22.007812 123.269531 22.355469 123.300781 L 22.355469 122.988281 L 22.117188 122.988281 C 21.351562 122.988281 21.328125 122.878906 21.328125 122.523438 L 21.328125 117.269531 "/>
<path fill-rule="nonzero" fill="rgb(0%, 0%, 0%)" fill-opacity="1" d="M 23.738281 120.789062 C 23.800781 119.304688 24.636719 119.054688 24.972656 119.054688 C 26 119.054688 26.101562 120.398438 26.101562 120.789062 Z M 23.726562 120.996094 L 26.507812 120.996094 C 26.726562 120.996094 26.757812 120.996094 26.757812 120.789062 C 26.757812 119.800781 26.21875 118.835938 24.972656 118.835938 C 23.816406 118.835938 22.902344 119.859375 22.902344 121.105469 C 22.902344 122.441406 23.945312 123.40625 25.09375 123.40625 C 26.308594 123.40625 26.757812 122.300781 26.757812 122.113281 C 26.757812 122.011719 26.679688 121.992188 26.628906 121.992188 C 26.539062 121.992188 26.519531 122.054688 26.5 122.132812 C 26.148438 123.160156 25.253906 123.160156 25.152344 123.160156 C 24.65625 123.160156 24.257812 122.859375 24.027344 122.492188 C 23.726562 122.011719 23.726562 121.355469 23.726562 120.996094 "/>
<path fill-rule="nonzero" fill="rgb(0%, 0%, 0%)" fill-opacity="1" d="M 28.886719 116.382812 L 27.449219 116.492188 L 27.449219 116.800781 C 28.148438 116.800781 28.226562 116.871094 28.226562 117.359375 L 28.226562 122.539062 C 28.226562 122.988281 28.117188 122.988281 27.449219 122.988281 L 27.449219 123.300781 C 27.78125 123.289062 28.308594 123.269531 28.554688 123.269531 C 28.804688 123.269531 29.292969 123.289062 29.664062 123.300781 L 29.664062 122.988281 C 28.996094 122.988281 28.886719 122.988281 28.886719 122.539062 L 28.886719 116.382812 "/>
<path fill-rule="nonzero" fill="rgb(0%, 0%, 0%)" fill-opacity="1" d="M 31.585938 116.382812 L 30.148438 116.492188 L 30.148438 116.800781 C 30.847656 116.800781 30.929688 116.871094 30.929688 117.359375 L 30.929688 122.539062 C 30.929688 122.988281 30.820312 122.988281 30.148438 122.988281 L 30.148438 123.300781 C 30.480469 123.289062 31.007812 123.269531 31.257812 123.269531 C 31.507812 123.269531 31.992188 123.289062 32.363281 123.300781 L 32.363281 122.988281 C 31.695312 122.988281 31.585938 122.988281 31.585938 122.539062 L 31.585938 116.382812 "/>
<path fill-rule="nonzero" fill="rgb(0%, 0%, 0%)" fill-opacity="1" d="M 37.316406 121.164062 C 37.316406 119.890625 36.320312 118.835938 35.113281 118.835938 C 33.867188 118.835938 32.902344 119.921875 32.902344 121.164062 C 32.902344 122.453125 33.9375 123.40625 35.101562 123.40625 C 36.308594 123.40625 37.316406 122.433594 37.316406 121.164062 Z M 35.113281 123.160156 C 34.683594 123.160156 34.246094 122.949219 33.976562 122.492188 C 33.726562 122.054688 33.726562 121.445312 33.726562 121.085938 C 33.726562 120.695312 33.726562 120.160156 33.96875 119.722656 C 34.234375 119.261719 34.703125 119.054688 35.101562 119.054688 C 35.542969 119.054688 35.96875 119.273438 36.230469 119.703125 C 36.488281 120.128906 36.488281 120.707031 36.488281 121.085938 C 36.488281 121.445312 36.488281 121.984375 36.269531 122.421875 C 36.050781 122.871094 35.609375 123.160156 35.113281 123.160156 "/>
<path fill-rule="nonzero" fill="rgb(0%, 0%, 0%)" fill-opacity="1" d="M 44.707031 122.75 L 44.707031 123.40625 L 46.175781 123.300781 L 46.175781 122.988281 C 45.476562 122.988281 45.394531 122.921875 45.394531 122.433594 L 45.394531 116.382812 L 43.960938 116.492188 L 43.960938 116.800781 C 44.660156 116.800781 44.738281 116.871094 44.738281 117.359375 L 44.738281 119.511719 C 44.449219 119.152344 44.019531 118.894531 43.484375 118.894531 C 42.304688 118.894531 41.261719 119.871094 41.261719 121.15625 C 41.261719 122.421875 42.238281 123.40625 43.375 123.40625 C 44.011719 123.40625 44.460938 123.070312 44.707031 122.75 Z M 44.707031 120.078125 L 44.707031 122.121094 C 44.707031 122.300781 44.707031 122.320312 44.597656 122.492188 C 44.300781 122.972656 43.851562 123.191406 43.425781 123.191406 C 42.976562 123.191406 42.617188 122.929688 42.378906 122.550781 C 42.117188 122.144531 42.089844 121.574219 42.089844 121.164062 C 42.089844 120.796875 42.109375 120.199219 42.398438 119.753906 C 42.605469 119.441406 42.984375 119.113281 43.523438 119.113281 C 43.871094 119.113281 44.289062 119.261719 44.597656 119.710938 C 44.707031 119.882812 44.707031 119.902344 44.707031 120.078125 "/>
<path fill-rule="nonzero" fill="rgb(0%, 0%, 0%)" fill-opacity="1" d="M 154.65625 145.992188 C 154.976562 145.972656 155.148438 145.753906 155.148438 145.503906 C 155.148438 145.175781 154.898438 145.015625 154.667969 145.015625 C 154.429688 145.015625 154.179688 145.164062 154.179688 145.515625 C 154.179688 146.023438 154.679688 146.441406 155.285156 146.441406 C 156.800781 146.441406 157.367188 144.109375 158.078125 141.21875 C 158.84375 138.070312 159.492188 134.890625 160.03125 131.691406 C 160.398438 129.570312 160.765625 127.578125 161.105469 126.289062 C 161.226562 125.804688 161.5625 124.519531 161.953125 124.519531 C 162.261719 124.519531 162.511719 124.707031 162.550781 124.746094 C 162.222656 124.769531 162.050781 124.984375 162.050781 125.234375 C 162.050781 125.566406 162.300781 125.722656 162.53125 125.722656 C 162.769531 125.722656 163.019531 125.574219 163.019531 125.226562 C 163.019531 124.6875 162.480469 124.300781 161.933594 124.300781 C 161.175781 124.300781 160.617188 125.386719 160.070312 127.417969 C 160.039062 127.527344 158.683594 132.53125 157.589844 139.046875 C 157.328125 140.570312 157.039062 142.234375 156.710938 143.621094 C 156.53125 144.347656 156.074219 146.222656 155.265625 146.222656 C 154.90625 146.222656 154.667969 145.992188 154.65625 145.992188 "/>
<path fill-rule="nonzero" fill="rgb(0%, 0%, 0%)" fill-opacity="1" d="M 168.550781 134.789062 C 168.609375 134.53125 168.839844 133.613281 169.535156 133.613281 C 169.585938 133.613281 169.824219 133.613281 170.035156 133.742188 C 169.757812 133.792969 169.554688 134.042969 169.554688 134.28125 C 169.554688 134.441406 169.664062 134.628906 169.9375 134.628906 C 170.15625 134.628906 170.472656 134.449219 170.472656 134.050781 C 170.472656 133.53125 169.886719 133.394531 169.546875 133.394531 C 168.96875 133.394531 168.621094 133.921875 168.5 134.152344 C 168.253906 133.492188 167.714844 133.394531 167.425781 133.394531 C 166.386719 133.394531 165.820312 134.679688 165.820312 134.929688 C 165.820312 135.027344 165.917969 135.027344 165.9375 135.027344 C 166.019531 135.027344 166.050781 135.007812 166.070312 134.917969 C 166.40625 133.863281 167.066406 133.613281 167.40625 133.613281 C 167.59375 133.613281 167.941406 133.703125 167.941406 134.28125 C 167.941406 134.589844 167.773438 135.257812 167.40625 136.652344 C 167.246094 137.269531 166.894531 137.691406 166.457031 137.691406 C 166.398438 137.691406 166.167969 137.691406 165.960938 137.558594 C 166.207031 137.511719 166.429688 137.300781 166.429688 137.023438 C 166.429688 136.753906 166.207031 136.671875 166.058594 136.671875 C 165.761719 136.671875 165.511719 136.933594 165.511719 137.25 C 165.511719 137.710938 166.011719 137.90625 166.445312 137.90625 C 167.105469 137.90625 167.464844 137.210938 167.492188 137.152344 C 167.613281 137.519531 167.972656 137.90625 168.570312 137.90625 C 169.597656 137.90625 170.164062 136.621094 170.164062 136.375 C 170.164062 136.273438 170.074219 136.273438 170.046875 136.273438 C 169.953125 136.273438 169.9375 136.316406 169.914062 136.382812 C 169.585938 137.449219 168.910156 137.691406 168.589844 137.691406 C 168.203125 137.691406 168.042969 137.371094 168.042969 137.03125 C 168.042969 136.8125 168.101562 136.59375 168.210938 136.15625 L 168.550781 134.789062 "/>
<path fill-rule="nonzero" fill="rgb(0%, 0%, 0%)" fill-opacity="1" d="M 174.707031 137.25 L 174.707031 137.90625 L 176.175781 137.800781 L 176.175781 137.488281 C 175.476562 137.488281 175.394531 137.421875 175.394531 136.933594 L 175.394531 130.882812 L 173.960938 130.992188 L 173.960938 131.300781 C 174.660156 131.300781 174.738281 131.371094 174.738281 131.859375 L 174.738281 134.011719 C 174.449219 133.652344 174.019531 133.394531 173.484375 133.394531 C 172.304688 133.394531 171.261719 134.371094 171.261719 135.65625 C 171.261719 136.921875 172.238281 137.90625 173.375 137.90625 C 174.011719 137.90625 174.460938 137.570312 174.707031 137.25 Z M 174.707031 134.578125 L 174.707031 136.621094 C 174.707031 136.800781 174.707031 136.820312 174.597656 136.992188 C 174.300781 137.472656 173.851562 137.691406 173.425781 137.691406 C 172.976562 137.691406 172.617188 137.429688 172.378906 137.050781 C 172.117188 136.644531 172.089844 136.074219 172.089844 135.664062 C 172.089844 135.296875 172.109375 134.699219 172.398438 134.253906 C 172.605469 133.941406 172.984375 133.613281 173.523438 133.613281 C 173.871094 133.613281 174.289062 133.761719 174.597656 134.210938 C 174.707031 134.382812 174.707031 134.402344 174.707031 134.578125 "/>
<path fill-rule="nonzero" fill="rgb(0%, 0%, 0%)" fill-opacity="1" d="M 179.851562 134.789062 C 179.910156 134.53125 180.140625 133.613281 180.835938 133.613281 C 180.886719 133.613281 181.125 133.613281 181.335938 133.742188 C 181.054688 133.792969 180.855469 134.042969 180.855469 134.28125 C 180.855469 134.441406 180.964844 134.628906 181.234375 134.628906 C 181.453125 134.628906 181.773438 134.449219 181.773438 134.050781 C 181.773438 133.53125 181.1875 133.394531 180.847656 133.394531 C 180.269531 133.394531 179.921875 133.921875 179.800781 134.152344 C 179.550781 133.492188 179.011719 133.394531 178.722656 133.394531 C 177.6875 133.394531 177.121094 134.679688 177.121094 134.929688 C 177.121094 135.027344 177.21875 135.027344 177.238281 135.027344 C 177.320312 135.027344 177.347656 135.007812 177.367188 134.917969 C 177.707031 133.863281 178.367188 133.613281 178.703125 133.613281 C 178.894531 133.613281 179.242188 133.703125 179.242188 134.28125 C 179.242188 134.589844 179.074219 135.257812 178.703125 136.652344 C 178.546875 137.269531 178.195312 137.691406 177.757812 137.691406 C 177.699219 137.691406 177.46875 137.691406 177.261719 137.558594 C 177.507812 137.511719 177.726562 137.300781 177.726562 137.023438 C 177.726562 136.753906 177.507812 136.671875 177.359375 136.671875 C 177.058594 136.671875 176.8125 136.933594 176.8125 137.25 C 176.8125 137.710938 177.308594 137.90625 177.746094 137.90625 C 178.40625 137.90625 178.765625 137.210938 178.792969 137.152344 C 178.914062 137.519531 179.273438 137.90625 179.871094 137.90625 C 180.898438 137.90625 181.464844 136.621094 181.464844 136.375 C 181.464844 136.273438 181.375 136.273438 181.34375 136.273438 C 181.253906 136.273438 181.234375 136.316406 181.214844 136.382812 C 180.886719 137.449219 180.210938 137.691406 179.890625 137.691406 C 179.503906 137.691406 179.34375 137.371094 179.34375 137.03125 C 179.34375 136.8125 179.402344 136.59375 179.511719 136.15625 L 179.851562 134.789062 "/>
<path fill-rule="nonzero" fill="rgb(0%, 0%, 0%)" fill-opacity="1" d="M 191.765625 134.539062 C 191.917969 134.539062 192.105469 134.539062 192.105469 134.339844 C 192.105469 134.140625 191.917969 134.140625 191.777344 134.140625 L 185.808594 134.140625 C 185.667969 134.140625 185.480469 134.140625 185.480469 134.339844 C 185.480469 134.539062 185.667969 134.539062 185.820312 134.539062 Z M 191.777344 136.472656 C 191.917969 136.472656 192.105469 136.472656 192.105469 136.273438 C 192.105469 136.074219 191.917969 136.074219 191.765625 136.074219 L 185.820312 136.074219 C 185.667969 136.074219 185.480469 136.074219 185.480469 136.273438 C 185.480469 136.472656 185.667969 136.472656 185.808594 136.472656 L 191.777344 136.472656 "/>
<path fill-rule="nonzero" fill="rgb(0%, 0%, 0%)" fill-opacity="1" d="M 198.351562 131.421875 C 198.351562 131.183594 198.351562 131.164062 198.121094 131.164062 C 197.503906 131.800781 196.628906 131.800781 196.308594 131.800781 L 196.308594 132.109375 C 196.507812 132.109375 197.09375 132.109375 197.613281 131.851562 L 197.613281 137.011719 C 197.613281 137.371094 197.585938 137.488281 196.6875 137.488281 L 196.367188 137.488281 L 196.367188 137.800781 C 196.71875 137.769531 197.585938 137.769531 197.984375 137.769531 C 198.382812 137.769531 199.25 137.769531 199.597656 137.800781 L 199.597656 137.488281 L 199.277344 137.488281 C 198.382812 137.488281 198.351562 137.378906 198.351562 137.011719 L 198.351562 131.421875 "/>
<path fill-rule="nonzero" fill="rgb(0%, 0%, 0%)" fill-opacity="1" d="M 206.695312 135.507812 L 209.476562 135.507812 C 209.617188 135.507812 209.804688 135.507812 209.804688 135.308594 C 209.804688 135.109375 209.617188 135.109375 209.476562 135.109375 L 206.695312 135.109375 L 206.695312 132.316406 C 206.695312 132.179688 206.695312 131.988281 206.5 131.988281 C 206.300781 131.988281 206.300781 132.179688 206.300781 132.316406 L 206.300781 135.109375 L 203.511719 135.109375 C 203.367188 135.109375 203.179688 135.109375 203.179688 135.308594 C 203.179688 135.507812 203.367188 135.507812 203.511719 135.507812 L 206.300781 135.507812 L 206.300781 138.296875 C 206.300781 138.4375 206.300781 138.625 206.5 138.625 C 206.695312 138.625 206.695312 138.4375 206.695312 138.296875 L 206.695312 135.507812 "/>
<path fill-rule="nonzero" fill="rgb(0%, 0%, 0%)" fill-opacity="1" d="M 220.195312 130.875 C 220.195312 130.84375 220.175781 130.773438 220.085938 130.773438 C 220.054688 130.773438 220.046875 130.78125 219.9375 130.894531 L 219.238281 131.660156 C 219.148438 131.519531 218.691406 130.773438 217.585938 130.773438 C 215.363281 130.773438 213.121094 132.976562 213.121094 135.289062 C 213.121094 136.933594 214.296875 138.019531 215.820312 138.019531 C 216.6875 138.019531 217.445312 137.617188 217.972656 137.160156 C 218.898438 136.34375 219.070312 135.4375 219.070312 135.40625 C 219.070312 135.308594 218.96875 135.308594 218.949219 135.308594 C 218.890625 135.308594 218.839844 135.328125 218.820312 135.40625 C 218.730469 135.695312 218.503906 136.402344 217.8125 136.980469 C 217.128906 137.539062 216.5 137.710938 215.980469 137.710938 C 215.082031 137.710938 214.027344 137.191406 214.027344 135.636719 C 214.027344 135.070312 214.234375 133.453125 215.234375 132.289062 C 215.839844 131.578125 216.777344 131.082031 217.664062 131.082031 C 218.679688 131.082031 219.269531 131.851562 219.269531 133.003906 C 219.269531 133.40625 219.238281 133.414062 219.238281 133.515625 C 219.238281 133.613281 219.347656 133.613281 219.386719 133.613281 C 219.515625 133.613281 219.515625 133.59375 219.566406 133.414062 L 220.195312 130.875 "/>
</svg>
