<?xml version="1.0" encoding="UTF-8" standalone="no"?>
<!-- Created with Inkscape (http://www.inkscape.org/) -->

<svg
   version="1.1"
   id="svg2"
   width="816"
   height="1056"
   viewBox="0 0 816 1056"
   xmlns="http://www.w3.org/2000/svg"
   xmlns:svg="http://www.w3.org/2000/svg">
  <defs
     id="defs6">
    <clipPath
       clipPathUnits="userSpaceOnUse"
       id="clipPath216">
      <path
         d="M 1530,2429.82 H 4590.38 V 5490.2 H 1530 Z"
         id="path214" />
    </clipPath>
    <clipPath
       clipPathUnits="userSpaceOnUse"
       id="clipPath222">
      <path
         d="M 1530,2429.82 H 4590.37 V 5490.19 H 1530 Z"
         id="path220" />
    </clipPath>
    <clipPath
       clipPathUnits="userSpaceOnUse"
       id="clipPath226">
      <path
         d="M 1530,2429.82 H 4590.38 V 5490.2 H 1530 Z"
         id="path224" />
    </clipPath>
  </defs>
  <g
     id="g8"
     transform="matrix(1.3333333,0,0,-1.3333333,0,1056)">
    <g
       id="g10"
       transform="scale(0.1)">
      <path
         d="m 1134.77,6785.58 0.14,-5.44 c 0,-11.91 -0.86,-28.09 -13.05,-34.12 -2.88,-1.43 -6.17,-2.29 -9.31,-2.29 -5.03,0 -8.47,1 -13.19,3.72 4,1.72 7.16,3.16 7.16,8.18 0,4.29 -3,8.03 -8.18,8.03 -4.87,0 -7.87,-3.74 -7.87,-8.47 0,-12.47 12.19,-16.91 21.92,-16.91 10.47,0 21.36,4.3 28.39,12.47 9.03,10.33 11.33,23.8 11.33,37.13 0,20.5 -5.45,46.31 -32.83,46.31 -16.78,0 -32.83,-10.19 -32.83,-31.11 0,-16.92 10.89,-30.83 30.25,-30.83 7.88,0 16.05,5.17 18.07,13.33 z m -0.16,19.08 v -6.6 c -0.7,-9.33 -5.16,-21.36 -16.63,-21.36 -4.15,0 -8.45,1.72 -10.89,5.16 -2.87,3.72 -3.01,8.59 -3.15,13.19 -0.14,3.15 -0.28,6.45 -0.28,9.75 v 1.72 c 0,8.89 0.42,22.79 16.18,22.79 13.35,0 14.77,-15.78 14.77,-24.65"
         style="fill:#000000;fill-opacity:1;fill-rule:nonzero;stroke:none"
         id="path12" />
      <path
         d="m 1322.02,6838.48 v -5.73 h 15.04 v -86.87 h -15.04 v -5.74 h 47.45 v 5.74 h -15.05 v 41.28 h 15.63 c 9.45,0 19.34,-4.88 19.34,-17.21 v -10.17 c 0,-10.03 3.44,-21.36 28.67,-21.36 6.74,0 14.49,3.88 15.49,13.91 v 0.72 c 0,1.43 -0.44,2.72 -2.58,2.72 -5.17,0 -2.16,-12.91 -12.05,-12.91 -12.19,0 -11.03,21.94 -11.47,25.67 -0.57,6.88 -3.15,13.19 -10.17,17.35 -2.15,1.28 -4.59,2.57 -7.03,3 1.86,0.71 3.73,1.01 5.59,1.73 9.18,3.3 18.49,10.31 18.49,21.5 0,10.75 -8.02,18.34 -17.05,22.22 -9.47,3.86 -19.78,4.15 -29.97,4.15 z m 32.4,-46.87 v 41.14 h 14.61 c 7.75,0 18.36,-0.44 23.08,-7.17 2.87,-3.88 3.16,-9.31 3.16,-13.91 0,-6.29 -1.14,-12.47 -7.18,-16.34 -5.71,-3.44 -12.75,-3.72 -19.2,-3.72 h -14.47"
         style="fill:#000000;fill-opacity:1;fill-rule:nonzero;stroke:none"
         id="path14" />
      <path
         d="m 1454.64,6772.25 h 44.16 c 1.86,0 2.43,1 2.43,2.73 0,15.47 -7.59,30.24 -29.39,30.24 -7.73,0 -15.62,-2.14 -21.78,-6.88 -7.89,-6.01 -11.76,-15.9 -11.76,-25.79 0,-20.5 15.62,-33.27 35.4,-33.27 10.75,0 22.66,4.45 27.1,16.06 0.14,0.57 0.43,1 0.43,1.58 0,1.28 -1.29,2 -2.87,2 -2.72,0 -3.44,-3.73 -4.58,-5.73 -3.73,-5.88 -11.05,-9.03 -17.92,-9.03 -7.45,0 -14.77,3.43 -18.34,10.32 -2.74,5.44 -2.88,11.75 -2.88,17.77 z m 0,3.88 c 0,6.31 0.72,13.18 4.59,18.34 3,3.87 7.88,6.17 12.61,6.17 13.05,0 16.35,-13.76 16.35,-24.51 h -33.55"
         style="fill:#000000;fill-opacity:1;fill-rule:nonzero;stroke:none"
         id="path16" />
      <path
         d="m 1521.77,6803.8 h -10.47 v -5.74 h 10.47 v -52.18 h -10.04 v -5.74 h 36.99 v 5.74 h -12.47 v 52.18 h 16.05 v 5.74 h -16.63 v 12.61 c 0,6.45 0.72,19.64 13.19,19.64 1.16,0 2.3,-0.14 3.58,-0.3 -2.42,-1.72 -3.72,-4 -3.72,-7.02 0,-4.59 3.58,-7.89 8.03,-7.89 4.3,0 7.88,3.46 7.88,8.04 0,7.75 -7.74,11.6 -14.61,11.6 -9.91,0 -22.94,-3.43 -26.82,-13.9 -1.43,-3.44 -1.43,-7.02 -1.43,-10.75 v -12.03"
         style="fill:#000000;fill-opacity:1;fill-rule:nonzero;stroke:none"
         id="path18" />
      <path
         d="m 1574.64,6772.25 h 44.16 c 1.86,0 2.43,1 2.43,2.73 0,15.47 -7.59,30.24 -29.39,30.24 -7.73,0 -15.62,-2.14 -21.78,-6.88 -7.89,-6.01 -11.76,-15.9 -11.76,-25.79 0,-20.5 15.62,-33.27 35.4,-33.27 10.75,0 22.66,4.45 27.1,16.06 0.14,0.57 0.43,1 0.43,1.58 0,1.28 -1.29,2 -2.87,2 -2.72,0 -3.44,-3.73 -4.58,-5.73 -3.73,-5.88 -11.05,-9.03 -17.92,-9.03 -7.45,0 -14.77,3.43 -18.34,10.32 -2.74,5.44 -2.88,11.75 -2.88,17.77 z m 0,3.88 c 0,6.31 0.72,13.18 4.59,18.34 3,3.87 7.88,6.17 12.61,6.17 13.05,0 16.35,-13.76 16.35,-24.51 h -33.55"
         style="fill:#000000;fill-opacity:1;fill-rule:nonzero;stroke:none"
         id="path20" />
      <path
         d="m 1630.59,6803.5 v -5.73 h 2.86 c 3.74,0 7.18,-0.43 7.18,-4.88 v -47.01 h -10.04 v -5.74 h 36.99 v 5.74 h -12.49 v 20.64 c 0,12.76 0.44,33.68 17.5,33.68 -1.87,-1.86 -3.01,-3.72 -3.01,-6.29 0,-5.18 3.73,-8.18 8.03,-8.18 4.73,0 7.87,3.72 7.87,7.88 0,7.17 -7.45,11.05 -13.75,11.05 -8.89,0 -16.34,-8.18 -17.64,-16.78 l -0.14,16.78 -15.48,-0.72 -7.88,-0.44"
         style="fill:#000000;fill-opacity:1;fill-rule:nonzero;stroke:none"
         id="path22" />
      <path
         d="m 1710.64,6772.25 h 44.16 c 1.86,0 2.43,1 2.43,2.73 0,15.47 -7.59,30.24 -29.39,30.24 -7.73,0 -15.62,-2.14 -21.78,-6.88 -7.89,-6.01 -11.76,-15.9 -11.76,-25.79 0,-20.5 15.62,-33.27 35.4,-33.27 10.75,0 22.66,4.45 27.1,16.06 0.14,0.57 0.43,1 0.43,1.58 0,1.28 -1.29,2 -2.87,2 -2.72,0 -3.44,-3.73 -4.58,-5.73 -3.73,-5.88 -11.05,-9.03 -17.92,-9.03 -7.45,0 -14.77,3.43 -18.34,10.32 -2.74,5.44 -2.88,11.75 -2.88,17.77 z m 0,3.88 c 0,6.31 0.72,13.18 4.59,18.34 3,3.87 7.88,6.17 12.61,6.17 13.05,0 16.35,-13.76 16.35,-24.51 h -33.55"
         style="fill:#000000;fill-opacity:1;fill-rule:nonzero;stroke:none"
         id="path24" />
      <path
         d="m 1766.45,6803.5 v -5.73 h 2.86 c 3.74,0 7.17,-0.43 7.17,-4.88 v -47.01 h -10.03 v -5.74 h 35.11 v 5.74 h -10.03 v 29.1 c 0,11.61 6.02,25.22 19.92,25.22 8.32,0 8.75,-9.31 8.75,-17.34 v -36.98 h -10.03 v -5.74 h 35.13 v 5.74 h -10.05 v 37.26 c 0,4.88 -0.28,9.75 -3,14.06 -3.87,6.3 -11.77,7.46 -18.5,7.46 -10.31,0 -20.36,-6.6 -23.22,-16.49 l -0.14,16.49 h -15.92 l -8.02,-1.16"
         style="fill:#000000;fill-opacity:1;fill-rule:nonzero;stroke:none"
         id="path26" />
      <path
         d="m 1900.47,6799.06 c -2.3,-1.72 -3.74,-3.73 -3.74,-6.73 0,-4.02 2.88,-8.17 7.6,-8.17 h 0.86 c 5.01,0 7.61,4.15 7.61,8.01 0,12.77 -18.36,12.91 -23.66,12.91 h -0.3 c -8.31,0 -16.76,-2 -23.36,-7.31 -7.45,-6.16 -11.32,-15.91 -11.32,-25.66 0,-19.78 14.62,-32.83 34.12,-32.83 10.03,0 20.5,4.3 24.94,13.91 0.44,1 1.3,2.44 1.3,3.58 0,1.29 -1.16,1.57 -2.16,1.57 h -1 c -2.72,0 -2.44,-2.14 -3.44,-3.86 -3.15,-6.89 -9.61,-10.32 -16.48,-10.32 -14.21,0 -20.8,11.61 -20.8,27.81 0,11.47 1.44,28.23 19.36,28.23 3.58,0 7.17,-0.56 10.47,-1.14"
         style="fill:#000000;fill-opacity:1;fill-rule:nonzero;stroke:none"
         id="path28" />
      <path
         d="m 1939.64,6772.25 h 44.16 c 1.86,0 2.43,1 2.43,2.73 0,15.47 -7.59,30.24 -29.39,30.24 -7.73,0 -15.62,-2.14 -21.78,-6.88 -7.89,-6.01 -11.76,-15.9 -11.76,-25.79 0,-20.5 15.62,-33.27 35.4,-33.27 10.75,0 22.66,4.45 27.1,16.06 0.14,0.57 0.43,1 0.43,1.58 0,1.28 -1.29,2 -2.87,2 -2.72,0 -3.44,-3.73 -4.58,-5.73 -3.73,-5.88 -11.05,-9.03 -17.92,-9.03 -7.45,0 -14.77,3.43 -18.34,10.32 -2.74,5.44 -2.88,11.75 -2.88,17.77 z m 0,3.88 c 0,6.31 0.72,13.18 4.59,18.34 3,3.87 7.88,6.17 12.61,6.17 13.05,0 16.35,-13.76 16.35,-24.51 h -33.55"
         style="fill:#000000;fill-opacity:1;fill-rule:nonzero;stroke:none"
         id="path30" />
      <path
         d="m 1090.36,6596.83 v -99.64 h 15.05 v 2.19 h -8.36 v 95.26 h 8.36 v 2.19 h -15.05"
         style="fill:#000000;fill-opacity:1;fill-rule:nonzero;stroke:none"
         id="path32" />
      <path
         d="M 1116.97,6582.09 V 6579 c 4.28,0 9.06,0.5 12.95,2.59 v -52.01 c 0,-3.89 -3.78,-4.49 -7.67,-4.49 -1.69,0 -3.39,0.1 -4.78,0.1 v -3.1 h 32.39 v 3.1 c -1.7,0 -3.39,-0.1 -4.98,-0.1 -3.99,0 -7.49,0.6 -7.49,4.38 v 57.41 c 0,0.89 -0.3,1.59 -1.39,1.59 -1.39,0 -3.09,-1.89 -4.19,-2.69 -4.37,-2.89 -9.76,-3.69 -14.84,-3.69"
         style="fill:#000000;fill-opacity:1;fill-rule:nonzero;stroke:none"
         id="path34" />
      <path
         d="m 1159.19,6596.83 v -2.19 h 8.37 v -95.26 h -8.37 v -2.19 h 15.04 v 99.64 h -15.04"
         style="fill:#000000;fill-opacity:1;fill-rule:nonzero;stroke:none"
         id="path36" />
      <path
         d="m 1221.28,6590.16 v -3.1 h 1.5 c 3.69,0 6.28,-0.39 6.28,-5.17 v -50.33 c 0,-0.68 0.1,-1.39 0.1,-2.18 0,-3.79 -2.69,-4.19 -5.47,-4.19 h -2.41 v -3.1 h 22.24 v 3.1 h -2.5 c -2.89,0 -5.29,0.4 -5.29,4.28 v 61.78 l -14.45,-1.09"
         style="fill:#ff0000;fill-opacity:1;fill-rule:nonzero;stroke:none"
         id="path38" />
      <path
         d="m 1260.84,6583.38 c 0,-6.88 -2.89,-19.33 -13.04,-19.33 v -2.19 h 8.56 v -25.7 c 0,-3.3 0.2,-6.58 1.8,-9.47 2.18,-3.99 6.87,-5.69 11.26,-5.69 8.17,0 9.77,9.17 9.77,15.45 v 3.69 h -2.5 c 0,-1.5 0.11,-3 0.11,-4.59 0,-4.38 -1,-12.05 -6.88,-12.05 -5.69,0 -6.58,6.88 -6.58,11.36 v 27 h 14.14 v 3.09 h -14.14 v 18.43 h -2.5"
         style="fill:#ff0000;fill-opacity:1;fill-rule:nonzero;stroke:none"
         id="path40" />
      <path
         d="m 1288.19,6590.16 v -3.1 h 1.5 c 3.69,0 6.28,-0.39 6.28,-5.17 v -50.33 c 0,-0.68 0.09,-1.39 0.09,-2.18 0,-3.79 -2.68,-4.19 -5.48,-4.19 h -2.39 v -3.1 h 22.51 v 3.1 h -2.57 c -2.8,0 -5.19,0.4 -5.19,4.09 v 18.24 c 0,7.17 3.69,16.34 13.54,16.34 6.38,0 6.99,-6.89 6.99,-11.17 v -23.81 c 0,-3.4 -2.89,-3.69 -5.99,-3.69 h -1.79 v -3.1 h 22.53 v 3.1 h -2.5 c -2.69,0 -5.28,0.4 -5.28,3.78 v 21.83 c 0,3.29 -0.1,6.58 -1.6,9.56 -2.39,4.39 -7.37,5.69 -11.95,5.69 -5.78,0 -12.26,-3.89 -14.16,-9.47 l -0.09,34.67 -14.45,-1.09"
         style="fill:#ff0000;fill-opacity:1;fill-rule:nonzero;stroke:none"
         id="path42" />
      <path
         d="m 1363.42,6566.64 c -12.56,-1.3 -20.62,-11.86 -20.62,-23.42 0,-11.25 8.86,-22.22 22.11,-22.22 11.97,0 22.03,9.77 22.03,22.33 0,11.86 -8.97,23.4 -22.22,23.4 -0.41,0 -0.91,-0.09 -1.3,-0.09 z m -12.26,-25.7 v 4.37 c 0,7.58 2.39,19.14 13.65,19.14 8.08,0 12.66,-6.78 13.55,-14.36 0.2,-2.18 0.2,-4.28 0.2,-6.46 0,-6.49 -0.7,-14.55 -7.08,-18.24 -1.98,-1.3 -4.18,-1.89 -6.46,-1.89 -7.29,0 -12.36,5.67 -13.46,13.45 -0.2,1.3 -0.2,2.69 -0.4,3.99"
         style="fill:#ff0000;fill-opacity:1;fill-rule:nonzero;stroke:none"
         id="path44" />
      <path
         d="m 1416.42,6566.64 c -12.56,-1.3 -20.62,-11.86 -20.62,-23.42 0,-11.25 8.86,-22.22 22.11,-22.22 11.97,0 22.03,9.77 22.03,22.33 0,11.86 -8.97,23.4 -22.22,23.4 -0.41,0 -0.91,-0.09 -1.3,-0.09 z m -12.26,-25.7 v 4.37 c 0,7.58 2.39,19.14 13.65,19.14 8.08,0 12.66,-6.78 13.55,-14.36 0.2,-2.18 0.2,-4.28 0.2,-6.46 0,-6.49 -0.7,-14.55 -7.08,-18.24 -1.98,-1.3 -4.18,-1.89 -6.46,-1.89 -7.29,0 -12.36,5.67 -13.46,13.45 -0.2,1.3 -0.2,2.69 -0.4,3.99"
         style="fill:#ff0000;fill-opacity:1;fill-rule:nonzero;stroke:none"
         id="path46" />
      <path
         d="m 1444.69,6590.16 v -3.1 h 1.7 c 3.19,0 6.08,-0.39 6.08,-5.17 v -50.33 c 0,-0.68 0.09,-1.39 0.09,-2.18 0,-3.79 -2.68,-4.19 -5.48,-4.19 h -2.39 v -3.1 h 21.92 v 3.1 h -2.28 c -3,0 -5.49,0.4 -5.49,4.19 v 9.26 c 0,2.09 3.99,4.89 6.38,6.67 0.89,-1.68 2.19,-3.18 3.28,-4.78 2.39,-3.28 4.8,-6.47 6.98,-9.76 0.6,-0.89 1.4,-2.19 1.4,-3.39 0,-1.79 -1.99,-2.19 -3.49,-2.19 v -3.1 h 19.53 v 3.1 c -1.7,0 -3.59,0 -5.19,0.79 -2.28,1.3 -3.87,3.69 -5.28,5.79 -2.48,3.48 -4.98,7.07 -7.56,10.56 l -3.59,5.08 c -0.41,0.5 -1.1,1.4 -1.1,1.79 v 0.21 c 0,0.68 2.99,2.89 4.38,3.98 4.59,3.99 9.76,8.47 16.15,8.47 v 3.09 h -18.14 v -3.09 c 1.5,0 2.79,-1.09 2.79,-2.48 0,-3 -4.68,-5.99 -7.36,-8.18 -3,-2.59 -5.89,-5.18 -8.88,-7.67 v 47.72 l -14.45,-1.09"
         style="fill:#ff0000;fill-opacity:1;fill-rule:nonzero;stroke:none"
         id="path48" />
      <path
         d="m 1512.53,6566.64 c -3.69,-0.39 -7.56,-1.09 -10.45,-3.59 -2.39,-2.08 -3.8,-5.47 -3.8,-8.66 0,-17.05 27.7,-7.37 27.7,-22.33 0,-6.08 -5.46,-8.86 -10.95,-8.86 -7.58,0 -12.65,5.38 -14.05,13.94 -0.2,0.91 -0.29,1.8 -1.5,1.8 -0.79,0 -1.2,-0.6 -1.2,-1.3 v -15.73 c 0.11,-0.5 0.41,-0.8 0.91,-0.91 h 0.2 c 1.59,0 3.19,3.69 4.38,3.98 h 0.11 c 0.79,0 3.48,-2.48 5.57,-3.18 1.69,-0.6 3.49,-0.8 5.28,-0.8 8.27,0 16.15,4.39 16.15,13.56 0,6.57 -4.79,11.96 -11.36,13.64 -6.19,1.71 -16.35,1.71 -16.35,8.97 0,6.08 6.67,7.58 11.06,7.58 4.88,0 11.66,-2.69 11.66,-11.27 0,-0.89 0.09,-1.68 1.2,-1.68 0.99,0 1.39,0.79 1.39,1.79 0,0.5 -0.1,0.99 -0.1,1.39 v 10.27 c 0,0.59 -0.3,1.39 -1.1,1.39 -1.59,0 -2.59,-2.48 -3.69,-2.48 h -0.09 c -0.8,0 -2.39,1.29 -3.59,1.68 -1.78,0.6 -3.78,0.89 -5.68,0.89 -0.59,0 -1.09,-0.09 -1.7,-0.09"
         style="fill:#ff0000;fill-opacity:1;fill-rule:nonzero;stroke:none"
         id="path50" />
      <path
         d="m 1535.09,6546.41 v -5.88 h 26.52 v 5.88 h -26.52"
         style="fill:#ff0000;fill-opacity:1;fill-rule:nonzero;stroke:none"
         id="path52" />
      <path
         d="m 1602.77,6560.56 c -2.58,-0.2 -4.68,-1.79 -4.68,-4.58 0,-2.68 1.89,-4.59 4.58,-4.59 2.99,0 4.58,2.2 4.58,4.99 v 0.59 c -0.98,7.28 -9.45,9.67 -15.23,9.67 -12.16,0 -21.74,-10.66 -21.74,-23.01 0,-11.27 8.78,-22.63 21.63,-22.63 6.57,0 13.06,3.59 15.75,10.56 0.2,0.6 0.7,1.5 0.7,2.21 0,0.68 -0.5,1.18 -1.2,1.18 -1.5,0 -2.39,-3.78 -3.1,-5.07 -2.39,-3.9 -6.47,-6.29 -10.95,-6.38 -10.67,0 -13.95,10.66 -14.45,18.53 v 1.19 c 0,7.98 1.89,19.94 12.86,20.94 h 0.79 c 3.69,0 7.58,-1.11 10.46,-3.6"
         style="fill:#ff0000;fill-opacity:1;fill-rule:nonzero;stroke:none"
         id="path54" />
      <path
         d="m 1635.42,6566.64 c -12.56,-1.3 -20.62,-11.86 -20.62,-23.42 0,-11.25 8.86,-22.22 22.11,-22.22 11.97,0 22.03,9.77 22.03,22.33 0,11.86 -8.97,23.4 -22.22,23.4 -0.41,0 -0.91,-0.09 -1.3,-0.09 z m -12.26,-25.7 v 4.37 c 0,7.58 2.39,19.14 13.65,19.14 8.08,0 12.66,-6.78 13.55,-14.36 0.2,-2.18 0.2,-4.28 0.2,-6.46 0,-6.49 -0.7,-14.55 -7.08,-18.24 -1.98,-1.3 -4.18,-1.89 -6.46,-1.89 -7.29,0 -12.36,5.67 -13.46,13.45 -0.2,1.3 -0.2,2.69 -0.4,3.99"
         style="fill:#ff0000;fill-opacity:1;fill-rule:nonzero;stroke:none"
         id="path56" />
      <path
         d="m 1694.3,6590.16 v -3.1 h 1.59 c 3.49,0 6.17,-0.39 6.17,-6.17 l -0.09,-20.92 c -2.39,3.98 -8.08,6.08 -12.66,6.08 -12.26,0 -22.03,-10.57 -22.03,-22.63 0,-10.65 8.17,-22.42 21.33,-22.42 5.19,0 9.87,2.5 13.16,6.48 V 6521 l 14.75,1.09 v 3.1 h -1.71 c -3.08,0 -6.08,0.29 -6.08,4.98 v 61.08 z m -18.64,-49.13 v 1.5 c 0,7.38 0.9,14.85 7.78,19.42 1.98,1.21 4.28,1.91 6.58,1.91 4.87,0 11.84,-4 11.84,-10.27 0,-1.29 -0.09,-2.59 -0.09,-3.89 v -16.54 c 0,-1.3 -0.5,-2.19 -1.19,-3.19 -2.6,-3.89 -6.89,-6.77 -11.56,-6.77 -7.29,0 -11.86,6.68 -12.96,13.55 -0.2,1.39 -0.2,2.89 -0.4,4.28"
         style="fill:#ff0000;fill-opacity:1;fill-rule:nonzero;stroke:none"
         id="path58" />
      <path
         d="m 1731.16,6545.13 h 28.7 c 1.09,0 1.59,0.68 1.59,1.78 0,10.56 -6.48,19.73 -17.64,19.73 -12.25,0 -21.01,-10.86 -21.01,-22.72 0,-9.17 5.08,-17.34 13.84,-21.33 2.3,-1 4.99,-1.59 7.47,-1.59 h 0.3 c 7.68,0 14.06,4.28 16.75,11.97 0.09,0.3 0.09,0.69 0.09,0.98 0,0.71 -0.39,1.21 -1.09,1.21 -1.5,0 -2.1,-3.3 -2.69,-4.39 -2.5,-4.38 -7.28,-7.27 -12.45,-7.27 -3.69,0 -6.88,2.09 -9.58,4.78 -3.99,4.58 -4.28,11.06 -4.28,16.85 z m 0.11,2.07 c 0,7.69 4.07,17.25 12.25,17.25 h 0.5 c 9.76,-0.9 9.67,-11.26 10.65,-17.25 h -23.4"
         style="fill:#ff0000;fill-opacity:1;fill-rule:nonzero;stroke:none"
         id="path60" />
      <path
         d="m 1777.05,6532.56 c -2.49,-0.29 -4.49,-2.59 -4.49,-5.08 0,-2.5 2,-5.39 5.1,-5.39 2.68,0 5.47,2.1 5.47,5.19 0,2.6 -1.99,5.38 -5.18,5.38 -0.29,0 -0.59,-0.1 -0.9,-0.1"
         style="fill:#ff0000;fill-opacity:1;fill-rule:nonzero;stroke:none"
         id="path62" />
      <path
         d="m 1794.69,6564.95 v -3.09 h 1.89 c 3,0 5.89,-0.3 5.89,-4.28 v -47.74 c 0,-3.59 -2.59,-3.98 -5.49,-3.98 h -2.29 v -3.09 h 22.51 v 3.09 h -2.39 c -2.98,0 -5.37,0.39 -5.37,3.98 l 0.09,17.24 c 2.3,-4.08 7.88,-6.08 12.16,-6.08 12.36,0 22.23,10.56 22.23,22.63 0,11.95 -9.26,22.42 -20.94,22.42 -5.46,0 -10.25,-2.39 -13.84,-6.49 v 6.49 z m 40.76,-23.12 c -0.5,-7.27 -4.39,-17.74 -13.45,-18.63 h -0.61 c -4.28,0 -8.17,2.39 -10.56,5.97 -0.8,1.1 -1.39,2.1 -1.39,3.49 v 16.75 c 0,1.29 -0.1,2.59 -0.1,3.89 0,5.28 6.77,10.25 12.66,10.25 10.06,0 13.55,-13.05 13.55,-20.13 0,-0.5 0,-1.09 -0.1,-1.59"
         style="fill:#ff0000;fill-opacity:1;fill-rule:nonzero;stroke:none"
         id="path64" />
      <path
         d="m 1880.3,6590.16 v -3.1 h 1.59 c 3.49,0 6.17,-0.39 6.17,-6.17 l -0.09,-20.92 c -2.39,3.98 -8.08,6.08 -12.66,6.08 -12.26,0 -22.03,-10.57 -22.03,-22.63 0,-10.65 8.17,-22.42 21.33,-22.42 5.19,0 9.87,2.5 13.16,6.48 V 6521 l 14.75,1.09 v 3.1 h -1.71 c -3.08,0 -6.08,0.29 -6.08,4.98 v 61.08 z m -18.64,-49.13 v 1.5 c 0,7.38 0.9,14.85 7.78,19.42 1.98,1.21 4.28,1.91 6.58,1.91 4.87,0 11.84,-4 11.84,-10.27 0,-1.29 -0.09,-2.59 -0.09,-3.89 v -16.54 c 0,-1.3 -0.5,-2.19 -1.19,-3.19 -2.6,-3.89 -6.89,-6.77 -11.56,-6.77 -7.29,0 -11.86,6.68 -12.96,13.55 -0.2,1.39 -0.2,2.89 -0.4,4.28"
         style="fill:#ff0000;fill-opacity:1;fill-rule:nonzero;stroke:none"
         id="path66" />
      <path
         d="m 1916.06,6564.95 h -7.78 v -3.09 h 7.78 v -32.98 c 0,-3.4 -2.89,-3.69 -5.87,-3.69 h -1.8 v -3.1 h 24.02 v 3.1 h -3.19 c -2.2,0 -4.49,0.09 -5.69,1.2 -0.8,0.89 -0.8,2.19 -0.8,3.38 v 32.09 h 11.36 v 3.09 h -11.65 V 6578 c 0,5.48 3.78,12.16 9.17,12.16 1,0 2.39,-0.21 3.19,-0.8 -1.89,-0.5 -2.99,-2.3 -2.99,-4.19 0,-2.59 1.99,-4.28 4.38,-4.28 2.59,0 4.48,2 4.48,4.19 0,4.78 -4.98,7.26 -9.06,7.26 -9.08,0 -15.55,-7.06 -15.55,-16.73 v -10.66"
         style="fill:#ff0000;fill-opacity:1;fill-rule:nonzero;stroke:none"
         id="path68" />
      <path
         d="m 1090.36,6477.83 v -99.64 h 15.05 v 2.19 h -8.36 v 95.26 h 8.36 v 2.19 h -15.05"
         style="fill:#000000;fill-opacity:1;fill-rule:nonzero;stroke:none"
         id="path70" />
      <path
         d="m 1116.88,6456.22 c 2.39,5.08 6.07,10.16 13.25,10.16 9.35,0 13.54,-8.57 13.54,-16.35 0,-9.17 -6.17,-16.73 -11.86,-23.31 -5.67,-6.67 -11.75,-13.06 -17.53,-19.64 -0.9,-0.89 -1.3,-1.49 -1.3,-2.78 v -1.21 h 36.97 l 2.78,17.44 h -2.48 c -0.8,-4.58 -0.3,-9.56 -5.37,-9.56 h -3.99 c -2.89,-0.09 -5.78,-0.2 -8.67,-0.2 -3.89,0 -7.67,0.11 -11.47,0.11 l 6.88,6.57 c 2.79,2.69 5.48,5.38 8.37,7.88 7.38,6.56 16.73,13.75 16.73,24.81 0,11.25 -9.56,19.42 -20.81,19.42 -9.58,0 -18.94,-7.26 -18.94,-17.93 0,-2.49 1,-5.68 5.18,-5.68 3,0 5.28,2.1 5.28,5.08 0,2.69 -1.99,5.28 -5.08,5.28 -0.5,0 -1,-0.09 -1.48,-0.09"
         style="fill:#000000;fill-opacity:1;fill-rule:nonzero;stroke:none"
         id="path72" />
      <path
         d="m 1159.19,6477.83 v -2.19 h 8.37 v -95.26 h -8.37 v -2.19 h 15.04 v 99.64 h -15.04"
         style="fill:#000000;fill-opacity:1;fill-rule:nonzero;stroke:none"
         id="path74" />
      <path
         d="m 1221.28,6471.16 v -3.1 h 1.5 c 3.69,0 6.28,-0.39 6.28,-5.17 v -50.33 c 0,-0.68 0.1,-1.39 0.1,-2.18 0,-3.79 -2.69,-4.19 -5.47,-4.19 h -2.41 v -3.1 h 22.24 v 3.1 h -2.5 c -2.89,0 -5.29,0.4 -5.29,4.28 v 61.78 l -14.45,-1.09"
         style="fill:#ff0000;fill-opacity:1;fill-rule:nonzero;stroke:none"
         id="path76" />
      <path
         d="m 1260.84,6464.38 c 0,-6.88 -2.89,-19.33 -13.04,-19.33 v -2.19 h 8.56 v -25.7 c 0,-3.3 0.2,-6.58 1.8,-9.47 2.18,-3.99 6.87,-5.69 11.26,-5.69 8.17,0 9.77,9.17 9.77,15.45 v 3.69 h -2.5 c 0,-1.5 0.11,-3 0.11,-4.59 0,-4.38 -1,-12.05 -6.88,-12.05 -5.69,0 -6.58,6.88 -6.58,11.36 v 27 h 14.14 v 3.09 h -14.14 v 18.43 h -2.5"
         style="fill:#ff0000;fill-opacity:1;fill-rule:nonzero;stroke:none"
         id="path78" />
      <path
         d="m 1295.47,6445.95 h -7.78 v -3.09 h 7.78 v -32.98 c 0,-3.4 -2.89,-3.69 -5.99,-3.69 h -1.79 v -3.1 h 22.22 v 3.1 h -2.39 c -2.79,0 -5.38,0.29 -5.38,3.69 v 32.98 h 16.05 c 2.78,0 4.98,-0.5 4.98,-5.88 0,-1 -0.11,-2 -0.11,-3 v -23.6 c 0,-4.1 -2.78,-4.19 -7.17,-4.19 h -0.59 v -3.1 h 22.22 v 3.1 h -2.5 c -2.79,0 -5.29,0.4 -5.29,3.98 v 36.97 l -15.04,-1.19 h -12.85 v 10.16 c 0,2.39 0.1,4.59 1.1,6.78 2.19,5.08 8.08,8.27 13.65,8.27 3.19,0 6.27,-1 8.57,-3.28 -2.6,0 -4.78,-1.8 -4.78,-4.49 0,-2.39 1.89,-4.69 4.57,-4.69 2.3,0 4.39,1.6 4.6,4.08 v 0.61 c 0,6.88 -7.17,9.95 -13.07,9.95 -7.46,0 -16.43,-3.18 -19.92,-10.45 -1,-2.09 -1.09,-4.28 -1.09,-6.58 v -10.36"
         style="fill:#ff0000;fill-opacity:1;fill-rule:nonzero;stroke:none"
         id="path80" />
      <path
         d="m 1343.28,6471.16 v -3.1 h 1.5 c 3.69,0 6.28,-0.39 6.28,-5.17 v -50.33 c 0,-0.68 0.1,-1.39 0.1,-2.18 0,-3.79 -2.69,-4.19 -5.47,-4.19 h -2.41 v -3.1 h 22.24 v 3.1 h -2.5 c -2.89,0 -5.29,0.4 -5.29,4.28 v 61.78 l -14.45,-1.09"
         style="fill:#ff0000;fill-opacity:1;fill-rule:nonzero;stroke:none"
         id="path82" />
      <path
         d="m 1379.16,6426.13 h 28.7 c 1.09,0 1.59,0.68 1.59,1.78 0,10.56 -6.48,19.73 -17.64,19.73 -12.25,0 -21.01,-10.86 -21.01,-22.72 0,-9.17 5.08,-17.34 13.84,-21.33 2.3,-1 4.99,-1.59 7.47,-1.59 h 0.3 c 7.68,0 14.06,4.28 16.75,11.97 0.09,0.3 0.09,0.69 0.09,0.98 0,0.71 -0.39,1.21 -1.09,1.21 -1.5,0 -2.1,-3.3 -2.69,-4.39 -2.5,-4.38 -7.28,-7.27 -12.45,-7.27 -3.69,0 -6.88,2.09 -9.58,4.78 -3.99,4.58 -4.28,11.06 -4.28,16.85 z m 0.11,2.07 c 0,7.69 4.07,17.25 12.25,17.25 h 0.5 c 9.76,-0.9 9.67,-11.26 10.65,-17.25 h -23.4"
         style="fill:#ff0000;fill-opacity:1;fill-rule:nonzero;stroke:none"
         id="path84" />
      <path
         d="m 1415.19,6471.16 v -3.1 h 1.5 c 3.69,0 6.28,-0.39 6.28,-5.17 v -50.33 c 0,-0.68 0.09,-1.39 0.09,-2.18 0,-3.79 -2.68,-4.19 -5.48,-4.19 h -2.39 v -3.1 h 22.51 v 3.1 h -2.57 c -2.8,0 -5.19,0.4 -5.19,4.09 v 18.24 c 0,7.17 3.69,16.34 13.54,16.34 6.38,0 6.99,-6.89 6.99,-11.17 v -23.81 c 0,-3.4 -2.89,-3.69 -5.99,-3.69 h -1.79 v -3.1 h 22.53 v 3.1 h -2.5 c -2.69,0 -5.28,0.4 -5.28,3.78 v 21.83 c 0,3.29 -0.1,6.58 -1.6,9.56 -2.39,4.39 -7.37,5.69 -11.95,5.69 -5.78,0 -12.26,-3.89 -14.16,-9.47 l -0.09,34.67 -14.45,-1.09"
         style="fill:#ff0000;fill-opacity:1;fill-rule:nonzero;stroke:none"
         id="path86" />
      <path
         d="m 1490.42,6447.64 c -12.56,-1.3 -20.62,-11.86 -20.62,-23.42 0,-11.25 8.86,-22.22 22.11,-22.22 11.97,0 22.03,9.77 22.03,22.33 0,11.86 -8.97,23.4 -22.22,23.4 -0.41,0 -0.91,-0.09 -1.3,-0.09 z m -12.26,-25.7 v 4.37 c 0,7.58 2.39,19.14 13.65,19.14 8.08,0 12.66,-6.78 13.55,-14.36 0.2,-2.18 0.2,-4.28 0.2,-6.46 0,-6.49 -0.7,-14.55 -7.08,-18.24 -1.98,-1.3 -4.18,-1.89 -6.46,-1.89 -7.29,0 -12.36,5.67 -13.46,13.45 -0.2,1.3 -0.2,2.69 -0.4,3.99"
         style="fill:#ff0000;fill-opacity:1;fill-rule:nonzero;stroke:none"
         id="path88" />
      <path
         d="m 1543.42,6447.64 c -12.56,-1.3 -20.62,-11.86 -20.62,-23.42 0,-11.25 8.86,-22.22 22.11,-22.22 11.97,0 22.03,9.77 22.03,22.33 0,11.86 -8.97,23.4 -22.22,23.4 -0.41,0 -0.91,-0.09 -1.3,-0.09 z m -12.26,-25.7 v 4.37 c 0,7.58 2.39,19.14 13.65,19.14 8.08,0 12.66,-6.78 13.55,-14.36 0.2,-2.18 0.2,-4.28 0.2,-6.46 0,-6.49 -0.7,-14.55 -7.08,-18.24 -1.98,-1.3 -4.18,-1.89 -6.46,-1.89 -7.29,0 -12.36,5.67 -13.46,13.45 -0.2,1.3 -0.2,2.69 -0.4,3.99"
         style="fill:#ff0000;fill-opacity:1;fill-rule:nonzero;stroke:none"
         id="path90" />
      <path
         d="m 1572.69,6471.16 v -3.1 h 1.7 c 3.19,0 6.08,-0.39 6.08,-5.17 v -50.33 c 0,-0.68 0.09,-1.39 0.09,-2.18 0,-3.79 -2.68,-4.19 -5.48,-4.19 h -2.39 v -3.1 h 21.92 v 3.1 h -2.28 c -3,0 -5.49,0.4 -5.49,4.19 v 9.26 c 0,2.09 3.99,4.89 6.38,6.67 0.89,-1.68 2.19,-3.18 3.28,-4.78 2.39,-3.28 4.8,-6.47 6.98,-9.76 0.6,-0.89 1.4,-2.19 1.4,-3.39 0,-1.79 -1.99,-2.19 -3.49,-2.19 v -3.1 h 19.53 v 3.1 c -1.7,0 -3.59,0 -5.19,0.79 -2.28,1.3 -3.87,3.69 -5.28,5.79 -2.48,3.48 -4.98,7.07 -7.56,10.56 l -3.59,5.08 c -0.41,0.5 -1.1,1.4 -1.1,1.79 v 0.21 c 0,0.68 2.99,2.89 4.38,3.98 4.59,3.99 9.76,8.47 16.15,8.47 v 3.09 h -18.14 v -3.09 c 1.5,0 2.79,-1.09 2.79,-2.48 0,-3 -4.68,-5.99 -7.36,-8.18 -3,-2.59 -5.89,-5.18 -8.88,-7.67 v 47.72 l -14.45,-1.09"
         style="fill:#ff0000;fill-opacity:1;fill-rule:nonzero;stroke:none"
         id="path92" />
      <path
         d="m 1635.05,6413.56 c -2.49,-0.29 -4.49,-2.59 -4.49,-5.08 0,-2.5 2,-5.39 5.1,-5.39 2.68,0 5.47,2.1 5.47,5.19 0,2.6 -1.99,5.38 -5.18,5.38 -0.29,0 -0.59,-0.1 -0.9,-0.1"
         style="fill:#ff0000;fill-opacity:1;fill-rule:nonzero;stroke:none"
         id="path94" />
      <path
         d="m 1652.69,6445.95 v -3.09 h 1.89 c 3,0 5.89,-0.3 5.89,-4.28 v -47.74 c 0,-3.59 -2.59,-3.98 -5.49,-3.98 h -2.29 v -3.09 h 22.51 v 3.09 h -2.39 c -2.98,0 -5.37,0.39 -5.37,3.98 l 0.09,17.24 c 2.3,-4.08 7.88,-6.08 12.16,-6.08 12.36,0 22.23,10.56 22.23,22.63 0,11.95 -9.26,22.42 -20.94,22.42 -5.46,0 -10.25,-2.39 -13.84,-6.49 v 6.49 z m 40.76,-23.12 c -0.5,-7.27 -4.39,-17.74 -13.45,-18.63 h -0.61 c -4.28,0 -8.17,2.39 -10.56,5.97 -0.8,1.1 -1.39,2.1 -1.39,3.49 v 16.75 c 0,1.29 -0.1,2.59 -0.1,3.89 0,5.28 6.77,10.25 12.66,10.25 10.06,0 13.55,-13.05 13.55,-20.13 0,-0.5 0,-1.09 -0.1,-1.59"
         style="fill:#ff0000;fill-opacity:1;fill-rule:nonzero;stroke:none"
         id="path96" />
      <path
         d="m 1738.3,6471.16 v -3.1 h 1.59 c 3.49,0 6.17,-0.39 6.17,-6.17 l -0.09,-20.92 c -2.39,3.98 -8.08,6.08 -12.66,6.08 -12.26,0 -22.03,-10.57 -22.03,-22.63 0,-10.65 8.17,-22.42 21.33,-22.42 5.19,0 9.87,2.5 13.16,6.48 V 6402 l 14.75,1.09 v 3.1 h -1.71 c -3.08,0 -6.08,0.29 -6.08,4.98 v 61.08 z m -18.64,-49.13 v 1.5 c 0,7.38 0.9,14.85 7.78,19.42 1.98,1.21 4.28,1.91 6.58,1.91 4.87,0 11.84,-4 11.84,-10.27 0,-1.29 -0.09,-2.59 -0.09,-3.89 v -16.54 c 0,-1.3 -0.5,-2.19 -1.19,-3.19 -2.6,-3.89 -6.89,-6.77 -11.56,-6.77 -7.29,0 -11.86,6.68 -12.96,13.55 -0.2,1.39 -0.2,2.89 -0.4,4.28"
         style="fill:#ff0000;fill-opacity:1;fill-rule:nonzero;stroke:none"
         id="path98" />
      <path
         d="m 1774.06,6445.95 h -7.78 v -3.09 h 7.78 v -32.98 c 0,-3.4 -2.89,-3.69 -5.87,-3.69 h -1.8 v -3.1 h 24.02 v 3.1 h -3.19 c -2.2,0 -4.49,0.09 -5.69,1.2 -0.8,0.89 -0.8,2.19 -0.8,3.38 v 32.09 h 11.36 v 3.09 h -11.65 V 6459 c 0,5.48 3.78,12.16 9.17,12.16 1,0 2.39,-0.21 3.19,-0.8 -1.89,-0.5 -2.99,-2.3 -2.99,-4.19 0,-2.59 1.99,-4.28 4.38,-4.28 2.59,0 4.48,2 4.48,4.19 0,4.78 -4.98,7.26 -9.06,7.26 -9.08,0 -15.55,-7.06 -15.55,-16.73 v -10.66"
         style="fill:#ff0000;fill-opacity:1;fill-rule:nonzero;stroke:none"
         id="path100" />
      <path
         d="m 1090.36,6357.83 v -99.64 h 15.05 v 2.19 h -8.36 v 95.26 h 8.36 v 2.19 h -15.05"
         style="fill:#000000;fill-opacity:1;fill-rule:nonzero;stroke:none"
         id="path102" />
      <path
         d="m 1118.86,6340.8 c 3.39,4.68 8.77,6.17 14.16,6.17 5.87,0 8.56,-5.97 8.56,-10.95 0,-6.29 -2.1,-14.46 -8.77,-16.44 -2.29,-0.61 -8.17,0.09 -8.17,-1.8 v -0.3 c 0.09,-0.7 0.8,-0.79 1.59,-0.79 h 1.21 c 1.09,0 2.28,0.09 3.48,0.09 9.77,0 12.36,-9.26 12.36,-16.44 v -1.5 c -0.11,-6.37 -2.89,-15.14 -11.47,-15.14 -5.48,0 -12.15,2.58 -15.04,7.68 0.29,0 0.59,-0.11 1,-0.11 3.18,0 5.48,2.5 5.48,5.57 0,2.8 -1.89,5.1 -4.69,5.49 h -0.59 c -3.99,0 -5.78,-2.78 -5.78,-5.88 0,-10.47 11.25,-15.54 20.03,-15.54 10.75,0 21.31,7.87 21.31,19.32 0,9.27 -7.86,16.35 -16.73,17.94 7.28,2.6 14.04,8.67 14.04,17.35 0,8.76 -9.06,13.95 -18.43,13.95 -7.68,0 -17.53,-4.19 -17.53,-13.66 0,-3.18 2.39,-5.08 5.07,-5.08 2.69,0 4.99,1.99 4.99,4.99 0,3.08 -2.19,5.08 -5.28,5.08 h -0.8"
         style="fill:#000000;fill-opacity:1;fill-rule:nonzero;stroke:none"
         id="path104" />
      <path
         d="m 1159.19,6357.83 v -2.19 h 8.37 v -95.26 h -8.37 v -2.19 h 15.04 v 99.64 h -15.04"
         style="fill:#000000;fill-opacity:1;fill-rule:nonzero;stroke:none"
         id="path106" />
      <path
         d="m 1221.28,6351.16 v -3.1 h 1.5 c 3.69,0 6.28,-0.39 6.28,-5.17 v -50.33 c 0,-0.68 0.1,-1.39 0.1,-2.18 0,-3.79 -2.69,-4.19 -5.47,-4.19 h -2.41 v -3.1 h 22.24 v 3.1 h -2.5 c -2.89,0 -5.29,0.4 -5.29,4.28 v 61.78 l -14.45,-1.09"
         style="fill:#ff0000;fill-opacity:1;fill-rule:nonzero;stroke:none"
         id="path108" />
      <path
         d="m 1260.84,6344.38 c 0,-6.88 -2.89,-19.33 -13.04,-19.33 v -2.19 h 8.56 v -25.7 c 0,-3.3 0.2,-6.58 1.8,-9.47 2.18,-3.99 6.87,-5.69 11.26,-5.69 8.17,0 9.77,9.17 9.77,15.45 v 3.69 h -2.5 c 0,-1.5 0.11,-3 0.11,-4.59 0,-4.38 -1,-12.05 -6.88,-12.05 -5.69,0 -6.58,6.88 -6.58,11.36 v 27 h 14.14 v 3.09 h -14.14 v 18.43 h -2.5"
         style="fill:#ff0000;fill-opacity:1;fill-rule:nonzero;stroke:none"
         id="path110" />
      <path
         d="m 1302.53,6327.64 c -3.69,-0.39 -7.56,-1.09 -10.45,-3.59 -2.39,-2.08 -3.8,-5.47 -3.8,-8.66 0,-17.05 27.7,-7.37 27.7,-22.33 0,-6.08 -5.46,-8.86 -10.95,-8.86 -7.58,0 -12.65,5.38 -14.05,13.94 -0.2,0.91 -0.29,1.8 -1.5,1.8 -0.79,0 -1.2,-0.6 -1.2,-1.3 v -15.73 c 0.11,-0.5 0.41,-0.8 0.91,-0.91 h 0.2 c 1.59,0 3.19,3.69 4.38,3.98 h 0.11 c 0.79,0 3.48,-2.48 5.57,-3.18 1.69,-0.6 3.49,-0.8 5.28,-0.8 8.27,0 16.15,4.39 16.15,13.56 0,6.57 -4.79,11.96 -11.36,13.64 -6.19,1.71 -16.35,1.71 -16.35,8.97 0,6.08 6.67,7.58 11.06,7.58 4.88,0 11.66,-2.69 11.66,-11.27 0,-0.89 0.09,-1.68 1.2,-1.68 0.99,0 1.39,0.79 1.39,1.79 0,0.5 -0.1,0.99 -0.1,1.39 v 10.27 c 0,0.59 -0.3,1.39 -1.1,1.39 -1.59,0 -2.59,-2.48 -3.69,-2.48 h -0.09 c -0.8,0 -2.39,1.29 -3.59,1.68 -1.78,0.6 -3.78,0.89 -5.68,0.89 -0.59,0 -1.09,-0.09 -1.7,-0.09"
         style="fill:#ff0000;fill-opacity:1;fill-rule:nonzero;stroke:none"
         id="path112" />
      <path
         d="m 1327.19,6351.16 v -3.1 h 1.5 c 3.69,0 6.28,-0.39 6.28,-5.17 v -50.33 c 0,-0.68 0.09,-1.39 0.09,-2.18 0,-3.79 -2.68,-4.19 -5.48,-4.19 h -2.39 v -3.1 h 22.51 v 3.1 h -2.57 c -2.8,0 -5.19,0.4 -5.19,4.09 v 18.24 c 0,7.17 3.69,16.34 13.54,16.34 6.38,0 6.99,-6.89 6.99,-11.17 v -23.81 c 0,-3.4 -2.89,-3.69 -5.99,-3.69 h -1.79 v -3.1 h 22.53 v 3.1 h -2.5 c -2.69,0 -5.28,0.4 -5.28,3.78 v 21.83 c 0,3.29 -0.1,6.58 -1.6,9.56 -2.39,4.39 -7.37,5.69 -11.95,5.69 -5.78,0 -12.26,-3.89 -14.16,-9.47 l -0.09,34.67 -14.45,-1.09"
         style="fill:#ff0000;fill-opacity:1;fill-rule:nonzero;stroke:none"
         id="path114" />
      <path
         d="m 1382.69,6325.95 v -3.09 h 1.89 c 2.89,0 5.48,-0.41 5.48,-4.98 v -27.6 c 0,-3.5 -1.79,-4.09 -7.78,-4.09 v -3.1 h 21.44 v 3.1 h -2 c -2.59,0 -4.99,0.29 -4.99,3.48 v 37.38 z m 8.37,23.71 c -2.5,-0.3 -4.48,-2.49 -4.48,-5.18 0,-2.89 2.48,-5.28 5.28,-5.28 2.69,0 5.28,2.19 5.28,5.28 0,2.9 -2.5,5.29 -5.28,5.29 -0.3,0 -0.5,-0.11 -0.8,-0.11"
         style="fill:#ff0000;fill-opacity:1;fill-rule:nonzero;stroke:none"
         id="path116" />
      <path
         d="m 1409.69,6325.95 v -3.09 h 1.89 c 3,0 5.89,-0.3 5.89,-4.28 v -47.74 c 0,-3.59 -2.59,-3.98 -5.49,-3.98 h -2.29 v -3.09 h 22.51 v 3.09 h -2.39 c -2.98,0 -5.37,0.39 -5.37,3.98 l 0.09,17.24 c 2.3,-4.08 7.88,-6.08 12.16,-6.08 12.36,0 22.23,10.56 22.23,22.63 0,11.95 -9.26,22.42 -20.94,22.42 -5.46,0 -10.25,-2.39 -13.84,-6.49 v 6.49 z m 40.76,-23.12 c -0.5,-7.27 -4.39,-17.74 -13.45,-18.63 h -0.61 c -4.28,0 -8.17,2.39 -10.56,5.97 -0.8,1.1 -1.39,2.1 -1.39,3.49 v 16.75 c 0,1.29 -0.1,2.59 -0.1,3.89 0,5.28 6.77,10.25 12.66,10.25 10.06,0 13.55,-13.05 13.55,-20.13 0,-0.5 0,-1.09 -0.1,-1.59"
         style="fill:#ff0000;fill-opacity:1;fill-rule:nonzero;stroke:none"
         id="path118" />
      <path
         d="m 1488.42,6327.64 c -12.56,-1.3 -20.62,-11.86 -20.62,-23.42 0,-11.25 8.86,-22.22 22.11,-22.22 11.97,0 22.03,9.77 22.03,22.33 0,11.86 -8.97,23.4 -22.22,23.4 -0.41,0 -0.91,-0.09 -1.3,-0.09 z m -12.26,-25.7 v 4.37 c 0,7.58 2.39,19.14 13.65,19.14 8.08,0 12.66,-6.78 13.55,-14.36 0.2,-2.18 0.2,-4.28 0.2,-6.46 0,-6.49 -0.7,-14.55 -7.08,-18.24 -1.98,-1.3 -4.18,-1.89 -6.46,-1.89 -7.29,0 -12.36,5.67 -13.46,13.45 -0.2,1.3 -0.2,2.69 -0.4,3.99"
         style="fill:#ff0000;fill-opacity:1;fill-rule:nonzero;stroke:none"
         id="path120" />
      <path
         d="m 1518.19,6325.95 v -3.09 h 1.39 c 2.8,0 5.69,-0.2 6.28,-3.19 0.11,-1.09 0.11,-2.09 0.11,-3.19 v -19.82 c 0,-3.3 0.09,-6.38 1.89,-9.27 2.69,-4.3 8.36,-5.48 13.05,-5.48 4.48,0 8.57,1.98 11.06,5.67 0.7,1 1.39,2 1.69,3.19 l 0.11,-8.77 14.45,1.09 v 3.1 h -1.5 c -3.3,0 -6.28,0.29 -6.28,4.78 v 36.08 l -14.75,-1.1 v -3.09 h 1.5 c 3.28,0 6.28,-0.3 6.28,-4.98 v -18.04 c 0,-7.37 -3.8,-15.54 -12.06,-15.54 -5.58,0 -8.47,1.39 -8.47,11.95 v 30.8 l -14.75,-1.1"
         style="fill:#ff0000;fill-opacity:1;fill-rule:nonzero;stroke:none"
         id="path122" />
      <path
         d="m 1584.84,6344.38 c 0,-6.88 -2.89,-19.33 -13.04,-19.33 v -2.19 h 8.56 v -25.7 c 0,-3.3 0.2,-6.58 1.8,-9.47 2.18,-3.99 6.87,-5.69 11.26,-5.69 8.17,0 9.77,9.17 9.77,15.45 v 3.69 h -2.5 c 0,-1.5 0.11,-3 0.11,-4.59 0,-4.38 -1,-12.05 -6.88,-12.05 -5.69,0 -6.58,6.88 -6.58,11.36 v 27 h 14.14 v 3.09 h -14.14 v 18.43 h -2.5"
         style="fill:#ff0000;fill-opacity:1;fill-rule:nonzero;stroke:none"
         id="path124" />
      <path
         d="m 1610.09,6307.41 v -5.88 h 26.52 v 5.88 h -26.52"
         style="fill:#ff0000;fill-opacity:1;fill-rule:nonzero;stroke:none"
         id="path126" />
      <path
         d="m 1672.3,6351.16 v -3.1 h 1.59 c 3.49,0 6.17,-0.39 6.17,-6.17 l -0.09,-20.92 c -2.39,3.98 -8.08,6.08 -12.66,6.08 -12.26,0 -22.03,-10.57 -22.03,-22.63 0,-10.65 8.17,-22.42 21.33,-22.42 5.19,0 9.87,2.5 13.16,6.48 V 6282 l 14.75,1.09 v 3.1 h -1.71 c -3.08,0 -6.08,0.29 -6.08,4.98 v 61.08 z m -18.64,-49.13 v 1.5 c 0,7.38 0.9,14.85 7.78,19.42 1.98,1.21 4.28,1.91 6.58,1.91 4.87,0 11.84,-4 11.84,-10.27 0,-1.29 -0.09,-2.59 -0.09,-3.89 v -16.54 c 0,-1.3 -0.5,-2.19 -1.19,-3.19 -2.6,-3.89 -6.89,-6.77 -11.56,-6.77 -7.29,0 -11.86,6.68 -12.96,13.55 -0.2,1.39 -0.2,2.89 -0.4,4.28"
         style="fill:#ff0000;fill-opacity:1;fill-rule:nonzero;stroke:none"
         id="path128" />
      <path
         d="m 1721.42,6327.64 c -12.56,-1.3 -20.62,-11.86 -20.62,-23.42 0,-11.25 8.86,-22.22 22.11,-22.22 11.97,0 22.03,9.77 22.03,22.33 0,11.86 -8.97,23.4 -22.22,23.4 -0.41,0 -0.91,-0.09 -1.3,-0.09 z m -12.26,-25.7 v 4.37 c 0,7.58 2.39,19.14 13.65,19.14 8.08,0 12.66,-6.78 13.55,-14.36 0.2,-2.18 0.2,-4.28 0.2,-6.46 0,-6.49 -0.7,-14.55 -7.08,-18.24 -1.98,-1.3 -4.18,-1.89 -6.46,-1.89 -7.29,0 -12.36,5.67 -13.46,13.45 -0.2,1.3 -0.2,2.69 -0.4,3.99"
         style="fill:#ff0000;fill-opacity:1;fill-rule:nonzero;stroke:none"
         id="path130" />
      <path
         d="m 1785.77,6321.56 c -2.58,-0.2 -4.68,-1.79 -4.68,-4.58 0,-2.68 1.89,-4.59 4.58,-4.59 2.99,0 4.58,2.2 4.58,4.99 v 0.59 c -0.98,7.28 -9.45,9.67 -15.23,9.67 -12.16,0 -21.74,-10.66 -21.74,-23.01 0,-11.27 8.78,-22.63 21.63,-22.63 6.57,0 13.06,3.59 15.75,10.56 0.2,0.6 0.7,1.5 0.7,2.21 0,0.68 -0.5,1.18 -1.2,1.18 -1.5,0 -2.39,-3.78 -3.1,-5.07 -2.39,-3.9 -6.47,-6.29 -10.95,-6.38 -10.67,0 -13.95,10.66 -14.45,18.53 v 1.19 c 0,7.98 1.89,19.94 12.86,20.94 h 0.79 c 3.69,0 7.58,-1.11 10.46,-3.6"
         style="fill:#ff0000;fill-opacity:1;fill-rule:nonzero;stroke:none"
         id="path132" />
      <path
         d="m 1807.05,6293.56 c -2.49,-0.29 -4.49,-2.59 -4.49,-5.08 0,-2.5 2,-5.39 5.1,-5.39 2.68,0 5.47,2.1 5.47,5.19 0,2.6 -1.99,5.38 -5.18,5.38 -0.29,0 -0.59,-0.1 -0.9,-0.1"
         style="fill:#ff0000;fill-opacity:1;fill-rule:nonzero;stroke:none"
         id="path134" />
      <path
         d="m 1824.69,6325.95 v -3.09 h 1.89 c 3,0 5.89,-0.3 5.89,-4.28 v -47.74 c 0,-3.59 -2.59,-3.98 -5.49,-3.98 h -2.29 v -3.09 h 22.51 v 3.09 h -2.39 c -2.98,0 -5.37,0.39 -5.37,3.98 l 0.09,17.24 c 2.3,-4.08 7.88,-6.08 12.16,-6.08 12.36,0 22.23,10.56 22.23,22.63 0,11.95 -9.26,22.42 -20.94,22.42 -5.46,0 -10.25,-2.39 -13.84,-6.49 v 6.49 z m 40.76,-23.12 c -0.5,-7.27 -4.39,-17.74 -13.45,-18.63 h -0.61 c -4.28,0 -8.17,2.39 -10.56,5.97 -0.8,1.1 -1.39,2.1 -1.39,3.49 v 16.75 c 0,1.29 -0.1,2.59 -0.1,3.89 0,5.28 6.77,10.25 12.66,10.25 10.06,0 13.55,-13.05 13.55,-20.13 0,-0.5 0,-1.09 -0.1,-1.59"
         style="fill:#ff0000;fill-opacity:1;fill-rule:nonzero;stroke:none"
         id="path136" />
      <path
         d="m 1910.3,6351.16 v -3.1 h 1.59 c 3.49,0 6.17,-0.39 6.17,-6.17 l -0.09,-20.92 c -2.39,3.98 -8.08,6.08 -12.66,6.08 -12.26,0 -22.03,-10.57 -22.03,-22.63 0,-10.65 8.17,-22.42 21.33,-22.42 5.19,0 9.87,2.5 13.16,6.48 V 6282 l 14.75,1.09 v 3.1 h -1.71 c -3.08,0 -6.08,0.29 -6.08,4.98 v 61.08 z m -18.64,-49.13 v 1.5 c 0,7.38 0.9,14.85 7.78,19.42 1.98,1.21 4.28,1.91 6.58,1.91 4.87,0 11.84,-4 11.84,-10.27 0,-1.29 -0.09,-2.59 -0.09,-3.89 v -16.54 c 0,-1.3 -0.5,-2.19 -1.19,-3.19 -2.6,-3.89 -6.89,-6.77 -11.56,-6.77 -7.29,0 -11.86,6.68 -12.96,13.55 -0.2,1.39 -0.2,2.89 -0.4,4.28"
         style="fill:#ff0000;fill-opacity:1;fill-rule:nonzero;stroke:none"
         id="path138" />
      <path
         d="m 1946.06,6325.95 h -7.78 v -3.09 h 7.78 v -32.98 c 0,-3.4 -2.89,-3.69 -5.87,-3.69 h -1.8 v -3.1 h 24.02 v 3.1 h -3.19 c -2.2,0 -4.49,0.09 -5.69,1.2 -0.8,0.89 -0.8,2.19 -0.8,3.38 v 32.09 h 11.36 v 3.09 h -11.65 V 6339 c 0,5.48 3.78,12.16 9.17,12.16 1,0 2.39,-0.21 3.19,-0.8 -1.89,-0.5 -2.99,-2.3 -2.99,-4.19 0,-2.59 1.99,-4.28 4.38,-4.28 2.59,0 4.48,2 4.48,4.19 0,4.78 -4.98,7.26 -9.06,7.26 -9.08,0 -15.55,-7.06 -15.55,-16.73 v -10.66"
         style="fill:#ff0000;fill-opacity:1;fill-rule:nonzero;stroke:none"
         id="path140" />
      <path
         d="m 1090.36,6238.83 v -99.64 h 15.05 v 2.19 h -8.36 v 95.26 h 8.36 v 2.19 h -15.05"
         style="fill:#000000;fill-opacity:1;fill-rule:nonzero;stroke:none"
         id="path142" />
      <path
         d="m 1110.8,6180.55 h 26.5 v -9.08 c 0,-4.08 -3.1,-4.28 -8.27,-4.28 h -1.4 v -3.1 h 27.1 v 3.1 c -1.29,0 -2.59,-0.1 -3.78,-0.1 -3.18,0 -5.89,0.6 -5.89,4.38 v 9.08 h 9.88 v 3.08 h -9.88 v 44.64 c 0,0.4 0.11,0.9 0.11,1.4 0,1.1 -0.29,1.89 -1.5,1.89 -1.69,0 -1.89,-0.7 -2.59,-1.79 -9.36,-14.16 -18.74,-28.39 -28,-42.55 -1.19,-1.8 -2.39,-3.3 -2.39,-4.89 0,-0.6 0.11,-1.19 0.11,-1.78 z m 2.78,3.08 24.31,36.96 v -36.96 z"
         style="fill:#000000;fill-opacity:1;fill-rule:nonzero;stroke:none"
         id="path144" />
      <path
         d="m 1159.19,6238.83 v -2.19 h 8.37 v -95.26 h -8.37 v -2.19 h 15.04 v 99.64 h -15.04"
         style="fill:#000000;fill-opacity:1;fill-rule:nonzero;stroke:none"
         id="path146" />
      <path
         d="m 1223.48,6231.56 -1.89,-22.42 h 2.49 c 0.4,5.19 0.7,12.25 3.78,15.64 3.39,3.49 9.08,3.8 13.66,3.8 h 2.5 c 2.68,0 5.46,0 5.46,-3.39 v -53.52 c 0,-3.98 -3.98,-4.58 -7.56,-4.58 -1.29,0 -2.59,0.1 -3.59,0.1 h -3.28 v -3.1 h 37.76 v 3.1 h -6.78 c -3.89,0 -7.67,0.4 -7.67,4.48 v 53.52 c 0,2.89 1.69,3.39 5.48,3.39 h 2.49 c 4.58,0 10.26,-0.31 13.65,-3.8 3.08,-3.39 3.4,-10.45 3.79,-15.64 h 2.5 l -1.91,22.42 h -60.88"
         style="fill:#ff0000;fill-opacity:1;fill-rule:nonzero;stroke:none"
         id="path148" />
      <path
         d="m 1293.19,6232.16 v -3.1 h 1.5 c 3.69,0 6.28,-0.39 6.28,-5.17 v -50.33 c 0,-0.68 0.09,-1.39 0.09,-2.18 0,-3.79 -2.68,-4.19 -5.48,-4.19 h -2.39 v -3.1 h 22.51 v 3.1 h -2.57 c -2.8,0 -5.19,0.4 -5.19,4.09 v 18.24 c 0,7.17 3.69,16.34 13.54,16.34 6.38,0 6.99,-6.89 6.99,-11.17 v -23.81 c 0,-3.4 -2.89,-3.69 -5.99,-3.69 h -1.79 v -3.1 h 22.53 v 3.1 h -2.5 c -2.69,0 -5.28,0.4 -5.28,3.78 v 21.83 c 0,3.29 -0.1,6.58 -1.6,9.56 -2.39,4.39 -7.37,5.69 -11.95,5.69 -5.78,0 -12.26,-3.89 -14.16,-9.47 l -0.09,34.67 -14.45,-1.09"
         style="fill:#ff0000;fill-opacity:1;fill-rule:nonzero;stroke:none"
         id="path150" />
      <path
         d="m 1357.16,6187.13 h 28.7 c 1.09,0 1.59,0.68 1.59,1.78 0,10.56 -6.48,19.73 -17.64,19.73 -12.25,0 -21.01,-10.86 -21.01,-22.72 0,-9.17 5.08,-17.34 13.84,-21.33 2.3,-1 4.99,-1.59 7.47,-1.59 h 0.3 c 7.68,0 14.06,4.28 16.75,11.97 0.09,0.3 0.09,0.69 0.09,0.98 0,0.71 -0.39,1.21 -1.09,1.21 -1.5,0 -2.1,-3.3 -2.69,-4.39 -2.5,-4.38 -7.28,-7.27 -12.45,-7.27 -3.69,0 -6.88,2.09 -9.58,4.78 -3.99,4.58 -4.28,11.06 -4.28,16.85 z m 0.11,2.07 c 0,7.69 4.07,17.25 12.25,17.25 h 0.5 c 9.76,-0.9 9.67,-11.26 10.65,-17.25 h -23.4"
         style="fill:#ff0000;fill-opacity:1;fill-rule:nonzero;stroke:none"
         id="path152" />
      <path
         d="m 1426.28,6232.16 v -3.1 c 1.3,0 2.6,0.11 3.8,0.11 3.58,0 6.47,-0.5 6.47,-4.48 v -53.22 c 0,-3.78 -3.28,-4.38 -6.67,-4.38 -1.3,0 -2.49,0.1 -3.6,0.1 v -3.1 h 51.92 l 2.8,25.72 h -2.5 c -0.8,-8.08 -2.09,-19.64 -13.55,-21.83 -2.89,-0.79 -5.78,-0.79 -8.67,-0.79 h -7.37 c -1.99,0.2 -3.49,0.7 -3.49,3.39 v 54.11 c 0,3.98 3.6,4.48 6.88,4.48 1.09,0 2.09,-0.11 2.98,-0.11 h 2.89 v 3.1 h -31.89"
         style="fill:#ff0000;fill-opacity:1;fill-rule:nonzero;stroke:none"
         id="path154" />
      <path
         d="m 1496.16,6201.97 c 2.5,3.08 6.87,4.48 10.56,4.48 7.37,0 10.67,-6.68 10.67,-13.75 v -2.59 c -11.47,0 -28.31,-3.59 -28.31,-16.64 v -0.8 c 0.8,-7.67 10.47,-9.67 16.15,-9.67 5.08,0 11.55,3.39 12.85,8.47 h 0.11 c 0.59,-4.28 3.28,-7.97 7.76,-7.97 4.1,0 7.68,3.3 8.18,7.78 v 7.27 h -2.49 v -5.08 c 0,-2.69 -0.5,-6.78 -3.59,-6.78 -3.19,0 -3.69,3.89 -3.69,6.58 v 16.64 c 0,1.29 0.09,2.5 0.09,3.78 0,9.67 -9.06,14.95 -17.32,14.95 -6.29,0 -15.16,-3.09 -15.16,-11.06 0,-2.89 2.09,-4.78 4.69,-4.78 2.79,0 4.48,2.18 4.48,4.58 0,2.89 -2.3,4.59 -4.98,4.59 z m 21.23,-13.95 v -10.07 c 0,-6.87 -4.78,-12.36 -11.26,-12.75 h -0.4 c -4.68,0 -8.87,3.68 -8.87,8.47 v 0.49 c 0.7,10.07 11.95,13.56 20.53,13.86"
         style="fill:#ff0000;fill-opacity:1;fill-rule:nonzero;stroke:none"
         id="path156" />
      <path
         d="m 1540.48,6231.56 -1.89,-22.42 h 2.49 c 0.4,5.19 0.7,12.25 3.78,15.64 3.39,3.49 9.08,3.8 13.66,3.8 h 2.5 c 2.68,0 5.46,0 5.46,-3.39 v -53.52 c 0,-3.98 -3.98,-4.58 -7.56,-4.58 -1.29,0 -2.59,0.1 -3.59,0.1 h -3.28 v -3.1 h 37.76 v 3.1 h -6.78 c -3.89,0 -7.67,0.4 -7.67,4.48 v 53.52 c 0,2.89 1.69,3.39 5.48,3.39 h 2.49 c 4.58,0 10.26,-0.31 13.65,-3.8 3.08,-3.39 3.4,-10.45 3.79,-15.64 h 2.5 l -1.91,22.42 h -60.88"
         style="fill:#ff0000;fill-opacity:1;fill-rule:nonzero;stroke:none"
         id="path158" />
      <path
         d="m 1610.16,6187.13 h 28.7 c 1.09,0 1.59,0.68 1.59,1.78 0,10.56 -6.48,19.73 -17.64,19.73 -12.25,0 -21.01,-10.86 -21.01,-22.72 0,-9.17 5.08,-17.34 13.84,-21.33 2.3,-1 4.99,-1.59 7.47,-1.59 h 0.3 c 7.68,0 14.06,4.28 16.75,11.97 0.09,0.3 0.09,0.69 0.09,0.98 0,0.71 -0.39,1.21 -1.09,1.21 -1.5,0 -2.1,-3.3 -2.69,-4.39 -2.5,-4.38 -7.28,-7.27 -12.45,-7.27 -3.69,0 -6.88,2.09 -9.58,4.78 -3.99,4.58 -4.28,11.06 -4.28,16.85 z m 0.11,2.07 c 0,7.69 4.07,17.25 12.25,17.25 h 0.5 c 9.76,-0.9 9.67,-11.26 10.65,-17.25 h -23.4"
         style="fill:#ff0000;fill-opacity:1;fill-rule:nonzero;stroke:none"
         id="path160" />
      <path
         d="m 1646.69,6232.16 v -3.1 h 2.39 c 4.39,0 6.67,-0.59 9.06,-4.08 l 17.34,-26.1 c 0.21,-0.3 0.5,-0.6 0.5,-1 0,-0.69 -1.2,-1.79 -1.59,-2.69 -4.28,-6.17 -8.37,-12.36 -12.66,-18.63 -1.68,-2.4 -3.09,-4.89 -5.57,-6.58 -3.1,-2.09 -7.08,-2.79 -10.77,-2.79 v -3.1 h 23.72 v 3.1 c -2.69,0 -6.08,1.39 -6.08,4.58 0,1.5 1,2.5 1.8,3.68 4.58,6.49 8.86,13.07 13.25,19.64 1.3,-2.29 2.89,-4.48 4.37,-6.68 2.5,-3.88 5.1,-7.68 7.69,-11.55 l 3.08,-4.69 c 0.41,-0.59 1.09,-1.39 1.09,-2.09 -0.29,-2 -4.28,-2.89 -6.47,-2.89 v -3.1 h 27.5 v 3.1 h -2.68 c -4.6,0 -6.78,0.89 -9.18,4.69 -5.98,9.26 -12.65,18.32 -18.43,27.79 -0.69,0.91 -1.19,2 -1.99,2.8 v 0.09 c 0.6,0.71 1.1,1.5 1.6,2.19 l 2.39,3.59 c 2.48,3.69 4.98,7.27 7.47,10.96 1.7,2.59 3.29,5.28 5.98,7.08 3.08,2.09 6.97,2.68 10.66,2.68 v 3.1 h -23.82 v -3.1 c 2.6,0 6.18,-1.48 6.18,-4.58 0,-1.79 -2.39,-4.68 -3.88,-6.67 -1.8,-2.79 -3.69,-5.48 -5.59,-8.28 -0.99,-1.39 -1.78,-2.87 -2.88,-4.17 -2.79,5.17 -6.78,10.25 -10.08,15.34 -1.09,1.6 -3.37,4.28 -3.37,5.49 0.3,1.98 4.28,2.87 6.47,2.87 v 3.1 h -27.5"
         style="fill:#ff0000;fill-opacity:1;fill-rule:nonzero;stroke:none"
         id="path162" />
      <path
         d="m 1809.69,6225.78 c -1.19,1 -2.28,2.3 -3.49,3.28 -4.18,3.39 -9.47,5.28 -14.84,5.28 -19.14,0 -34.88,-16.43 -34.88,-36.26 0,-19.13 15.15,-36.17 34.88,-36.17 13.45,0 24.61,10.26 25.91,24.01 0.09,0.5 0.09,0.89 0.09,1.39 0,1.1 -0.3,1.8 -1.19,1.8 -1.89,0 -1.39,-3.89 -1.79,-5.88 -2.1,-10.06 -11.07,-18.23 -21.93,-18.23 -7.07,0 -13.65,3.28 -18.32,8.56 -5.69,6.49 -7.38,15.35 -7.38,23.82 0,6.78 0.69,13.85 3.78,19.93 4.08,7.97 12.66,13.96 21.72,13.96 12.36,0 20.44,-11.77 21.73,-22.54 0.3,-1.09 -0.31,-2.87 1.79,-2.87 1.4,0 1.59,0.59 1.59,1.59 v 25.3 c 0,0.7 -0.09,1.59 -1.19,1.59 -1.5,0 -6.19,-7.86 -6.48,-8.56"
         style="fill:#ff0000;fill-opacity:1;fill-rule:nonzero;stroke:none"
         id="path164" />
      <path
         d="m 1846.42,6208.64 c -12.56,-1.3 -20.62,-11.86 -20.62,-23.42 0,-11.25 8.86,-22.22 22.11,-22.22 11.97,0 22.03,9.77 22.03,22.33 0,11.86 -8.97,23.4 -22.22,23.4 -0.41,0 -0.91,-0.09 -1.3,-0.09 z m -12.26,-25.7 v 4.37 c 0,7.58 2.39,19.14 13.65,19.14 8.08,0 12.66,-6.78 13.55,-14.36 0.2,-2.18 0.2,-4.28 0.2,-6.46 0,-6.49 -0.7,-14.55 -7.08,-18.24 -1.98,-1.3 -4.18,-1.89 -6.46,-1.89 -7.29,0 -12.36,5.67 -13.46,13.45 -0.2,1.3 -0.2,2.69 -0.4,3.99"
         style="fill:#ff0000;fill-opacity:1;fill-rule:nonzero;stroke:none"
         id="path166" />
      <path
         d="m 1876.19,6206.95 v -3.09 h 1.5 c 3.28,0 6.28,-0.3 6.28,-4.98 v -27.5 c 0,-4.1 -2.8,-4.19 -7.19,-4.19 h -0.59 v -3.1 h 22.51 v 3.1 h -2.57 c -2.8,0 -5.19,0.4 -5.19,4.09 v 18.24 c 0,7.26 3.98,16.34 13.54,16.34 6.38,0 7.08,-6.58 7.08,-11.17 v -23.72 c 0,-3.58 -2.98,-3.78 -6.28,-3.78 h -1.48 v -3.1 h 22.51 v 3.1 h -2.59 c -2.78,0 -5.19,0.4 -5.19,4.09 v 18.24 c 0,7.26 4,16.34 13.56,16.34 6.38,0 7.08,-6.58 7.08,-11.17 v -23.72 c 0,-3.58 -3,-3.78 -6.28,-3.78 h -1.5 v -3.1 h 22.52 v 3.1 h -2.08 c -3,0 -5.69,0.29 -5.69,3.78 v 22.53 c 0,3.69 -0.2,6.97 -2.59,10.36 -2.6,3.28 -6.88,4.19 -10.86,4.19 -6.47,0 -11.75,-3.8 -14.46,-9.57 -1.89,7.07 -6.37,9.57 -13.25,9.57 -6.37,0 -12.45,-3.99 -14.54,-10.17 l -0.1,10.17 -14.15,-1.1"
         style="fill:#ff0000;fill-opacity:1;fill-rule:nonzero;stroke:none"
         id="path168" />
      <path
         d="m 1958.69,6206.95 v -3.09 h 1.89 c 3,0 5.89,-0.3 5.89,-4.28 v -47.74 c 0,-3.59 -2.59,-3.98 -5.49,-3.98 h -2.29 v -3.09 h 22.51 v 3.09 h -2.39 c -2.98,0 -5.37,0.39 -5.37,3.98 l 0.09,17.24 c 2.3,-4.08 7.88,-6.08 12.16,-6.08 12.36,0 22.23,10.56 22.23,22.63 0,11.95 -9.26,22.42 -20.94,22.42 -5.46,0 -10.25,-2.39 -13.84,-6.49 v 6.49 z m 40.76,-23.12 c -0.5,-7.27 -4.39,-17.74 -13.45,-18.63 h -0.61 c -4.28,0 -8.17,2.39 -10.56,5.97 -0.8,1.1 -1.39,2.1 -1.39,3.49 v 16.75 c 0,1.29 -0.1,2.59 -0.1,3.89 0,5.28 6.77,10.25 12.66,10.25 10.06,0 13.55,-13.05 13.55,-20.13 0,-0.5 0,-1.09 -0.1,-1.59"
         style="fill:#ff0000;fill-opacity:1;fill-rule:nonzero;stroke:none"
         id="path170" />
      <path
         d="m 2022.16,6201.97 c 2.5,3.08 6.87,4.48 10.56,4.48 7.37,0 10.67,-6.68 10.67,-13.75 v -2.59 c -11.47,0 -28.31,-3.59 -28.31,-16.64 v -0.8 c 0.8,-7.67 10.47,-9.67 16.15,-9.67 5.08,0 11.55,3.39 12.85,8.47 h 0.11 c 0.59,-4.28 3.28,-7.97 7.76,-7.97 4.1,0 7.68,3.3 8.18,7.78 v 7.27 h -2.49 v -5.08 c 0,-2.69 -0.5,-6.78 -3.59,-6.78 -3.19,0 -3.69,3.89 -3.69,6.58 v 16.64 c 0,1.29 0.09,2.5 0.09,3.78 0,9.67 -9.06,14.95 -17.32,14.95 -6.29,0 -15.16,-3.09 -15.16,-11.06 0,-2.89 2.09,-4.78 4.69,-4.78 2.79,0 4.48,2.18 4.48,4.58 0,2.89 -2.3,4.59 -4.98,4.59 z m 21.23,-13.95 v -10.07 c 0,-6.87 -4.78,-12.36 -11.26,-12.75 h -0.4 c -4.68,0 -8.87,3.68 -8.87,8.47 v 0.49 c 0.7,10.07 11.95,13.56 20.53,13.86"
         style="fill:#ff0000;fill-opacity:1;fill-rule:nonzero;stroke:none"
         id="path172" />
      <path
         d="m 2064.19,6206.95 v -3.09 h 1.5 c 3.28,0 6.28,-0.3 6.28,-4.98 v -27.5 c 0,-4.1 -2.8,-4.19 -7.19,-4.19 h -0.59 v -3.1 h 22.51 v 3.1 h -2.57 c -2.8,0 -5.19,0.4 -5.19,4.09 v 18.24 c 0,7.17 3.69,16.34 13.54,16.34 6.38,0 6.99,-6.89 6.99,-11.17 v -23.81 c 0,-3.4 -2.89,-3.69 -5.99,-3.69 h -1.79 v -3.1 h 22.53 v 3.1 h -2.5 c -2.69,0 -5.28,0.4 -5.28,3.78 v 21.83 c 0,3.29 -0.1,6.67 -1.69,9.67 -2.3,4.37 -7.37,5.58 -11.97,5.58 -6.08,0 -12.34,-4.19 -14.34,-10.17 l -0.1,10.17 -14.15,-1.1"
         style="fill:#ff0000;fill-opacity:1;fill-rule:nonzero;stroke:none"
         id="path174" />
      <path
         d="m 2119.69,6206.95 v -3.09 h 1.89 c 2.89,0 5.48,-0.41 5.48,-4.98 v -27.6 c 0,-3.5 -1.79,-4.09 -7.78,-4.09 v -3.1 h 21.44 v 3.1 h -2 c -2.59,0 -4.99,0.29 -4.99,3.48 v 37.38 z m 8.37,23.71 c -2.5,-0.3 -4.48,-2.49 -4.48,-5.18 0,-2.89 2.48,-5.28 5.28,-5.28 2.69,0 5.28,2.19 5.28,5.28 0,2.9 -2.5,5.29 -5.28,5.29 -0.3,0 -0.5,-0.11 -0.8,-0.11"
         style="fill:#ff0000;fill-opacity:1;fill-rule:nonzero;stroke:none"
         id="path176" />
      <path
         d="m 2167.42,6208.64 c -12.56,-1.3 -20.62,-11.86 -20.62,-23.42 0,-11.25 8.86,-22.22 22.11,-22.22 11.97,0 22.03,9.77 22.03,22.33 0,11.86 -8.97,23.4 -22.22,23.4 -0.41,0 -0.91,-0.09 -1.3,-0.09 z m -12.26,-25.7 v 4.37 c 0,7.58 2.39,19.14 13.65,19.14 8.08,0 12.66,-6.78 13.55,-14.36 0.2,-2.18 0.2,-4.28 0.2,-6.46 0,-6.49 -0.7,-14.55 -7.08,-18.24 -1.98,-1.3 -4.18,-1.89 -6.46,-1.89 -7.29,0 -12.36,5.67 -13.46,13.45 -0.2,1.3 -0.2,2.69 -0.4,3.99"
         style="fill:#ff0000;fill-opacity:1;fill-rule:nonzero;stroke:none"
         id="path178" />
      <path
         d="m 2197.19,6206.95 v -3.09 h 1.5 c 3.28,0 6.28,-0.3 6.28,-4.98 v -27.5 c 0,-4.1 -2.8,-4.19 -7.19,-4.19 h -0.59 v -3.1 h 22.51 v 3.1 h -2.57 c -2.8,0 -5.19,0.4 -5.19,4.09 v 18.24 c 0,7.17 3.69,16.34 13.54,16.34 6.38,0 6.99,-6.89 6.99,-11.17 v -23.81 c 0,-3.4 -2.89,-3.69 -5.99,-3.69 h -1.79 v -3.1 h 22.53 v 3.1 h -2.5 c -2.69,0 -5.28,0.4 -5.28,3.78 v 21.83 c 0,3.29 -0.1,6.67 -1.69,9.67 -2.3,4.37 -7.37,5.58 -11.97,5.58 -6.08,0 -12.34,-4.19 -14.34,-10.17 l -0.1,10.17 -14.15,-1.1"
         style="fill:#ff0000;fill-opacity:1;fill-rule:nonzero;stroke:none"
         id="path180" />
      <path
         d="m 2283.09,6188.41 v -5.88 h 26.52 v 5.88 h -26.52"
         style="fill:#ff0000;fill-opacity:1;fill-rule:nonzero;stroke:none"
         id="path182" />
      <path
         d="m 2358.86,6221.8 c 3.39,4.68 8.77,6.17 14.16,6.17 5.87,0 8.56,-5.97 8.56,-10.95 0,-6.29 -2.1,-14.46 -8.77,-16.44 -2.29,-0.61 -8.17,0.09 -8.17,-1.8 v -0.3 c 0.09,-0.7 0.8,-0.79 1.59,-0.79 h 1.21 c 1.09,0 2.28,0.09 3.48,0.09 9.77,0 12.36,-9.26 12.36,-16.44 v -1.5 c -0.11,-6.37 -2.89,-15.14 -11.47,-15.14 -5.48,0 -12.15,2.58 -15.04,7.68 0.29,0 0.59,-0.11 1,-0.11 3.18,0 5.48,2.5 5.48,5.57 0,2.8 -1.89,5.1 -4.69,5.49 h -0.59 c -3.99,0 -5.78,-2.78 -5.78,-5.88 0,-10.47 11.25,-15.54 20.03,-15.54 10.75,0 21.31,7.87 21.31,19.32 0,9.27 -7.86,16.35 -16.73,17.94 7.28,2.6 14.04,8.67 14.04,17.35 0,8.76 -9.06,13.95 -18.43,13.95 -7.68,0 -17.53,-4.19 -17.53,-13.66 0,-3.18 2.39,-5.08 5.07,-5.08 2.69,0 4.99,1.99 4.99,4.99 0,3.08 -2.19,5.08 -5.28,5.08 h -0.8"
         style="fill:#ff0000;fill-opacity:1;fill-rule:nonzero;stroke:none"
         id="path184" />
      <path
         d="m 2400.69,6206.95 v -3.09 h 1.5 c 3.28,0 6.28,-0.3 6.28,-4.98 v -27.5 c 0,-4.1 -2.8,-4.19 -7.19,-4.19 h -0.59 v -3.1 h 24.12 v 3.1 c -1.2,0 -2.59,-0.1 -3.79,-0.1 -3.19,0 -5.88,0.5 -5.88,4.19 v 13.25 c 0,8.47 1.99,21.33 11.75,21.33 0.41,0 0.7,0 1.11,-0.11 v -0.09 c -1.5,-0.61 -2.3,-2.21 -2.3,-3.8 0,-2.28 1.5,-3.88 3.78,-4.28 2.9,0 4.79,1.8 4.79,4.28 0,4 -3.79,6.19 -7.38,6.19 -5.87,0 -11.16,-5.28 -12.16,-10.67 l -0.09,10.67 -13.95,-1.1"
         style="fill:#ff0000;fill-opacity:1;fill-rule:nonzero;stroke:none"
         id="path186" />
      <path
         d="m 2467.3,6232.16 v -3.1 h 1.59 c 3.49,0 6.17,-0.39 6.17,-6.17 l -0.09,-20.92 c -2.39,3.98 -8.08,6.08 -12.66,6.08 -12.26,0 -22.03,-10.57 -22.03,-22.63 0,-10.65 8.17,-22.42 21.33,-22.42 5.19,0 9.87,2.5 13.16,6.48 V 6163 l 14.75,1.09 v 3.1 h -1.71 c -3.08,0 -6.08,0.29 -6.08,4.98 v 61.08 z m -18.64,-49.13 v 1.5 c 0,7.38 0.9,14.85 7.78,19.42 1.98,1.21 4.28,1.91 6.58,1.91 4.87,0 11.84,-4 11.84,-10.27 0,-1.29 -0.09,-2.59 -0.09,-3.89 v -16.54 c 0,-1.3 -0.5,-2.19 -1.19,-3.19 -2.6,-3.89 -6.89,-6.77 -11.56,-6.77 -7.29,0 -11.86,6.68 -12.96,13.55 -0.2,1.39 -0.2,2.89 -0.4,4.28"
         style="fill:#ff0000;fill-opacity:1;fill-rule:nonzero;stroke:none"
         id="path188" />
      <path
         d="m 2537.16,6187.13 h 28.7 c 1.09,0 1.59,0.68 1.59,1.78 0,10.56 -6.48,19.73 -17.64,19.73 -12.25,0 -21.01,-10.86 -21.01,-22.72 0,-9.17 5.08,-17.34 13.84,-21.33 2.3,-1 4.99,-1.59 7.47,-1.59 h 0.3 c 7.68,0 14.06,4.28 16.75,11.97 0.09,0.3 0.09,0.69 0.09,0.98 0,0.71 -0.39,1.21 -1.09,1.21 -1.5,0 -2.1,-3.3 -2.69,-4.39 -2.5,-4.38 -7.28,-7.27 -12.45,-7.27 -3.69,0 -6.88,2.09 -9.58,4.78 -3.99,4.58 -4.28,11.06 -4.28,16.85 z m 0.11,2.07 c 0,7.69 4.07,17.25 12.25,17.25 h 0.5 c 9.76,-0.9 9.67,-11.26 10.65,-17.25 h -23.4"
         style="fill:#ff0000;fill-opacity:1;fill-rule:nonzero;stroke:none"
         id="path190" />
      <path
         d="m 2600.3,6232.16 v -3.1 h 1.59 c 3.49,0 6.17,-0.39 6.17,-6.17 l -0.09,-20.92 c -2.39,3.98 -8.08,6.08 -12.66,6.08 -12.26,0 -22.03,-10.57 -22.03,-22.63 0,-10.65 8.17,-22.42 21.33,-22.42 5.19,0 9.87,2.5 13.16,6.48 V 6163 l 14.75,1.09 v 3.1 h -1.71 c -3.08,0 -6.08,0.29 -6.08,4.98 v 61.08 z m -18.64,-49.13 v 1.5 c 0,7.38 0.9,14.85 7.78,19.42 1.98,1.21 4.28,1.91 6.58,1.91 4.87,0 11.84,-4 11.84,-10.27 0,-1.29 -0.09,-2.59 -0.09,-3.89 v -16.54 c 0,-1.3 -0.5,-2.19 -1.19,-3.19 -2.6,-3.89 -6.89,-6.77 -11.56,-6.77 -7.29,0 -11.86,6.68 -12.96,13.55 -0.2,1.39 -0.2,2.89 -0.4,4.28"
         style="fill:#ff0000;fill-opacity:1;fill-rule:nonzero;stroke:none"
         id="path192" />
      <path
         d="m 2629.69,6206.95 v -3.09 h 1.89 c 2.89,0 5.48,-0.41 5.48,-4.98 v -27.6 c 0,-3.5 -1.79,-4.09 -7.78,-4.09 v -3.1 h 21.44 v 3.1 h -2 c -2.59,0 -4.99,0.29 -4.99,3.48 v 37.38 z m 8.37,23.71 c -2.5,-0.3 -4.48,-2.49 -4.48,-5.18 0,-2.89 2.48,-5.28 5.28,-5.28 2.69,0 5.28,2.19 5.28,5.28 0,2.9 -2.5,5.29 -5.28,5.29 -0.3,0 -0.5,-0.11 -0.8,-0.11"
         style="fill:#ff0000;fill-opacity:1;fill-rule:nonzero;stroke:none"
         id="path194" />
      <path
         d="m 2667.84,6225.38 c 0,-6.88 -2.89,-19.33 -13.04,-19.33 v -2.19 h 8.56 v -25.7 c 0,-3.3 0.2,-6.58 1.8,-9.47 2.18,-3.99 6.87,-5.69 11.26,-5.69 8.17,0 9.77,9.17 9.77,15.45 v 3.69 h -2.5 c 0,-1.5 0.11,-3 0.11,-4.59 0,-4.38 -1,-12.05 -6.88,-12.05 -5.69,0 -6.58,6.88 -6.58,11.36 v 27 h 14.14 v 3.09 h -14.14 v 18.43 h -2.5"
         style="fill:#ff0000;fill-opacity:1;fill-rule:nonzero;stroke:none"
         id="path196" />
      <path
         d="m 2695.69,6206.95 v -3.09 h 1.89 c 2.89,0 5.48,-0.41 5.48,-4.98 v -27.6 c 0,-3.5 -1.79,-4.09 -7.78,-4.09 v -3.1 h 21.44 v 3.1 h -2 c -2.59,0 -4.99,0.29 -4.99,3.48 v 37.38 z m 8.37,23.71 c -2.5,-0.3 -4.48,-2.49 -4.48,-5.18 0,-2.89 2.48,-5.28 5.28,-5.28 2.69,0 5.28,2.19 5.28,5.28 0,2.9 -2.5,5.29 -5.28,5.29 -0.3,0 -0.5,-0.11 -0.8,-0.11"
         style="fill:#ff0000;fill-opacity:1;fill-rule:nonzero;stroke:none"
         id="path198" />
      <path
         d="m 2743.42,6208.64 c -12.56,-1.3 -20.62,-11.86 -20.62,-23.42 0,-11.25 8.86,-22.22 22.11,-22.22 11.97,0 22.03,9.77 22.03,22.33 0,11.86 -8.97,23.4 -22.22,23.4 -0.41,0 -0.91,-0.09 -1.3,-0.09 z m -12.26,-25.7 v 4.37 c 0,7.58 2.39,19.14 13.65,19.14 8.08,0 12.66,-6.78 13.55,-14.36 0.2,-2.18 0.2,-4.28 0.2,-6.46 0,-6.49 -0.7,-14.55 -7.08,-18.24 -1.98,-1.3 -4.18,-1.89 -6.46,-1.89 -7.29,0 -12.36,5.67 -13.46,13.45 -0.2,1.3 -0.2,2.69 -0.4,3.99"
         style="fill:#ff0000;fill-opacity:1;fill-rule:nonzero;stroke:none"
         id="path200" />
      <path
         d="m 2772.19,6206.95 v -3.09 h 1.5 c 3.28,0 6.28,-0.3 6.28,-4.98 v -27.5 c 0,-4.1 -2.8,-4.19 -7.19,-4.19 h -0.59 v -3.1 h 22.51 v 3.1 h -2.57 c -2.8,0 -5.19,0.4 -5.19,4.09 v 18.24 c 0,7.17 3.69,16.34 13.54,16.34 6.38,0 6.99,-6.89 6.99,-11.17 v -23.81 c 0,-3.4 -2.89,-3.69 -5.99,-3.69 h -1.79 v -3.1 h 22.53 v 3.1 h -2.5 c -2.69,0 -5.28,0.4 -5.28,3.78 v 21.83 c 0,3.29 -0.1,6.67 -1.69,9.67 -2.3,4.37 -7.37,5.58 -11.97,5.58 -6.08,0 -12.34,-4.19 -14.34,-10.17 l -0.1,10.17 -14.15,-1.1"
         style="fill:#ff0000;fill-opacity:1;fill-rule:nonzero;stroke:none"
         id="path202" />
      <path
         d="m 0,7770.56 h 6120.08 v 149.441 H 0 Z"
         style="fill:#ff8000;fill-opacity:1;fill-rule:nonzero;stroke:none"
         id="path204" />
      <path
         d="m 5386.34,7455.86 v -23.41 c 24.41,0 52.3,1.5 74.71,9.97 v -257.51 h -69.24 v -23.41 h 198.24 v 23.41 h -69.72 v 289.39 c 0,7.47 -1.5,13.93 -12.95,13.93 -7.97,0 -12.46,-4.96 -17.94,-8.96 -32.38,-19.43 -67.24,-23.41 -103.1,-23.41"
         style="fill:#0000ff;fill-opacity:1;fill-rule:nonzero;stroke:none"
         id="path206" />
      <path
         d="m 5692.77,7208.31 c 18.42,2 32.37,13.46 32.37,32.88 0,17.44 -12.45,34.37 -32.87,34.37 -20.93,0 -34.38,-16.43 -34.38,-36.36 0,-53.29 54.8,-83.18 100.61,-83.18 63.27,0 129,32.37 129,107.59 0,26.39 -9.45,52.8 -28.39,71.22 -22.41,21.42 -52.78,30.39 -83.17,30.39 -22.91,0 -46.81,-4.49 -66.25,-17.94 v 66.25 c 12.45,-1.5 24.9,-3.48 37.86,-3.48 42.83,0.48 88.65,21.9 112.06,56.78 3,3.48 5.48,7.97 5.48,12.44 0,4.98 -3.48,8.46 -6.96,8.46 -3.99,0 -7.97,-2.48 -11.96,-3.98 -23.42,-7.47 -46.83,-11.95 -71.73,-11.95 -25.89,0 -50.3,4.98 -74.21,12.95 -3,1 -5.98,2.5 -8.96,2.98 -4.49,0 -7.47,-3.48 -7.97,-7.46 v -151.91 c 0,-6.98 0.5,-14.95 10.95,-14.95 9.97,0 15.44,10.47 22.91,16.93 15.45,11.96 35.87,16.94 54.29,16.94 45.33,0 45.33,-48.81 45.33,-87.15 v -4.99 c 0,-18.44 -0.5,-37.86 -9.97,-53.8 -11.45,-16.93 -30.87,-23.9 -50.29,-23.9 -25.91,0 -47.82,10.95 -63.75,30.87"
         style="fill:#0000ff;fill-opacity:1;fill-rule:nonzero;stroke:none"
         id="path208" />
      <g
         id="g210">
        <g
           id="g212"
           clip-path="url(#clipPath216)">
          <g
             id="g218" />
          <g
             id="g284">
            <g
               clip-path="url(#clipPath222)"
               opacity="0.2"
               id="g282">
              <g
                 id="g280">
                <g
                   clip-path="url(#clipPath226)"
                   id="g278">
                  <path
                     d="m 3769.45,2611.63 h 820.93 v -18.8711 h -820.93 z m -2239.45,0 h 475.422 v -18.8711 H 1530 Z m 375.23,168.42 c 0,8.91 1.4,17.16 4.22,24.68 2.87,7.58 6.81,14.11 11.84,19.59 5.1,5.53 11.18,9.85 18.32,13.01 7.14,3.21 15,4.92 23.57,5.15 6.15,0.11 11.68,-0.78 16.67,-2.71 4.93,-1.94 9.18,-4.76 12.68,-8.53 3.48,-3.77 6.19,-8.36 8.13,-13.84 2.04,-5.42 3.2,-11.62 3.48,-18.54 0.18,-4.37 0,-8.18 -0.34,-11.4 -0.26,-3.2 -0.6,-6.09 -0.93,-8.57 h -77.6 v -1.28 c 0,-0.34 0,-0.72 0.11,-1.16 0.29,-8.41 1.72,-15.44 4.27,-20.93 2.6,-5.52 5.81,-9.9 9.63,-13.22 3.93,-3.21 8.25,-5.48 12.9,-6.81 4.7,-1.22 9.23,-1.88 13.73,-1.88 2.7,0 5.58,0.16 8.57,0.45 3.04,0.32 5.92,0.76 8.68,1.32 2.89,0.66 5.48,1.33 7.87,2.11 2.49,0.78 4.43,1.6 5.86,2.44 l 3.88,-8.92 c -1.99,-1.83 -4.66,-3.48 -7.92,-4.93 -3.26,-1.49 -6.76,-2.7 -10.62,-3.75 -3.83,-1.01 -7.87,-1.73 -12.02,-2.23 -4.21,-0.55 -8.3,-0.82 -12.28,-0.82 -8.42,0 -15.94,1.43 -22.53,4.31 -6.47,2.93 -11.94,6.98 -16.44,12.24 -4.47,5.31 -7.86,11.67 -10.24,19.14 -2.32,7.48 -3.49,15.83 -3.49,25.08 m 77.55,11.18 c 0.23,3.6 0.23,7.14 0.11,10.68 -0.11,3.66 -0.49,7.09 -1.27,10.29 -0.78,3.27 -1.94,6.26 -3.55,8.91 -1.54,2.72 -3.65,4.93 -6.3,6.59 -1.83,1.16 -3.88,2.05 -6.2,2.6 -2.27,0.61 -4.88,0.94 -7.81,0.94 -3.93,0 -7.74,-0.72 -11.45,-2.21 -3.6,-1.44 -6.92,-3.77 -9.85,-6.97 -2.83,-3.22 -5.27,-7.37 -7.19,-12.51 -2,-4.99 -3.22,-11.12 -3.77,-18.32 h 57.28 m -222.1,-60.56 15.72,2.23 v 141.78 l -17.88,3.82 v 9.09 l 33.1,4.42 4.92,-2.44 -0.22,-46.26 -0.34,-18.16 c 3.11,2.55 6.43,4.76 9.98,6.7 3.64,2 7.24,3.6 10.9,4.93 3.65,1.43 7.14,2.43 10.56,3.15 3.49,0.77 6.65,1.16 9.41,1.16 7.14,0 12.95,-1.11 17.5,-3.26 4.53,-2.15 8.13,-5.49 10.72,-10.02 2.61,-4.49 4.44,-10.24 5.43,-17.33 1.01,-7.02 1.45,-15.44 1.39,-25.12 v -52.46 l 15.66,-2.23 v -8.91 h -53.4 v 8.91 l 17.59,2.23 v 43.55 c 0,8.08 -0.22,15.22 -0.61,21.37 -0.32,6.13 -1.39,11.29 -3.04,15.38 -1.61,4.2 -4.04,7.36 -7.36,9.47 -3.27,2.1 -7.8,3.14 -13.61,3.14 -2.27,0 -4.71,-0.15 -7.31,-0.43 -2.59,-0.29 -5.2,-0.79 -7.87,-1.51 -2.59,-0.59 -5.2,-1.49 -7.85,-2.59 -2.61,-1.1 -5.1,-2.55 -7.53,-4.26 v -84.12 l 15.38,-2.23 v -8.91 h -51.24 v 8.91 m -113.9,0 25.68,3.16 v 138.98 l -38.03,-2.11 -7.35,-17.88 -9.52,-0.21 2.59,31.82 h 124.76 l -0.17,-32.16 -8.63,-0.94 -5.43,19.48 -37.8,2 v -138.98 l 27.35,-3.16 v -8.91 h -73.45 v 8.91 m 1824.12,103.06 85.9,125.47 c 13.16,20.03 34.53,40.12 90.33,40.73 v 18.82 h -149.27 v -18.82 c 25.07,-0.61 38.91,-14.38 38.91,-28.83 0,-6.25 -1.27,-7.53 -5.65,-14.44 l -71.51,-105.39 -80.31,120.44 c -1.26,1.88 -4.42,6.91 -4.42,9.4 0,7.53 13.84,18.21 40.18,18.82 v 18.82 c -21.36,-1.87 -67.13,-1.87 -90.99,-1.87 -19.42,0 -58.33,0.65 -81.52,1.87 v -18.82 h 11.9 c 34.53,0 46.43,-4.36 58.33,-21.92 l 114.79,-173.78 -102.22,-151.14 c -8.8,-12.57 -27.62,-41.4 -90.32,-41.4 v -19.49 h 149.26 v 19.49 c -28.83,0.61 -39.52,17.54 -39.52,28.83 0,5.65 1.89,8.13 6.31,15.06 l 88.44,131.12 99.14,-149.34 c 1.2,-2.48 3.08,-4.97 3.08,-6.86 0,-7.52 -13.77,-18.2 -40.73,-18.81 v -19.49 c 21.92,1.89 67.75,1.89 90.93,1.89 26.36,0 55.19,-0.61 81.52,-1.89 v 19.49 h -11.89 c -32.59,0 -45.77,3.1 -58.94,22.58 z M 3282.07,2612.3 h -15.66 c -15.73,-95.98 -30.11,-141.8 -137.43,-141.8 h -82.79 c -29.44,0 -30.72,4.43 -30.72,25.13 v 166.86 h 55.84 c 60.82,0 67.74,-20.09 67.74,-73.44 h 15.67 v 165.65 h -15.67 c 0,-53.36 -6.92,-72.78 -67.74,-72.78 h -55.84 v 149.93 c 0,20.7 1.28,25.08 30.72,25.08 h 80.31 c 95.96,0 112.28,-34.49 122.3,-121.71 h 15.72 l -17.59,140.52 h -351.28 v -18.81 h 14.44 c 48.31,0 49.53,-6.93 49.53,-29.52 V 2500 c 0,-22.59 -1.22,-29.5 -49.53,-29.5 h -14.44 v -19.43 h 360.08 z m -336.22,402.69 h -381.99 l -11.3,-140.52 h 15.05 c 8.75,101 18.16,121.71 112.91,121.71 11.29,0 27.55,0 33.87,-1.22 13.16,-2.55 13.16,-9.41 13.16,-23.86 v -329.31 c 0,-21.36 0,-30.1 -65.85,-30.1 h -25.12 v -19.49 c 25.73,1.89 89.11,1.89 117.94,1.89 28.83,0 93.47,0 119.21,-1.89 v 19.49 h -25.13 c -65.86,0 -65.86,8.74 -65.86,30.1 v 329.31 c 0,12.56 0,21.31 11.3,23.86 6.91,1.22 23.84,1.22 35.74,1.22 94.1,0 103.5,-20.71 112.3,-121.71 h 15.67 z m -502.48,4.42 c -2.5,7.54 -3.77,10.02 -11.91,10.02 -8.13,0 -10.01,-2.48 -12.56,-10.02 l -100.95,-255.96 c -4.42,-10.63 -11.95,-30.11 -50.81,-30.11 v -15.68 h 97.2 v 15.68 c -19.43,0 -31.33,8.79 -31.33,21.36 0,3.09 0.61,4.37 1.88,8.75 l 21.3,53.95 h 124.2 l 25.07,-63.97 c 1.28,-2.5 2.54,-5.66 2.54,-7.53 0,-12.56 -23.84,-12.56 -35.75,-12.56 v -15.68 h 123.6 v 15.68 h -8.81 c -29.5,0 -32.59,4.42 -37.03,16.93 z m -25.08,-44.55 55.85,-141.79 h -111.69 z m 35.76,-221.43 h -15.67 c -6.31,-63.99 -15.05,-141.74 -125.46,-141.74 h -50.81 c -29.5,0 -30.72,4.37 -30.72,25.06 v 333.07 c 0,21.37 0,30.11 58.94,30.11 h 20.71 v 18.82 c -22.59,-1.87 -79.04,-1.87 -104.78,-1.87 -24.46,0 -73.38,0 -94.69,1.87 v -18.82 h 14.38 c 48.33,0 49.59,-6.86 49.59,-29.44 v -329.36 c 0,-22.59 -1.26,-29.44 -49.59,-29.44 h -14.38 v -19.49 h 325.54 z m 1992.87,-9.36 v 38.25 c 0.11,12.72 0.11,25.51 0.11,38.35 h -16.05 v 7.87 c 3.1,0.76 5.64,1.37 7.69,1.76 2.06,0.5 3.77,1 5.09,1.55 1.45,0.67 2.55,1.44 3.49,2.32 0.89,0.94 1.72,2.27 2.49,3.98 0.49,1.22 1.1,2.94 1.77,5.26 0.78,2.28 1.5,4.66 2.11,6.98 0.71,2.49 1.32,4.77 1.77,6.86 0.5,2.16 0.82,3.66 0.99,4.59 h 10.35 v -27.99 h 35.2 v -13.18 h -35.2 v -52.81 c 0,-8.07 0.11,-14.72 0.28,-19.8 0.23,-4.99 0.78,-8.97 1.6,-11.79 0.84,-2.88 2.05,-4.88 3.66,-5.87 1.6,-0.99 3.88,-1.5 6.7,-1.5 1.77,0 3.7,0.17 5.75,0.51 2.16,0.38 4.26,0.77 6.19,1.26 2.06,0.51 3.88,1.01 5.54,1.62 1.72,0.61 2.94,1.22 3.77,1.77 l 3.26,-9.25 c -1.6,-1.72 -3.71,-3.26 -6.36,-4.6 -2.67,-1.33 -5.6,-2.43 -8.69,-3.37 -3.1,-0.89 -6.2,-1.55 -9.35,-1.99 -3.04,-0.44 -5.82,-0.72 -8.15,-0.72 -7.63,0 -13.55,2.32 -17.7,7.02 -4.21,4.72 -6.31,12.36 -6.31,22.92 m -126.03,28.95 c -0.1,9.62 1.39,18.32 4.32,26.06 2.93,7.75 6.92,14.39 12.02,19.93 5.2,5.47 11.23,9.79 18.15,12.9 6.97,3.04 14.45,4.76 22.53,5.08 2.93,0.12 5.86,0 8.85,-0.15 3.1,-0.17 5.98,-0.52 8.63,-1.01 2.72,-0.38 5.2,-0.94 7.42,-1.66 2.21,-0.66 4.04,-1.49 5.43,-2.38 v -25.18 h -9.92 l -5.37,13.23 c -1.1,0.89 -2.38,1.67 -3.86,2.32 -1.45,0.61 -3,1.12 -4.48,1.55 -1.56,0.45 -3.11,0.73 -4.66,0.83 -1.49,0.23 -2.94,0.34 -4.16,0.34 -4.7,0 -9.18,-0.9 -13.44,-2.67 -4.21,-1.71 -8.02,-4.36 -11.3,-7.9 -3.25,-3.49 -5.92,-7.98 -7.84,-13.35 -1.94,-5.31 -2.99,-11.56 -3.05,-18.76 -0.11,-9.46 1.05,-17.59 3.37,-24.41 2.27,-6.74 5.32,-12.28 9.03,-16.59 3.65,-4.27 7.8,-7.43 12.34,-9.47 4.53,-1.94 9.03,-2.93 13.39,-2.93 2.72,0 5.54,0.16 8.47,0.56 2.94,0.32 5.81,0.76 8.52,1.31 2.72,0.56 5.21,1.22 7.53,2 2.33,0.84 4.21,1.66 5.64,2.55 l 3.6,-9.35 c -2.04,-1.83 -4.53,-3.44 -7.58,-4.82 -2.99,-1.39 -6.3,-2.6 -9.96,-3.54 -3.54,-1.01 -7.31,-1.71 -11.29,-2.22 -3.93,-0.56 -7.86,-0.83 -11.84,-0.83 -8.08,0 -15.22,1.43 -21.49,4.37 -6.19,2.93 -11.44,7.04 -15.82,12.3 -4.27,5.19 -7.47,11.39 -9.73,18.53 -2.23,7.2 -3.39,14.95 -3.45,23.36 m -120.32,1.87 c 0,8.91 1.39,17.16 4.16,24.75 2.87,7.53 6.81,14.06 11.84,19.53 5.1,5.54 11.23,9.86 18.32,13.01 7.14,3.21 15,4.93 23.57,5.15 6.15,0.12 11.74,-0.78 16.67,-2.72 4.98,-1.87 9.18,-4.7 12.68,-8.51 3.48,-3.77 6.19,-8.36 8.19,-13.79 1.98,-5.48 3.14,-11.67 3.43,-18.53 0.17,-4.44 0,-8.26 -0.29,-11.46 -0.26,-3.22 -0.6,-6.1 -0.93,-8.59 h -77.66 c 0,-0.44 0,-0.82 0,-1.26 0,-0.34 0,-0.72 0.11,-1.12 0.29,-8.46 1.72,-15.43 4.32,-20.97 2.56,-5.54 5.76,-9.9 9.64,-13.18 3.87,-3.25 8.19,-5.52 12.89,-6.85 4.65,-1.22 9.24,-1.89 13.68,-1.89 2.76,0 5.58,0.17 8.63,0.44 2.98,0.34 5.86,0.84 8.68,1.39 2.83,0.61 5.48,1.33 7.86,2.05 2.44,0.77 4.38,1.61 5.87,2.43 l 3.87,-8.9 c -2.04,-1.83 -4.71,-3.44 -7.97,-4.93 -3.21,-1.45 -6.75,-2.72 -10.56,-3.77 -3.89,-0.99 -7.87,-1.71 -12.08,-2.21 -4.2,-0.55 -8.24,-0.83 -12.22,-0.83 -8.48,0 -16,1.44 -22.53,4.32 -6.53,2.93 -12,7.02 -16.44,12.22 -4.48,5.31 -7.92,11.73 -10.3,19.21 -2.32,7.47 -3.43,15.77 -3.43,25.01 m 77.49,11.2 c 0.23,3.58 0.28,7.12 0.12,10.66 -0.12,3.66 -0.5,7.09 -1.28,10.3 -0.78,3.26 -1.94,6.25 -3.54,8.91 -1.55,2.71 -3.66,4.94 -6.25,6.59 -1.83,1.16 -3.94,2.04 -6.21,2.6 -2.32,0.66 -4.93,0.95 -7.86,0.95 -3.93,0 -7.74,-0.72 -11.39,-2.17 -3.66,-1.49 -6.93,-3.81 -9.86,-7.03 -2.88,-3.2 -5.32,-7.35 -7.24,-12.45 -1.94,-5.03 -3.22,-11.18 -3.77,-18.36 h 57.28 m -122.15,77.64 c -1.65,0 -3.31,0.28 -4.93,0.83 -1.6,0.61 -3.04,1.44 -4.25,2.48 -1.21,1.12 -2.16,2.5 -2.94,4.1 -0.71,1.61 -1.05,3.44 -1.05,5.48 0,2.17 0.45,4.15 1.33,6.04 0.99,1.88 2.21,3.48 3.71,4.81 1.43,1.44 3.09,2.5 4.86,3.26 1.94,0.78 3.83,1.16 5.71,1.16 4.59,0 7.97,-1.31 10.02,-3.86 2.15,-2.55 3.26,-5.54 3.26,-9.14 0,-2.27 -0.44,-4.37 -1.38,-6.25 -0.89,-1.89 -2.05,-3.49 -3.54,-4.82 -1.44,-1.27 -3.16,-2.27 -5.04,-3.04 -1.89,-0.73 -3.76,-1.05 -5.76,-1.05 m -5.31,-50.2 -14.55,7.75 v 6.31 l 29.39,8.36 4.81,-2.1 v -118.89 c 0,-8.13 -0.89,-15.44 -2.72,-21.86 -1.71,-6.53 -4.26,-12.02 -7.64,-16.49 -3.25,-4.54 -7.25,-7.98 -11.95,-10.35 -4.65,-2.38 -9.9,-3.54 -15.71,-3.54 -0.67,0 -1.6,0 -2.82,0.1 -1.17,0.06 -2.38,0.17 -3.55,0.28 -1.1,0.17 -2.16,0.33 -3.16,0.56 -0.93,0.22 -1.6,0.38 -1.88,0.61 v 14.43 c 0.55,-0.15 1.39,-0.38 2.44,-0.49 1.04,-0.16 2.11,-0.27 3.21,-0.33 1.22,-0.11 2.33,-0.22 3.37,-0.22 1.05,-0.06 1.89,-0.12 2.5,-0.12 3.37,0 6.19,0.67 8.52,2 2.37,1.27 4.26,3.43 5.65,6.53 1.43,2.99 2.49,6.97 3.16,11.96 0.61,4.92 0.93,11.06 0.93,18.42 v 97.08 m -146.94,-35.92 c 0.11,9.35 1.72,17.71 4.82,25.01 3.09,7.42 7.24,13.67 12.34,18.77 5.09,5.09 10.95,9.01 17.6,11.74 6.7,2.7 13.67,4.14 20.92,4.2 8.9,0.06 16.59,-1.5 23.18,-4.59 6.53,-3.16 11.96,-7.48 16.23,-13.01 4.3,-5.42 7.52,-11.9 9.62,-19.27 2.11,-7.41 3.1,-15.32 3.04,-23.8 -0.1,-9.29 -1.54,-17.75 -4.48,-25.45 -2.87,-7.69 -6.81,-14.28 -11.73,-19.82 -4.93,-5.42 -10.68,-9.67 -17.32,-12.72 -6.54,-3.04 -13.62,-4.54 -21.15,-4.54 -9.63,0 -17.82,1.76 -24.62,5.26 -6.76,3.49 -12.3,8.14 -16.55,14 -4.26,5.87 -7.36,12.61 -9.31,20.25 -1.87,7.65 -2.76,15.67 -2.59,23.97 m 54.01,-51.74 c 5.92,-0.11 10.97,0.88 15.01,3.03 4.09,2.17 7.41,5.37 9.96,9.52 2.55,4.27 4.43,9.53 5.54,15.73 1.16,6.3 1.77,13.5 1.77,21.58 0,7.02 -0.61,13.61 -1.89,19.71 -1.16,6.13 -3.1,11.44 -5.75,15.99 -2.61,4.53 -5.92,8.14 -9.96,10.69 -3.99,2.65 -8.76,4.09 -14.22,4.19 -5.93,0.11 -11.03,-0.93 -15.24,-3.15 -4.09,-2.05 -7.46,-5.2 -10.11,-9.3 -2.67,-4.1 -4.66,-9.13 -5.88,-15.11 -1.21,-5.92 -1.77,-12.66 -1.77,-20.2 0,-6.75 0.66,-13.28 2,-19.6 1.33,-6.25 3.27,-11.83 5.92,-16.76 2.66,-4.81 6.03,-8.68 10.07,-11.73 4.15,-2.93 8.97,-4.44 14.55,-4.59 m -149.87,-0.34 16.99,2.21 v 85.3 l -14.88,8.12 v 6.54 l 27.61,8.25 4.93,-2.1 v -16.11 c 1.32,1.94 3.32,4.03 5.97,6.19 2.78,2.17 5.76,4.09 9.14,5.86 3.37,1.78 6.85,3.28 10.45,4.38 3.66,1.22 7.09,1.78 10.3,1.78 2.27,0 4.37,-0.06 6.14,-0.18 1.88,-0.09 3.21,-0.27 4,-0.55 v -21.46 c -1.11,0.44 -2.29,0.82 -3.45,1.27 -1.2,0.5 -2.54,0.88 -3.98,1.16 -1.38,0.33 -2.99,0.6 -4.82,0.83 -1.82,0.22 -3.92,0.28 -6.3,0.28 -5.64,0 -10.4,-0.73 -14.23,-2.17 -3.87,-1.43 -7.35,-3.09 -10.57,-5.14 v -81.91 l 29.83,-2.55 v -8.85 h -67.13 v 8.85 m -138.59,0 19.81,3.16 v 137.42 l -17.31,1.83 v 11.4 h 27.56 c 1.71,0 3.92,0.04 6.7,0.21 2.82,0.12 5.87,0.29 9.24,0.5 3.43,0.23 6.97,0.4 10.57,0.55 3.71,0.11 7.31,0.17 10.79,0.17 8.02,0 15.39,-0.78 22.08,-2.27 6.76,-1.54 12.51,-4.2 17.33,-7.97 4.81,-3.7 8.52,-8.69 11.18,-14.88 2.72,-6.2 4.09,-14.01 4.09,-23.47 0,-5.64 -0.82,-10.9 -2.38,-15.83 -1.55,-4.86 -3.7,-9.3 -6.53,-13.28 -2.77,-3.99 -6.08,-7.53 -9.96,-10.57 -3.81,-3.1 -7.97,-5.65 -12.46,-7.63 -4.47,-2.06 -9.18,-3.6 -14.22,-4.67 -4.97,-0.93 -10.02,-1.37 -15.11,-1.2 -5.31,0.1 -9.57,0.16 -12.89,0.1 -3.27,-0.1 -6.04,-0.27 -8.25,-0.67 v -49.74 l 27.94,-3.1 v -8.91 h -68.18 v 8.91 m 40.24,65.24 c 3.99,-0.55 7.64,-0.94 11.01,-1.05 3.38,-0.11 6.7,-0.11 9.85,-0.11 3.33,0 6.65,0.22 9.92,0.61 3.37,0.51 6.53,1.27 9.47,2.43 2.98,1.17 5.75,2.73 8.24,4.71 2.59,2 4.82,4.6 6.59,7.75 1.87,3.16 3.37,6.87 4.42,11.18 1.05,4.44 1.54,9.58 1.54,15.56 0,12.83 -3.58,22.35 -10.89,28.56 -7.14,6.25 -17.49,9.12 -31,8.68 -3.43,-0.11 -6.69,-0.34 -9.85,-0.6 -3.05,-0.23 -6.15,-0.73 -9.3,-1.51 v -76.21"
                     style="fill:#000000;fill-opacity:1;fill-rule:nonzero;stroke:none"
                     id="path228" />
                  <path
                     d="m 1819.29,5481.66 c 29.44,-53.01 60.05,-98.66 91.98,-138.02 l 0.4,-0.39 c 0.1,-0.11 0.27,-0.22 0.38,-0.38 -14.72,2.16 -29.89,3.64 -45.61,3.49 -31.1,-0.34 -64.53,-5.66 -100.51,-17 61.83,-51.81 114.51,-89.66 160.78,-119.05 -1.1,0.34 -2.32,0.78 -3.48,1.11 l 3.48,-1.88 c -71.71,22.41 -149.09,25.19 -239.64,-17.82 65.04,-40.69 119.6,-70.4 167.75,-92.76 -1.38,0.22 -2.82,0.56 -4.2,0.77 l 3.43,-1.93 c -75.05,12.9 -152.92,5.64 -237.71,-50.25 55.29,-24.63 103.33,-43.23 146.11,-57.63 h 0.39 l 2.71,-1.54 c -71.57,-2.76 -142.52,-25.08 -211.86,-90.82 60.6,-15.06 112.45,-25.08 158.12,-31.71 -1.27,-0.28 -2.61,-0.51 -3.87,-0.78 -1.77,0 -3.65,-0.05 -5.42,0 l 1.92,-0.78 c -53.34,-12.11 -105.37,-38.85 -156.18,-90.09 41.18,-8.86 78.21,-15.77 112.13,-20.88 -41.72,-20.14 -81.41,-51.41 -117.5,-99.34 47.44,-3.7 89.45,-5.26 127.19,-5.42 -45.66,-21.09 -88.72,-54.29 -126.85,-107.87 67.8,-3.38 124.41,-3.21 173.23,-0.39 -0.94,-0.32 -1.83,-0.78 -2.71,-1.16 -2.99,-0.23 -5.98,-0.44 -8.91,-0.78 l 4.26,-1.48 c -50.75,-22.31 -97.74,-58.39 -138.04,-119.5 84.24,-1.22 150.94,2.78 206.83,9.69 -1.71,-0.5 -3.32,-1.05 -5.03,-1.56 -2.17,-0.1 -4.43,-0.21 -6.53,-0.38 l 2.71,-0.78 c -65.97,-19.64 -126.91,-57.5 -177.43,-134.15 67.96,-1 124.79,1.6 173.56,6.19 -1.06,-0.6 -2.06,-1.33 -3.11,-1.94 -58.27,-32.49 -108.37,-81.35 -141.51,-163.93 59.82,11.36 109.96,23.31 153.47,35.98 -0.72,-0.61 -1.61,-0.99 -2.28,-1.55 l 2.67,0.39 c -44.78,-33.43 -82.46,-80.31 -107.81,-149.59 41.17,9.06 77.98,18.64 110.91,28.16 -29.62,-35.76 -52.47,-80.42 -65.32,-139.13 44.73,16.43 83.52,32.32 117.9,47.92 -0.4,-0.5 -0.73,-1.05 -1.16,-1.55 -0.67,-0.55 -1.62,-0.99 -2.33,-1.54 l 1.16,0.38 c -31.55,-37.8 -55.62,-85.33 -67.63,-148.44 62.99,25.19 114.17,49.32 157.35,72.29 -1.22,-1.17 -2.72,-2.27 -3.89,-3.49 l 1.17,0.38 c -38.19,-41.84 -66.69,-95.63 -78.08,-169.68 74.32,32.82 131.55,63.31 178.59,91.98 -0.5,-0.49 -1.05,-0.99 -1.55,-1.55 l 3.09,1.55 c -53.4,-45.72 -94.36,-106.37 -108.64,-199.08 100.19,44.22 170.25,84.23 224.65,121.37 -23.36,-47.21 -35.7,-102.27 -29.78,-171.23 96.8,74.27 158.08,134.15 203.73,187.12 -0.11,-0.77 0.05,-1.55 0,-2.32 -2.77,-33.6 -0.67,-69.96 9.25,-110.2 57.38,98.63 114.84,139.47 173.22,173.18 -73.05,-47.32 -59.93,-85.67 -59.93,-129.51 86.84,91.48 207.65,188.62 244.73,249.39 -49.53,-74.38 -69.34,-145.07 -82.34,-207.21 -253.43,-134.05 -408.07,-169.15 -581.08,-222.72 67.13,-24.56 139.13,-48.48 109.42,-82.68 l -79.25,-79.26 c 50.69,15.73 102.43,38.47 147.26,7.69 -4.36,-41.55 -56.77,-62.75 -101.66,-86.93 78.98,28.43 96.02,21.74 116.78,15.04 10.34,-49.81 -25.69,-76.48 -49.1,-109.42 198.86,151.26 458.21,270.65 640.96,320.52 257.02,86.55 588.71,176.76 678.86,396.26 l 90.06,361.85 c 105.71,114.35 202.89,232.78 248.99,376.9 294.22,56.95 532.31,36.53 780.48,30.17 -22.58,3.75 -757.68,128.34 -757.68,128.34 -214.91,293.99 -535.47,94.03 -641.01,-196.42 -26.62,-73.28 -178.59,-73.11 -222.66,0.38 -174.11,374.91 -702.82,771.36 -1152.78,917.4 z"
                     style="fill:#000000;fill-opacity:1;fill-rule:nonzero;stroke:none"
                     id="path230" />
                  <path
                     d="m 1814.15,5502.76 c 29.65,-53.41 60.48,-98.96 92.64,-138.48 -14.72,2.17 -29.89,3.43 -45.6,3.27 -31.1,-0.34 -64.37,-5.48 -100.34,-16.83 62.82,-52.63 115.95,-91.04 162.76,-120.64 -72.33,23.12 -150.31,26.39 -241.85,-17.05 66.86,-41.85 123.04,-72.06 172.12,-94.7 -76.6,14.11 -156.01,7.69 -242.7,-49.42 57.25,-25.52 106.72,-44.67 150.66,-59.22 -72.12,-2.55 -143.46,-24.8 -213.29,-91.05 60.59,-15.05 112.51,-25.01 158.17,-31.65 -55.91,-11.29 -110.75,-38.08 -163.83,-91.65 41.12,-8.86 78.21,-15.62 112.07,-20.65 -41.72,-20.2 -81.24,-51.47 -117.38,-99.35 47.44,-3.7 89.44,-5.31 127.13,-5.46 -45.66,-21.16 -88.38,-54.53 -126.52,-108.1 67.74,-3.39 124.36,-3.05 173.18,-0.23 -53.63,-21.91 -103.12,-58.94 -145.4,-123.03 84.18,-1.26 150.88,2.77 206.83,9.75 -69.41,-18.88 -133.66,-56.79 -186.57,-136.87 68.03,-1.01 124.8,1.43 173.57,6.08 -59.61,-32.53 -110.81,-81.8 -144.56,-165.87 61.37,11.63 112.83,24.09 157.17,37.09 -46.15,-33.59 -84.96,-80.76 -110.91,-151.65 41.18,9.08 77.71,18.65 110.7,28.17 -29.62,-35.81 -52.41,-80.59 -65.32,-139.3 44.73,16.49 83.41,32.43 117.84,48.03 -32.72,-38.24 -57.68,-86.61 -69.97,-151.2 62.94,25.13 114.19,49.2 157.36,72.17 -39.57,-42.34 -69.02,-96.74 -80.7,-172.56 76.66,33.81 135.43,65.19 183.25,94.69 -54.9,-46.05 -97.12,-107.26 -111.69,-201.73 100.18,44.22 170.08,84.29 224.43,121.42 -23.35,-47.21 -35.69,-102.55 -29.79,-171.51 96.82,74.27 158.14,134.38 203.73,187.34 -3.03,-34.2 -0.61,-71.4 9.58,-112.51 69.47,119.38 138.54,154.25 210.03,194.09 -113.84,-57.34 -96.95,-100.45 -96.95,-150.54 86.84,91.49 207.92,188.46 245.01,249.22 -49.53,-74.38 -69.74,-144.84 -82.74,-207.04 -253.43,-133.99 -407.74,-169.03 -580.69,-222.6 67.08,-24.62 138.97,-48.71 109.25,-82.91 l -79.24,-79.09 c 50.63,15.72 102.32,38.24 147.15,7.48 -4.36,-41.57 -56.89,-62.54 -101.77,-86.78 78.97,28.43 96.01,21.9 116.77,15.22 10.4,-49.82 -25.57,-76.6 -49.03,-109.48 198.85,151.2 458.37,270.7 641.11,320.56 257.04,86.56 588.49,176.55 678.64,395.99 l 90.44,361.9 c 105.65,114.41 202.85,233.01 248.99,377.13 294.23,56.95 532.16,36.36 780.39,30 -22.59,3.75 -757.91,128.34 -757.91,128.34 -214.85,293.99 -535.19,94.2 -640.73,-196.25 -26.62,-73.28 -178.55,-73.34 -222.6,0.22 -174.11,374.85 -702.89,771.18 -1152.89,917.24 z"
                     style="fill:#008080;fill-opacity:1;fill-rule:nonzero;stroke:none"
                     id="path232" />
                  <path
                     d="m 3550.21,4735.56 -1.94,-3.09 c -7.63,-14.23 -20.52,-23.92 -38.68,-29.78 -18.1,-5.87 -41.34,-7.75 -68.4,-6.53 l -17,0.72 12.34,-11.96 c 6.32,-6.04 8.03,-10.85 8.15,-15.04 0.11,-4.27 -1.72,-8.82 -5.81,-13.96 -8.15,-10.29 -24.3,-21.47 -39.42,-32.87 l -5.03,-3.49 3.49,-4.99 c 12.56,-19.36 18.37,-34.2 19.7,-45.65 1.32,-11.4 -1.33,-19.59 -6.59,-26.67 -10.51,-14.12 -33.64,-23.7 -54.52,-35.54 l -3.8,-1.94 0.76,-4.65 c 1.77,-10.85 -1.16,-19.75 -8.91,-28.6 -7.75,-8.86 -20.8,-17.27 -38.3,-24.76 l -4.59,-1.92 0.72,-5.05 c 3.49,-23.24 10.51,-43.49 25.18,-56.39 13.39,-11.84 33.65,-14.95 59.49,-9.69 4.55,-24.79 10.97,-47.38 25.9,-62.25 15.18,-15.07 39.14,-19.49 71.13,-11.18 7.25,-17.39 17.76,-29.78 29.78,-37.92 13.22,-8.91 30.49,-12.51 44.66,-16.93 l 8.41,9.07 c -14.11,4.38 -34.86,11.12 -46.1,18.7 -11.24,7.59 -20.32,18 -26.68,35.93 l -1.94,6.19 -6.19,-1.94 c -32.94,-10.11 -51.21,-5.52 -63.76,6.99 -12.56,12.49 -19.65,35.13 -23.97,61.47 l -1.16,6.93 -6.97,-1.94 c -27.18,-7.08 -43.18,-3.43 -54.13,6.19 -10.19,9.03 -16.28,25.02 -19.71,44.85 15.73,7.29 29.23,15.27 37.92,25.17 8.47,9.64 12.11,21.58 11.56,33.98 19.21,10.57 42.35,19.65 55.68,37.53 6.97,9.35 10.57,21.58 8.91,35.92 -1.54,13.06 -7.97,28.11 -18.98,46.05 13.56,9.96 28.22,19.92 37.53,31.65 5.14,6.53 9.01,13.78 8.84,22.03 -0.04,4.59 -4.42,8.74 -6.91,13.18 23.52,-0.34 44.94,1.21 62.59,6.97 18.66,6.03 33.27,16.99 42.95,32.04 27.84,-0.11 56.63,-6.26 85.79,-10.01 29.99,-3.88 60.44,-4.93 89.33,7.73 l -5.43,11.96 c -25.51,-11.18 -52.8,-10.74 -81.96,-6.97 -29.12,3.83 -59.5,10.69 -90.06,10.46 z"
                     style="fill:#ffffff;fill-opacity:1;fill-rule:nonzero;stroke:none"
                     id="path234" />
                  <path
                     d="m 3658.42,4740.38 c 0,-30.33 -24.64,-54.97 -54.96,-54.97 -30.33,0 -54.9,24.64 -54.9,54.97 0,30.33 24.57,54.9 54.9,54.9 30.32,0 54.96,-24.57 54.96,-54.9 z"
                     style="fill:#ffffff;fill-opacity:1;fill-rule:nonzero;stroke:#ffffff;stroke-width:12.974;stroke-linecap:butt;stroke-linejoin:miter;stroke-miterlimit:4;stroke-dasharray:none;stroke-opacity:1"
                     id="path236" />
                  <path
                     d="m 3822.46,4791.91 c -49.32,-64.14 -61.71,-47.61 -91.77,-58.34 l -4.97,-1.94 0.76,-5.42 c 11.52,-64.43 49.71,-84.9 79.55,-108.31 l 1.65,5.2 7.91,1.49 c -29.88,23.46 -62.54,43.4 -74.44,98.13 21.86,5.2 42.73,-1.44 89.28,59.17 z"
                     style="fill:#ffffff;fill-opacity:1;fill-rule:nonzero;stroke:none"
                     id="path238" />
                  <path
                     d="m 1923.55,5230.23 c 93.2,-57.78 246.58,-117.38 345.09,-179.64 54.18,-34.48 102.84,-68.86 140.68,-98.57 37.86,-29.66 65.87,-60.38 76.17,-70.34 10.34,-9.97 17.31,-5.26 10.46,7.75 -6.88,12.95 -40.58,43 -78.88,73.05 -38.3,30.05 -87,64.25 -141.46,98.95 -109.02,69.41 -236.99,131.51 -352.06,168.8 z"
                     style="fill:#ffffff;fill-opacity:1;fill-rule:nonzero;stroke:none"
                     id="path240" />
                  <path
                     d="m 1906.79,5364.34 c 39.08,-9.03 96.75,-42.34 160.83,-77.98 64.15,-35.64 133.99,-79.53 197.97,-122.21 63.93,-42.61 113.24,-79.97 152.64,-110.02 37.42,-32.04 55.91,-52.74 63.05,-52.69 0.99,-0.23 1.93,-0.23 3.49,0 1.54,0.23 4.09,1.39 5.42,3.87 1.26,2.44 0.77,4.55 0.38,5.77 -0.43,1.26 -0.66,1.92 -1.16,2.7 -2.11,3.22 -5.37,6.15 -10.07,10.46 -9.41,8.58 -24.96,21.19 -44.83,36.37 -39.74,30.26 -97.46,71.6 -161.6,114.39 -64.16,42.78 -134.5,87.05 -199.09,122.93 -22.96,8.52 -135.49,68.07 -167.03,66.41 z"
                     style="fill:#ffffff;fill-opacity:1;fill-rule:nonzero;stroke:none"
                     id="path242" />
                  <path
                     d="m 1853.44,5118.33 c 119.61,-48.81 289.73,-106.15 403.3,-177.54 61.05,-38.75 114.18,-77.38 153.85,-109.04 19.88,-15.83 36.43,-30.05 48.71,-41.35 12.29,-11.33 19.2,-21.58 23.2,-24.34 8.34,-5.86 14.72,-1.99 10.84,7.3 -2.93,7.03 -12.57,15.12 -25.12,26.68 -12.63,11.56 -29.44,25.78 -49.48,41.78 -40.08,31.94 -93.6,71.13 -155.03,110.14 -122.92,78.04 -269.87,146.66 -410.27,166.37 z"
                     style="fill:#ffffff;fill-opacity:1;fill-rule:nonzero;stroke:none"
                     id="path244" />
                  <path
                     d="m 1761.4,5009.8 c 93.2,-0.05 285.75,-85.35 366.89,-128.12 131.61,-70.18 251.26,-160.4 317.4,-223.44 7.35,-6.97 18.04,-0.82 9.68,8.86 -61.42,71.24 -188.33,155.08 -320.89,225.81 -132.55,70.68 -269.81,117 -373.14,116.95 z"
                     style="fill:#ffffff;fill-opacity:1;fill-rule:nonzero;stroke:none"
                     id="path246" />
                  <path
                     d="m 1707.49,4887.05 c 140.14,-20.49 308.16,-77.05 430.53,-138.37 68.3,-34.64 129.18,-71.78 175.89,-104.76 46.71,-32.94 81.2,-70.03 89.72,-79.66 8.47,-9.56 18.66,-9.96 10.79,6.99 -7.81,16.93 -45.82,50.14 -93.14,83.5 -47.33,33.39 -108.65,70.58 -177.45,105.55 -137.7,69.9 -294.43,124.86 -436.34,126.75 z"
                     style="fill:#ffffff;fill-opacity:1;fill-rule:nonzero;stroke:none"
                     id="path248" />
                  <path
                     d="m 1753.76,4782.77 c -34.81,2.99 -66.13,-4.15 -98.07,-8.14 124.52,11.68 298.64,-45.49 414.71,-98.95 136.69,-64.09 250.27,-152.09 304.62,-207.99 8.51,-8.74 14.55,2.38 10.07,8.08 -50.65,64.7 -171.24,147.16 -309.28,211.86 -103.54,48.54 -217.61,86.01 -322.05,95.08 z"
                     style="fill:#ffffff;fill-opacity:1;fill-rule:nonzero;stroke:none"
                     id="path250" />
                  <path
                     d="m 1665.32,4670.52 c 122.53,-9.06 286.57,-38.39 401.48,-91.14 115.56,-54.08 203.27,-124.2 247.39,-163.93 6.8,-6.15 18.82,-1.77 9.3,9.24 -40.3,46.83 -133.94,111.52 -250.88,166.25 -117,54.75 -259.13,89.77 -407.29,79.58 z"
                     style="fill:#ffffff;fill-opacity:1;fill-rule:nonzero;stroke:none"
                     id="path252" />
                  <path
                     d="m 1775.34,4568.53 c -25.84,0.89 -37.96,-3.93 -62.92,-6.65 83.18,-3.64 215.35,-25.79 288.3,-50.52 94.74,-32.87 172.61,-82.35 216.89,-121.04 8.58,-7.47 14.94,2.55 9.3,8.91 -41.51,46.54 -125.8,91.16 -221.94,124.47 -72.05,25.02 -152.09,42.23 -229.63,44.83 z"
                     style="fill:#ffffff;fill-opacity:1;fill-rule:nonzero;stroke:none"
                     id="path254" />
                  <path
                     d="m 1771.74,4447.94 c 177.83,-11.96 285.31,-43.28 367.73,-117.12 6.13,-5.53 15.94,2.04 9.29,9.3 -84.57,91.59 -251.1,117.11 -377.02,107.82 z"
                     style="fill:#ffffff;fill-opacity:1;fill-rule:nonzero;stroke:none"
                     id="path256" />
                  <path
                     d="m 1908.68,4341.17 c -53.91,4.32 -99.02,-7.47 -148.12,-23.79 143.74,22.91 203.52,11.89 312.37,-39.25 12.46,-5.81 11.73,7.92 6.21,11.24 -57.84,34.75 -116.57,47.49 -170.46,51.8 z"
                     style="fill:#ffffff;fill-opacity:1;fill-rule:nonzero;stroke:none"
                     id="path258" />
                  <path
                     d="m 1903.52,4241.05 c -50.91,-4.53 -94.19,-22.03 -129.89,-51.03 142.35,54.84 181.71,43.95 290.56,13.06 14.34,-4.04 9.85,9.75 4.27,12.02 -65.21,26.12 -113.96,30.49 -164.94,25.95 z"
                     style="fill:#ffffff;fill-opacity:1;fill-rule:nonzero;stroke:none"
                     id="path260" />
                  <path
                     d="m 2185.57,4152.88 c -75.94,8.19 -161.5,-0.99 -236.61,-14.66 -75.05,-13.73 -139.63,-41.52 -176.1,-71.17 124.85,52.74 147.61,52.58 178.43,58.39 74,13.5 147.33,18.76 233.5,14.72 7.87,-0.38 7.41,12 0.78,12.72 z"
                     style="fill:#ffffff;fill-opacity:1;fill-rule:nonzero;stroke:none"
                     id="path262" />
                  <path
                     d="m 2229.68,4091.39 c -82.3,3.16 -167.32,-17.2 -240.86,-38.24 -73.57,-21.02 -128.13,-49.7 -164.1,-78.97 72.82,35.03 140.58,58.77 167.58,66.57 72.5,20.76 145.61,38.7 238.16,37.54 7.13,-0.12 11.79,12.66 -0.78,13.16 z"
                     style="fill:#ffffff;fill-opacity:1;fill-rule:nonzero;stroke:none"
                     id="path264" />
                  <path
                     d="m 2296.86,4040.81 c -77.54,-11.45 -158.78,-34.31 -229.62,-58.33 -70.85,-24.07 -121.33,-52.64 -154.2,-86.78 84.29,48.37 130.62,65.3 158.07,74.76 69.96,23.75 135.32,40.24 228.08,57.63 11.12,2.04 2.15,13.39 -2.33,12.72 z"
                     style="fill:#ffffff;fill-opacity:1;fill-rule:nonzero;stroke:none"
                     id="path266" />
                  <path
                     d="m 2336.27,3976.27 c -155.4,-24.79 -256.2,-91.86 -320.16,-158.33 99.17,74.77 168.25,114.89 322.88,145.55 9.79,1.94 6.8,14.28 -2.72,12.78 z"
                     style="fill:#ffffff;fill-opacity:1;fill-rule:nonzero;stroke:none"
                     id="path268" />
                  <path
                     d="m 2412.04,3919.45 c -156.35,-24.08 -246.52,-119.12 -284.09,-181.87 98.96,98.84 175.94,152.58 286.8,169.13 11.18,1.65 8.36,14.45 -2.71,12.74 z"
                     style="fill:#ffffff;fill-opacity:1;fill-rule:nonzero;stroke:none"
                     id="path270" />
                  <path
                     d="m 2459.19,3869.97 c -24.35,-3.05 -57.55,-20.32 -88.88,-40.24 -31.38,-19.88 -55.01,-44.12 -69.12,-75.28 37.74,38.96 52.9,49.53 76.1,64.48 30.05,19.1 60.37,31.1 85.01,38.24 11.56,3.38 2.81,13.51 -3.11,12.8 z"
                     style="fill:#ffffff;fill-opacity:1;fill-rule:nonzero;stroke:none"
                     id="path272" />
                  <path
                     d="m 3658.42,4740.38 c 0,-30.33 -24.64,-54.97 -54.96,-54.97 -30.33,0 -54.9,24.64 -54.9,54.97 0,30.33 24.57,54.9 54.9,54.9 30.32,0 54.96,-24.57 54.96,-54.9 z"
                     style="fill:#ffffff;fill-opacity:1;fill-rule:nonzero;stroke:#ffffff;stroke-width:12.974;stroke-linecap:butt;stroke-linejoin:miter;stroke-miterlimit:4;stroke-dasharray:none;stroke-opacity:1"
                     id="path274" />
                  <path
                     d="m 3658.42,4740.38 c 0,-30.33 -24.64,-54.97 -54.96,-54.97 -30.33,0 -54.9,24.64 -54.9,54.97 0,30.33 24.57,54.9 54.9,54.9 30.32,0 54.96,-24.57 54.96,-54.9 z"
                     style="fill:#37c871;fill-opacity:1;fill-rule:nonzero;stroke:#ffffff;stroke-width:12.974;stroke-linecap:butt;stroke-linejoin:miter;stroke-miterlimit:4;stroke-dasharray:none;stroke-opacity:1"
                     id="path276" />
                </g>
              </g>
            </g>
          </g>
        </g>
      </g>
    </g>
  </g>
</svg>
