<?xml version="1.0" encoding="UTF-8"?>
<!-- Created with Inkscape (http://www.inkscape.org/) -->
<svg width="601.71" height="601.71" version="1.1" viewBox="0 0 601.71 601.71" xmlns="http://www.w3.org/2000/svg">
 <defs>
  <clipPath id="clipPath1">
   <path transform="matrix(1 0 0 -1 0 330.87)" d="m0 0h330.87v330.87h-330.87z"/>
  </clipPath>
  <clipPath id="clipPath2">
   <path transform="matrix(1 0 0 -1 0 330.87)" d="m0 0h330.87v330.87h-330.87z"/>
  </clipPath>
  <clipPath id="clipPath3">
   <path transform="matrix(1 0 0 -1 0 330.87)" d="m0 0h330.87v330.87h-330.87z"/>
  </clipPath>
  <clipPath id="clipPath4">
   <path transform="matrix(1 0 0 -1 0 330.87)" d="m0 0h330.87v330.87h-330.87z"/>
  </clipPath>
  <clipPath id="clipPath5">
   <path transform="matrix(1 0 0 -1 0 330.87)" d="m0 0h330.87v330.87h-330.87z"/>
  </clipPath>
  <clipPath id="clipPath6">
   <path transform="matrix(1 0 0 -1 0 330.87)" d="m0 0h330.87v330.87h-330.87z"/>
  </clipPath>
  <clipPath id="clipPath7">
   <path transform="matrix(1 0 0 -1 0 330.87)" d="m0 0h330.87v330.87h-330.87z"/>
  </clipPath>
  <clipPath id="clipPath8">
   <path transform="matrix(1 0 0 -1 0 330.87)" d="m0 0h330.87v330.87h-330.87z"/>
  </clipPath>
  <clipPath id="clipPath9">
   <path transform="matrix(1 0 0 -1 0 330.87)" d="m0 0h330.87v330.87h-330.87z"/>
  </clipPath>
  <clipPath id="clipPath10">
   <path transform="matrix(1 0 0 -1 0 330.87)" d="m0 0h330.87v330.87h-330.87z"/>
  </clipPath>
  <clipPath id="clipPath11">
   <path transform="matrix(1 0 0 -1 0 330.87)" d="m0 0h330.87v330.87h-330.87z"/>
  </clipPath>
  <clipPath id="clipPath12">
   <path transform="matrix(1 0 0 -1 0 330.87)" d="m0 0h330.87v330.87h-330.87z"/>
  </clipPath>
  <clipPath id="clipPath13">
   <path transform="matrix(1 0 0 -1 0 330.87)" d="m0 0h330.87v330.87h-330.87z"/>
  </clipPath>
  <clipPath id="clipPath14">
   <path transform="matrix(1 0 0 -1 0 330.87)" d="m0 0h330.87v330.87h-330.87z"/>
  </clipPath>
  <clipPath id="clipPath15">
   <path transform="matrix(1 0 0 -1 0 330.87)" d="m0 0h330.87v330.87h-330.87z"/>
  </clipPath>
  <clipPath id="clipPath16">
   <path transform="matrix(1 0 0 -1 0 330.87)" d="m0 0h330.87v330.87h-330.87z"/>
  </clipPath>
  <clipPath id="clipPath17">
   <path transform="matrix(1 0 0 -1 0 330.87)" d="m0 0h330.87v330.87h-330.87z"/>
  </clipPath>
  <clipPath id="clipPath40">
   <path transform="matrix(1 0 0 -1 0 330.87)" d="m0 0h330.87v330.87h-330.87z"/>
  </clipPath>
  <clipPath id="clipPath44">
   <path transform="matrix(1 0 0 -1 0 330.87)" d="m0 0h330.87v330.87h-330.87z"/>
  </clipPath>
  <clipPath id="clipPath45">
   <path transform="matrix(1 0 0 -1 0 330.87)" d="m0 0h330.87v330.87h-330.87z"/>
  </clipPath>
 </defs>
 <g fill="none" stroke="#000">
  <path transform="matrix(1.8186 0 0 1.8186 .00021333 -.020868)" d="m165.43 0v330.87" clip-path="url(#clipPath1)" stroke-width=".56693"/>
  <path transform="matrix(1.8186 0 0 1.8186 .00021333 -.020868)" d="M 330.871,165.434 H 0" clip-path="url(#clipPath2)" stroke-width=".56693"/>
  <path transform="matrix(1.8186 0 0 1.8186 .00021333 -.020868)" d="m273.67 165.43c0 59.777-48.457 108.23-108.23 108.23-59.774 0-108.23-48.457-108.23-108.23 0-59.774 48.457-108.23 108.23-108.23 59.777 0 108.23 48.457 108.23 108.23z" clip-path="url(#clipPath3)" stroke-width=".52724"/>
  <g stroke-width=".56693">
   <path transform="matrix(1.8186 0 0 1.8186 .00021333 -.020868)" d="m194.07 61.059v208.75" clip-path="url(#clipPath4)"/>
   <path transform="matrix(1.8186 0 0 1.8186 .00021333 -.020868)" d="m225.68 75.523-0.024 179.84" clip-path="url(#clipPath5)"/>
   <path transform="matrix(1.8186 0 0 1.8186 .00021333 -.020868)" d="m250.15 98.074v134.72" clip-path="url(#clipPath6)"/>
   <path transform="matrix(1.8186 0 0 1.8186 .00021333 -.020868)" d="m194.07 61.059h-28.632" clip-path="url(#clipPath7)"/>
   <path transform="matrix(1.8186 0 0 1.8186 .00021333 -.020868)" d="m194.07 269.81h-28.632" clip-path="url(#clipPath8)"/>
   <path transform="matrix(1.8186 0 0 1.8186 .00021333 -.020868)" d="m225.68 75.523h-60.25" clip-path="url(#clipPath9)"/>
   <path transform="matrix(1.8186 0 0 1.8186 .00021333 -.020868)" d="m250.15 98.074h-84.718" clip-path="url(#clipPath10)"/>
   <path transform="matrix(1.8186 0 0 1.8186 .00021333 -.020868)" d="m225.66 255.36h-60.226" clip-path="url(#clipPath11)"/>
   <path transform="matrix(1.8186 0 0 1.8186 .00021333 -.020868)" d="m250.15 232.79h-84.718" clip-path="url(#clipPath12)"/>
  </g>
  <g stroke-width="1.4173">
   <path transform="matrix(1.8186 0 0 1.8186 .00021333 -.020868)" d="m165.43 61.059v37.015" clip-path="url(#clipPath13)"/>
   <path transform="matrix(1.8186 0 0 1.8186 .00021333 -.020868)" d="m165.43 232.79v37.016" clip-path="url(#clipPath14)"/>
   <path transform="matrix(1.8186 0 0 1.8186 .00021333 -.020868)" d="m194.07 61.059c10.446 3.445 24.004 9.605 31.618 14.464 13.73 8.758 24.468 22.551 24.468 22.551" clip-path="url(#clipPath15)"/>
   <path transform="matrix(1.8186 0 0 1.8186 .00021333 -.020868)" d="m194.07 269.81c0.106-0.02 17-3.618 31.594-14.446 8.379-6.218 21.91-19.191 24.492-22.57" clip-path="url(#clipPath16)"/>
   <path transform="matrix(1.8186 0 0 1.8186 .00021333 -.020868)" d="m194.07 165.43h56.086" clip-path="url(#clipPath17)"/>
  </g>
 </g>
 <g transform="matrix(1.3333 0 0 1.3333 419.23 133.94)" aria-label="graphofg">
  <path d="m4.8289-4.0195c0-0.17578-0.11719-0.49219-0.50391-0.49219-0.19922 0-0.63281 0.058594-1.0547 0.46875-0.42188-0.32812-0.84375-0.36328-1.0547-0.36328-0.92578 0-1.6172 0.69141-1.6172 1.4531 0 0.44531 0.22266 0.82031 0.46875 1.0312-0.12891 0.15234-0.30469 0.48047-0.30469 0.82031 0 0.31641 0.12891 0.69141 0.43359 0.89062-0.59766 0.17578-0.91406 0.59766-0.91406 0.99609 0 0.71484 0.98437 1.2656 2.2031 1.2656 1.1719 0 2.2031-0.50391 2.2031-1.2891 0-0.33984-0.14062-0.85547-0.64453-1.125-0.52734-0.28125-1.1016-0.28125-1.7109-0.28125-0.24609 0-0.67969 0-0.75-0.011719-0.31641-0.046875-0.52734-0.35156-0.52734-0.66797 0-0.035156 0-0.26953 0.17578-0.46875 0.38672 0.28125 0.79688 0.30469 0.98438 0.30469 0.92578 0 1.6055-0.67969 1.6055-1.4531 0-0.36328-0.15234-0.73828-0.39844-0.96094 0.35156-0.33984 0.71484-0.38672 0.89062-0.38672h0.10547c-0.11719 0.046875-0.16406 0.15234-0.16406 0.26953 0 0.17578 0.12891 0.29297 0.29297 0.29297 0.09375 0 0.28125-0.070312 0.28125-0.29297zm-1.7461 1.0664c0 0.26953-0.011719 0.59766-0.16406 0.84375-0.082031 0.11719-0.30469 0.39844-0.70312 0.39844-0.86719 0-0.86719-0.99609-0.86719-1.2305 0-0.26953 0.011719-0.58594 0.15234-0.83203 0.082031-0.11719 0.31641-0.39844 0.71484-0.39844 0.86719 0 0.86719 0.99609 0.86719 1.2188zm1.0898 3.7383c0 0.53906-0.70312 1.043-1.6758 1.043-1.0078 0-1.6992-0.51562-1.6992-1.043 0-0.45703 0.375-0.82031 0.82031-0.85547h0.58594c0.85547 0 1.9688 0 1.9688 0.85547zm4.4297-4.582c0-0.31641-0.30469-0.60938-0.72656-0.60938-0.73828 0-1.0898 0.66797-1.2305 1.1016v-1.1016l-1.3828 0.11719v0.30469c0.69141 0 0.77344 0.070312 0.77344 0.5625v2.6602c0 0.45703-0.10547 0.45703-0.77344 0.45703v0.30469l1.1367-0.035156c0.39844 0 0.86719 0 1.2656 0.035156v-0.30469h-0.21094c-0.73828 0-0.76172-0.11719-0.76172-0.46875v-1.5352c0-0.98438 0.42188-1.875 1.1836-1.875 0.058594 0 0.082031 0 0.10547 0.011719-0.035156 0.011719-0.23438 0.12891-0.23438 0.38672 0 0.28125 0.21094 0.43359 0.43359 0.43359 0.17578 0 0.42188-0.12891 0.42188-0.44531zm5.1006 2.9062v-0.55078h-0.25781v0.55078c0 0.58594-0.24609 0.64453-0.35156 0.64453-0.32812 0-0.375-0.45703-0.375-0.50391v-1.9922c0-0.41016 0-0.80859-0.35156-1.1719-0.38672-0.38672-0.89062-0.55078-1.3711-0.55078-0.80859 0-1.5 0.46875-1.5 1.125 0 0.30469 0.19922 0.46875 0.45703 0.46875 0.28125 0 0.45703-0.19922 0.45703-0.45703 0-0.11719-0.04687-0.44531-0.50391-0.45703 0.26953-0.35156 0.75-0.45703 1.0781-0.45703 0.48047 0 1.0547 0.38672 1.0547 1.2773v0.36328c-0.51562 0.035156-1.207 0.058594-1.8398 0.36328-0.75 0.33984-0.99609 0.85547-0.99609 1.2891 0 0.80859 0.97266 1.0547 1.5938 1.0547 0.65625 0 1.1133-0.39844 1.3125-0.86719 0.03516 0.39844 0.30469 0.82031 0.77344 0.82031 0.21094 0 0.82031-0.14062 0.82031-0.94922zm-1.6641-0.50391c0 0.94922-0.72656 1.2891-1.1719 1.2891-0.48047 0-0.89062-0.35156-0.89062-0.85547 0-0.53906 0.41016-1.3711 2.0625-1.4297zm7.0195-0.76172c0-1.2656-0.97266-2.25-2.0859-2.25-0.77344 0-1.1953 0.44531-1.3945 0.65625v-0.65625l-1.4297 0.11719v0.30469c0.70312 0 0.77344 0.058594 0.77344 0.49219v4.6641c0 0.45703-0.10547 0.45703-0.77344 0.45703v0.30469l1.1133-0.035156 1.125 0.035156v-0.30469c-0.66797 0-0.77344 0-0.77344-0.45703v-1.7578c0.04687 0.15234 0.46875 0.69141 1.2188 0.69141 1.1836 0 2.2266-0.97266 2.2266-2.2617zm-0.83203 0c0 1.207-0.69141 2.0508-1.4297 2.0508-0.39844 0-0.77344-0.19922-1.043-0.60938-0.14062-0.21094-0.14062-0.22266-0.14062-0.42188v-2.2148c0.28125-0.51562 0.77344-0.79688 1.2773-0.79688 0.72656 0 1.3359 0.86719 1.3359 1.9922zm6.5127 2.1562v-0.30469c-0.51562 0-0.77344 0-0.78516-0.30469v-1.8984c0-0.85547 0-1.1719-0.30469-1.5234-0.14062-0.17578-0.46875-0.375-1.043-0.375-0.84375 0-1.2773 0.59766-1.4414 0.96094v-3.4688l-1.4414 0.10547v0.31641c0.70312 0 0.78516 0.070312 0.78516 0.55078v5.1797c0 0.45703-0.11719 0.45703-0.78516 0.45703v0.30469l1.125-0.035156 1.1133 0.035156v-0.30469c-0.65625 0-0.77344 0-0.77344-0.45703v-1.8281c0-1.0312 0.71484-1.5938 1.3477-1.5938 0.62109 0 0.73828 0.53906 0.73828 1.1016v2.3203c0 0.45703-0.11719 0.45703-0.77344 0.45703v0.30469l1.125-0.035156zm8.2031-2.1328c0-1.2773-0.99609-2.332-2.1914-2.332-1.2539 0-2.2148 1.0898-2.2148 2.332 0 1.2891 1.0312 2.2383 2.2031 2.2383 1.207 0 2.2031-0.97266 2.2031-2.2383zm-0.82031-0.082031c0 0.36328 0 0.90234-0.22266 1.3359-0.22266 0.44531-0.65625 0.73828-1.1484 0.73828-0.43359 0-0.86719-0.21094-1.1367-0.66797-0.25781-0.43359-0.25781-1.043-0.25781-1.4063 0-0.38672 0-0.92578 0.24609-1.3594 0.26953-0.45703 0.73828-0.66797 1.1367-0.66797 0.43359 0 0.86719 0.22266 1.125 0.64453 0.25781 0.43359 0.25781 1.0078 0.25781 1.3828zm4.6641-4.1133c0-0.36328-0.36328-0.69141-0.89062-0.69141-0.70312 0-1.5469 0.52734-1.5469 1.582v1.1484h-0.78516v0.30469h0.78516v3.2227c0 0.45703-0.10547 0.45703-0.77344 0.45703v0.30469l1.1367-0.035156c0.39844 0 0.86719 0 1.2656 0.035156v-0.30469h-0.21094c-0.73828 0-0.76172-0.11719-0.76172-0.46875v-3.2109h1.1367v-0.30469h-1.1602v-1.1602c0-0.87891 0.48047-1.3594 0.91406-1.3594 0.03516 0 0.17578 0 0.32812 0.070312-0.11719 0.046875-0.29297 0.17578-0.29297 0.42188 0 0.23438 0.15234 0.43359 0.42188 0.43359 0.29297 0 0.43359-0.19922 0.43359-0.44531z"/>
  <path d="m44.298-3.7499c0.01172-0.070312 0.03516-0.11719 0.03516-0.1875 0-0.16406-0.11719-0.26953-0.29297-0.26953-0.09375 0-0.36328 0.070312-0.41016 0.43359-0.17578-0.375-0.52734-0.63281-0.92578-0.63281-1.1367 0-2.3672 1.3945-2.3672 2.8359 0 0.98437 0.60938 1.5703 1.3242 1.5703 0.58594 0 1.0547-0.46875 1.1602-0.57422l0.01172 0.011719c-0.21094 0.87891-0.32812 1.2891-0.32812 1.3125-0.04687 0.082031-0.38672 1.0781-1.4414 1.0781-0.1875 0-0.51562-0.011719-0.79688-0.10547 0.30469-0.09375 0.41016-0.35156 0.41016-0.51562s-0.10547-0.35156-0.375-0.35156c-0.22266 0-0.53906 0.17578-0.53906 0.57422 0 0.41016 0.36328 0.60938 1.3242 0.60938 1.2422 0 1.957-0.77344 2.1094-1.3711zm-1.2891 2.4727c-0.05859 0.25781-0.29297 0.51563-0.50391 0.70313-0.21094 0.17578-0.52734 0.35156-0.80859 0.35156-0.50391 0-0.65625-0.51562-0.65625-0.91406 0-0.48047 0.29297-1.6523 0.5625-2.1562 0.26953-0.49219 0.70312-0.89062 1.1133-0.89062 0.65625 0 0.79688 0.80859 0.79688 0.85547s-0.01172 0.10547-0.02344 0.15234z"/>
 </g>
 <g transform="matrix(1.3333 0 0 1.3333 412.74 487.26)" aria-label="graphofg
1">
  <path d="m4.8278-4.0202c0-0.17578-0.11719-0.49219-0.50391-0.49219-0.19922 0-0.63281 0.058594-1.0547 0.46875-0.42188-0.32812-0.84375-0.36328-1.0547-0.36328-0.92578 0-1.6172 0.69141-1.6172 1.4531 0 0.44531 0.22266 0.82031 0.46875 1.0312-0.12891 0.15234-0.30469 0.48047-0.30469 0.82031 0 0.31641 0.12891 0.69141 0.43359 0.89062-0.59766 0.17578-0.91406 0.59766-0.91406 0.99609 0 0.71484 0.98437 1.2656 2.2031 1.2656 1.1719 0 2.2031-0.50391 2.2031-1.2891 0-0.33984-0.14062-0.85547-0.64453-1.125-0.52734-0.28125-1.1016-0.28125-1.7109-0.28125-0.24609 0-0.67969 0-0.75-0.011719-0.31641-0.046875-0.52734-0.35156-0.52734-0.66797 0-0.035156 0-0.26953 0.17578-0.46875 0.38672 0.28125 0.79688 0.30469 0.98438 0.30469 0.92578 0 1.6055-0.67969 1.6055-1.4531 0-0.36328-0.15234-0.73828-0.39844-0.96094 0.35156-0.33984 0.71484-0.38672 0.89062-0.38672h0.10547c-0.11719 0.046875-0.16406 0.15234-0.16406 0.26953 0 0.17578 0.12891 0.29297 0.29297 0.29297 0.09375 0 0.28125-0.070312 0.28125-0.29297zm-1.7461 1.0664c0 0.26953-0.011719 0.59766-0.16406 0.84375-0.082031 0.11719-0.30469 0.39844-0.70312 0.39844-0.86719 0-0.86719-0.99609-0.86719-1.2305 0-0.26953 0.011719-0.58594 0.15234-0.83203 0.082031-0.11719 0.31641-0.39844 0.71484-0.39844 0.86719 0 0.86719 0.99609 0.86719 1.2188zm1.0898 3.7383c0 0.53906-0.70312 1.043-1.6758 1.043-1.0078 0-1.6992-0.51562-1.6992-1.043 0-0.45703 0.375-0.82031 0.82031-0.85547h0.58594c0.85547 0 1.9688 0 1.9688 0.85547zm4.4297-4.582c0-0.31641-0.30469-0.60938-0.72656-0.60938-0.73828 0-1.0898 0.66797-1.2305 1.1016v-1.1016l-1.3828 0.11719v0.30469c0.69141 0 0.77344 0.070312 0.77344 0.5625v2.6602c0 0.45703-0.10547 0.45703-0.77344 0.45703v0.30469l1.1367-0.035156c0.39844 0 0.86719 0 1.2656 0.035156v-0.30469h-0.21094c-0.73828 0-0.76172-0.11719-0.76172-0.46875v-1.5352c0-0.98438 0.42188-1.875 1.1836-1.875 0.058594 0 0.082031 0 0.10547 0.011719-0.035156 0.011719-0.23438 0.12891-0.23438 0.38672 0 0.28125 0.21094 0.43359 0.43359 0.43359 0.17578 0 0.42188-0.12891 0.42188-0.44531zm5.1006 2.9062v-0.55078h-0.25781v0.55078c0 0.58594-0.24609 0.64453-0.35156 0.64453-0.32812 0-0.375-0.45703-0.375-0.50391v-1.9922c0-0.41016 0-0.80859-0.35156-1.1719-0.38672-0.38672-0.89062-0.55078-1.3711-0.55078-0.80859 0-1.5 0.46875-1.5 1.125 0 0.30469 0.19922 0.46875 0.45703 0.46875 0.28125 0 0.45703-0.19922 0.45703-0.45703 0-0.11719-0.04687-0.44531-0.50391-0.45703 0.26953-0.35156 0.75-0.45703 1.0781-0.45703 0.48047 0 1.0547 0.38672 1.0547 1.2773v0.36328c-0.51562 0.035156-1.207 0.058594-1.8398 0.36328-0.75 0.33984-0.99609 0.85547-0.99609 1.2891 0 0.80859 0.97266 1.0547 1.5937 1.0547 0.65625 0 1.1133-0.39844 1.3125-0.86719 0.03516 0.39844 0.30469 0.82031 0.77344 0.82031 0.21094 0 0.82031-0.14062 0.82031-0.94922zm-1.6641-0.50391c0 0.94922-0.72656 1.2891-1.1719 1.2891-0.48047 0-0.89063-0.35156-0.89063-0.85547 0-0.53906 0.41016-1.3711 2.0625-1.4297zm7.0225-0.76172c0-1.2656-0.97266-2.25-2.0859-2.25-0.77344 0-1.1953 0.44531-1.3945 0.65625v-0.65625l-1.4297 0.11719v0.30469c0.70312 0 0.77344 0.058594 0.77344 0.49219v4.6641c0 0.45703-0.10547 0.45703-0.77344 0.45703v0.30469l1.1133-0.035156 1.125 0.035156v-0.30469c-0.66797 0-0.77344 0-0.77344-0.45703v-1.7578c0.04687 0.15234 0.46875 0.69141 1.2188 0.69141 1.1836 0 2.2266-0.97266 2.2266-2.2617zm-0.83203 0c0 1.207-0.69141 2.0508-1.4297 2.0508-0.39844 0-0.77344-0.19922-1.043-0.60938-0.14062-0.21094-0.14062-0.22266-0.14062-0.42188v-2.2148c0.28125-0.51562 0.77344-0.79688 1.2773-0.79688 0.72656 0 1.3359 0.86719 1.3359 1.9922zm6.5098 2.1562v-0.30469c-0.51562 0-0.77344 0-0.78516-0.30469v-1.8984c0-0.85547 0-1.1719-0.30469-1.5234-0.14062-0.17578-0.46875-0.375-1.043-0.375-0.84375 0-1.2773 0.59766-1.4414 0.96094v-3.4688l-1.4414 0.10547v0.31641c0.70312 0 0.78516 0.070312 0.78516 0.55078v5.1797c0 0.45703-0.11719 0.45703-0.78516 0.45703v0.30469l1.125-0.035156 1.1133 0.035156v-0.30469c-0.65625 0-0.77344 0-0.77344-0.45703v-1.8281c0-1.0312 0.71484-1.5938 1.3477-1.5938 0.62109 0 0.73828 0.53906 0.73828 1.1016v2.3203c0 0.45703-0.11719 0.45703-0.77344 0.45703v0.30469l1.125-0.035156zm8.2031-2.1328c0-1.2773-0.99609-2.332-2.1914-2.332-1.2539 0-2.2148 1.0898-2.2148 2.332 0 1.2891 1.0312 2.2383 2.2031 2.2383 1.207 0 2.2031-0.97266 2.2031-2.2383zm-0.82031-0.082031c0 0.36328 0 0.90234-0.22266 1.3359-0.22266 0.44531-0.65625 0.73828-1.1484 0.73828-0.43359 0-0.86719-0.21094-1.1367-0.66797-0.25781-0.43359-0.25781-1.043-0.25781-1.4063 0-0.38672 0-0.92578 0.24609-1.3594 0.26953-0.45703 0.73828-0.66797 1.1367-0.66797 0.43359 0 0.86719 0.22266 1.125 0.64453 0.25781 0.43359 0.25781 1.0078 0.25781 1.3828zm4.6641-4.1133c0-0.36328-0.36328-0.69141-0.89062-0.69141-0.70312 0-1.5469 0.52734-1.5469 1.582v1.1484h-0.78516v0.30469h0.78516v3.2227c0 0.45703-0.10547 0.45703-0.77344 0.45703v0.30469l1.1367-0.035156c0.39844 0 0.86719 0 1.2656 0.035156v-0.30469h-0.21094c-0.73828 0-0.76172-0.11719-0.76172-0.46875v-3.2109h1.1367v-0.30469h-1.1602v-1.1602c0-0.87891 0.48047-1.3594 0.91406-1.3594 0.03516 0 0.17578 0 0.32812 0.070312-0.11719 0.046875-0.29297 0.17578-0.29297 0.42188 0 0.23438 0.15234 0.43359 0.42188 0.43359 0.29297 0 0.43359-0.19922 0.43359-0.44531z"/>
  <path d="m44.299-3.7507c0.01172-0.070312 0.03516-0.11719 0.03516-0.1875 0-0.16406-0.11719-0.26953-0.29297-0.26953-0.09375 0-0.36328 0.070312-0.41016 0.43359-0.17578-0.375-0.52734-0.63281-0.92578-0.63281-1.1367 0-2.3672 1.3945-2.3672 2.8359 0 0.98437 0.60938 1.5703 1.3242 1.5703 0.58594 0 1.0547-0.46875 1.1602-0.57422l0.01172 0.011719c-0.21094 0.87891-0.32812 1.2891-0.32812 1.3125-0.04687 0.082031-0.38672 1.0781-1.4414 1.0781-0.1875 0-0.51562-0.011719-0.79688-0.10547 0.30469-0.09375 0.41016-0.35156 0.41016-0.51562s-0.10547-0.35156-0.375-0.35156c-0.22266 0-0.53906 0.17578-0.53906 0.57422 0 0.41016 0.36328 0.60938 1.3242 0.60938 1.2422 0 1.957-0.77344 2.1094-1.3711zm-1.2891 2.4727c-0.05859 0.25781-0.29297 0.51563-0.50391 0.70313-0.21094 0.17578-0.52734 0.35156-0.80859 0.35156-0.50391 0-0.65625-0.51562-0.65625-0.91406 0-0.48047 0.29297-1.6523 0.5625-2.1562 0.26953-0.49219 0.70312-0.89062 1.1133-0.89062 0.65625 0 0.79688 0.80859 0.79688 0.85547s-0.01172 0.10547-0.02344 0.15234z"/>
  <path d="m46.696-2.9363c0-0.1875-0.01172-0.19922-0.21094-0.19922-0.44531 0.43359-1.0781 0.44531-1.3594 0.44531v0.24609c0.16406 0 0.62109 0 1.0078-0.1875v3.5508c0 0.23437 0 0.32812-0.69141 0.32812h-0.26953v0.24609c0.12891-0.011719 0.98438-0.023437 1.2422-0.023437 0.21094 0 1.0898 0.011719 1.2422 0.023437v-0.24609h-0.25781c-0.70312 0-0.70312-0.09375-0.70312-0.32812z"/>
 </g>
 <path transform="matrix(1.8186 0 0 1.8186 .00021333 -.020868)" d="m228.25 165.43c0 1.421-1.152 2.578-2.574 2.578s-2.578-1.157-2.578-2.578c0-1.422 1.156-2.575 2.578-2.575s2.574 1.153 2.574 2.575z" clip-path="url(#clipPath40)"/>
 <path transform="matrix(1.3333 0 0 1.3333 387.91 282.25)" d="m1.7809-1.149c-0.39844 0.66797-0.78516 0.80859-1.2188 0.84375-0.12891 0-0.21094 0-0.21094 0.19922 0 0.058594 0.046875 0.10547 0.12891 0.10547 0.26953 0 0.57422-0.035156 0.85547-0.035156 0.32812 0 0.67969 0.035156 0.99609 0.035156 0.058594 0 0.1875 0 0.1875-0.1875 0-0.11719-0.09375-0.11719-0.16406-0.11719-0.22266-0.023438-0.45703-0.10547-0.45703-0.35156 0-0.11719 0.058594-0.23438 0.12891-0.375l0.76172-1.2656h2.4961c0.023437 0.19922 0.16406 1.5586 0.16406 1.6641 0 0.29297-0.51562 0.32812-0.71484 0.32812-0.14062 0-0.24609 0-0.24609 0.19922 0 0.10547 0.12891 0.10547 0.14062 0.10547 0.41016 0 0.84375-0.035156 1.2539-0.035156 0.24609 0 0.86719 0.035156 1.125 0.035156 0.058594 0 0.17578 0 0.17578-0.19922 0-0.10547-0.10547-0.10547-0.23438-0.10547-0.60938 0-0.60938-0.070312-0.64453-0.36328l-0.60938-6.2227c-0.011719-0.19922-0.011719-0.24609-0.1875-0.24609-0.16406 0-0.19922 0.070312-0.25781 0.17578zm1.1953-1.4648 1.9688-3.2812 0.31641 3.2812z" aria-label="A"/>
 <path transform="matrix(1.3333 0 0 1.3333 419.31 315.48)" d="m3.7163-3.7624c-0.17578-0.375-0.46875-0.64453-0.91406-0.64453-1.1719 0-2.4023 1.4648-2.4023 2.918 0 0.9375 0.55078 1.5938 1.3242 1.5938 0.19922 0 0.70312-0.035156 1.3008-0.73828 0.070312 0.41016 0.42188 0.73828 0.90234 0.73828 0.35156 0 0.57422-0.22266 0.73828-0.53906 0.16406-0.36328 0.29297-0.97266 0.29297-0.99609 0-0.09375-0.082031-0.09375-0.11719-0.09375-0.09375 0-0.10547 0.035156-0.14062 0.17578-0.16406 0.64453-0.35156 1.2422-0.75 1.2422-0.26953 0-0.30469-0.25781-0.30469-0.45703 0-0.22266 0.023437-0.30469 0.12891-0.73828 0.11719-0.42188 0.12891-0.52734 0.22266-0.90234l0.35156-1.3945c0.070312-0.28125 0.070312-0.29297 0.070312-0.33984 0-0.16406-0.11719-0.26953-0.28125-0.26953-0.24609 0-0.38672 0.22266-0.42187 0.44531zm-0.64453 2.5781c-0.046875 0.17578-0.046875 0.19922-0.19922 0.36328-0.44531 0.55078-0.84375 0.71484-1.125 0.71484-0.50391 0-0.64453-0.55078-0.64453-0.9375 0-0.50391 0.32812-1.7227 0.55078-2.1797 0.30469-0.59766 0.76172-0.96094 1.1602-0.96094 0.64453 0 0.78516 0.82031 0.78516 0.87891 0 0.058594-0.023437 0.11719-0.035156 0.16406z" aria-label="a"/>
 <g>
  <path transform="matrix(1.8186 0 0 1.8186 .00021333 -.020868)" d="m168.01 255.08c0 1.422-1.157 2.578-2.578 2.578-1.422 0-2.575-1.156-2.575-2.578s1.153-2.574 2.575-2.574c1.421 0 2.578 1.152 2.578 2.574z" clip-path="url(#clipPath44)"/>
  <path transform="matrix(1.8186 0 0 1.8186 .00021333 -.020868)" d="m168.01 75.238c0 1.422-1.157 2.578-2.578 2.578-1.422 0-2.575-1.156-2.575-2.578s1.153-2.574 2.575-2.574c1.421 0 2.578 1.152 2.578 2.574z" clip-path="url(#clipPath45)"/>
 </g>
 <g transform="matrix(1.3333 0 0 1.3333 256.24 464.7)" aria-label="B
1">
  <path d="m1.5935-0.77409c-0.09375 0.38672-0.11719 0.46875-0.90234 0.46875-0.17578 0-0.26953 0-0.26953 0.19922 0 0.10547 0.082031 0.10547 0.26953 0.10547h3.5508c1.5703 0 2.7539-1.1719 2.7539-2.1563 0-0.71484-0.58594-1.2891-1.5469-1.3945 1.0312-0.19922 2.0859-0.9375 2.0859-1.875 0-0.73828-0.65625-1.3828-1.8516-1.3828h-3.3516c-0.1875 0-0.29297 0-0.29297 0.19922 0 0.11719 0.09375 0.11719 0.28125 0.11719 0.023437 0 0.21094 0 0.375 0.011719 0.1875 0.023437 0.26953 0.035156 0.26953 0.16406 0 0.035156-0.011719 0.070312-0.035156 0.1875zm1.5-2.8711 0.62109-2.4727c0.09375-0.35156 0.10547-0.375 0.53906-0.375h1.2891c0.86719 0 1.0781 0.58594 1.0781 1.0195 0 0.87891-0.85547 1.8281-2.0742 1.8281zm-0.44531 3.3398c-0.14062 0-0.15234 0-0.22266-0.011719-0.09375-0.011719-0.12891-0.023438-0.12891-0.10547 0-0.023438 0-0.046875 0.058594-0.22266l0.67969-2.7773h1.8867c0.96094 0 1.1484 0.72656 1.1484 1.1602 0 0.98438-0.89062 1.957-2.0625 1.957z"/>
  <path d="m9.8903-2.9362c0-0.1875-0.011719-0.19922-0.21094-0.19922-0.44531 0.43359-1.0781 0.44531-1.3594 0.44531v0.24609c0.16406 0 0.62109 0 1.0078-0.1875v3.5508c0 0.23437 0 0.32812-0.69141 0.32812h-0.26953v0.24609c0.12891-0.011719 0.98438-0.023437 1.2422-0.023437 0.21094 0 1.0898 0.011719 1.2422 0.023437v-0.24609h-0.25781c-0.70313 0-0.70313-0.09375-0.70313-0.32812z"/>
 </g>
 <g transform="matrix(1.3333 0 0 1.3333 309.69 454.6)" aria-label="b
1">
  <path d="m2.3785-6.8075s0-0.10547-0.12891-0.10547c-0.22266 0-0.94922 0.082031-1.2188 0.10547-0.070312 0-0.1875 0.011719-0.1875 0.19922 0 0.11719 0.09375 0.11719 0.24609 0.11719 0.46875 0 0.49219 0.070312 0.49219 0.16406 0 0.070312-0.082031 0.41016-0.14062 0.62109l-0.80859 3.2461c-0.12891 0.50391-0.16406 0.65625-0.16406 1.0078 0 0.94922 0.52734 1.5586 1.2656 1.5586 1.1719 0 2.4023-1.4766 2.4023-2.918 0-0.90234-0.52734-1.5938-1.3242-1.5938-0.45703 0-0.86719 0.29297-1.1719 0.59766zm-0.9375 3.7734c0.058594-0.22266 0.058594-0.24609 0.15234-0.35156 0.49219-0.64453 0.9375-0.79688 1.1953-0.79688 0.36328 0 0.63281 0.29297 0.63281 0.9375 0 0.58594-0.32812 1.7344-0.51562 2.1094-0.32812 0.66797-0.78516 1.0313-1.1719 1.0313-0.33984 0-0.66797-0.26953-0.66797-1.0078 0-0.1875 0-0.38672 0.16406-1.0078z"/>
  <path d="m6.6089-2.9344c0-0.1875-0.011719-0.19922-0.21094-0.19922-0.44531 0.43359-1.0781 0.44531-1.3594 0.44531v0.24609c0.16406 0 0.62109 0 1.0078-0.1875v3.5508c0 0.23437 0 0.32812-0.69141 0.32812h-0.26953v0.24609c0.12891-0.011719 0.98438-0.023437 1.2422-0.023437 0.21094 0 1.0898 0.011719 1.2422 0.023437v-0.24609h-0.25781c-0.70312 0-0.70312-0.09375-0.70312-0.32812z"/>
 </g>
 <path transform="matrix(1.3333 0 0 1.3333 265.47 141.85)" d="m1.5934-0.7727c-0.09375 0.38672-0.11719 0.46875-0.90234 0.46875-0.17578 0-0.26953 0-0.26953 0.19922 0 0.10547 0.082031 0.10547 0.26953 0.10547h3.5508c1.5703 0 2.7539-1.1719 2.7539-2.1562 0-0.71484-0.58594-1.2891-1.5469-1.3945 1.0312-0.19922 2.0859-0.9375 2.0859-1.875 0-0.73828-0.65625-1.3828-1.8516-1.3828h-3.3516c-0.1875 0-0.29297 0-0.29297 0.19922 0 0.11719 0.09375 0.11719 0.28125 0.11719 0.023437 0 0.21094 0 0.375 0.011719 0.1875 0.023437 0.26953 0.035156 0.26953 0.16406 0 0.035156-0.011719 0.070312-0.035156 0.1875zm1.5-2.8711 0.62109-2.4727c0.09375-0.35156 0.10547-0.375 0.53906-0.375h1.2891c0.86719 0 1.0781 0.58594 1.0781 1.0195 0 0.87891-0.85547 1.8281-2.0742 1.8281zm-0.44531 3.3398c-0.14062 0-0.15234 0-0.22266-0.011719-0.09375-0.011719-0.12891-0.023438-0.12891-0.10547 0-0.023438 0-0.046875 0.058594-0.22266l0.67969-2.7773h1.8867c0.96094 0 1.1484 0.72656 1.1484 1.1602 0 0.98438-0.89062 1.957-2.0625 1.957z" aria-label="B"/>
 <path transform="matrix(1.3333 0 0 1.3333 304.17 153.95)" d="m2.3797-6.8096s0-0.10547-0.12891-0.10547c-0.22266 0-0.94922 0.082031-1.2188 0.10547-0.070312 0-0.1875 0.011719-0.1875 0.19922 0 0.11719 0.09375 0.11719 0.24609 0.11719 0.46875 0 0.49219 0.070312 0.49219 0.16406 0 0.070312-0.082031 0.41016-0.14062 0.62109l-0.80859 3.2461c-0.12891 0.50391-0.16406 0.65625-0.16406 1.0078 0 0.94922 0.52734 1.5586 1.2656 1.5586 1.1719 0 2.4023-1.4766 2.4023-2.918 0-0.90234-0.52734-1.5938-1.3242-1.5938-0.45703 0-0.86719 0.29297-1.1719 0.59766zm-0.9375 3.7734c0.058594-0.22266 0.058594-0.24609 0.15234-0.35156 0.49219-0.64453 0.9375-0.79688 1.1953-0.79688 0.36328 0 0.63281 0.29297 0.63281 0.9375 0 0.58594-0.32812 1.7344-0.51562 2.1094-0.32812 0.66797-0.78516 1.0313-1.1719 1.0313-0.33984 0-0.66797-0.26953-0.66797-1.0078 0-0.1875 0-0.38672 0.16406-1.0078z" aria-label="b"/>
 <g transform="matrix(1.3333 0 0 1.3333 6.28 174.95)" aria-label="{(x,y):f(x,y)=0}">
  <path d="m2.8252-6.1408c0-0.39844 0.25781-1.043 1.3359-1.1133 0.058594-0.011719 0.09375-0.046875 0.09375-0.10547 0-0.11719-0.082031-0.11719-0.1875-0.11719-0.99609 0-1.9102 0.51562-1.9102 1.2539v2.2734c0 0.38672 0 0.70312-0.39844 1.0312-0.35156 0.29297-0.72656 0.30469-0.94922 0.31641-0.046875 0.011719-0.09375 0.046875-0.09375 0.10547 0 0.10547 0.058594 0.10547 0.16406 0.11719 0.65625 0.035156 1.1367 0.39844 1.2422 0.87891 0.035156 0.11719 0.035156 0.14062 0.035156 0.49219v1.9687c0 0.42188 0 0.73828 0.46875 1.125 0.39844 0.29297 1.0547 0.41016 1.4414 0.41016 0.10547 0 0.1875 0 0.1875-0.11719 3e-7 -0.09375-0.058593-0.09375-0.16406-0.10547-0.62109-0.046875-1.1133-0.36328-1.2422-0.86719-0.023438-0.09375-0.023438-0.10547-0.023438-0.46875v-2.0977c0-0.45703-0.082031-0.62109-0.39844-0.9375-0.21094-0.21094-0.50391-0.31641-0.78516-0.39844 0.82031-0.22266 1.1836-0.67969 1.1836-1.2539z"/>
  <path d="m8.2744 2.3905c0-0.035156 0-0.046875-0.16406-0.22266-1.2422-1.2539-1.5703-3.1289-1.5703-4.6641 0-1.7227 0.38672-3.457 1.6055-4.7109 0.12891-0.11719 0.12891-0.12891 0.12891-0.16406 0-0.070312-0.035156-0.10547-0.09375-0.10547-0.10547 0-0.99609 0.67969-1.582 1.9453-0.51562 1.1016-0.63281 2.2031-0.63281 3.0352 0 0.78516 0.11719 1.9922 0.65625 3.1172 0.59766 1.2188 1.4531 1.875 1.5586 1.875 0.058594 0 0.09375-0.035156 0.09375-0.10547z"/>
  <path d="m12.186-3.0119c0.05859-0.25781 0.29297-1.1719 0.98438-1.1719 0.04687 0 0.29297 0 0.50391 0.12891-0.28125 0.046875-0.48047 0.30469-0.48047 0.53906 0 0.16406 0.10547 0.35156 0.375 0.35156 0.22266 0 0.53906-0.1875 0.53906-0.58594 0-0.51562-0.58594-0.65625-0.92578-0.65625-0.57422 0-0.92578 0.52734-1.043 0.76172-0.25781-0.65625-0.78516-0.76172-1.0781-0.76172-1.043 0-1.6055 1.2891-1.6055 1.5352 0 0.10547 0.10547 0.10547 0.11719 0.10547 0.082031 0 0.11719-0.023437 0.12891-0.11719 0.33984-1.0547 0.99609-1.3008 1.3359-1.3008 0.1875 0 0.53906 0.09375 0.53906 0.66797 0 0.30469-0.16406 0.97266-0.53906 2.3672-0.15234 0.62109-0.50391 1.043-0.94922 1.043-0.05859 0-0.28125 0-0.49219-0.12891 0.24609-0.058594 0.46875-0.26953 0.46875-0.53906s-0.22266-0.35156-0.375-0.35156c-0.29297 0-0.53906 0.25781-0.53906 0.57422 0 0.45703 0.49219 0.65625 0.9375 0.65625 0.65625 0 1.0078-0.69141 1.043-0.75 0.11719 0.36328 0.48047 0.75 1.0781 0.75 1.0195 0 1.5938-1.2773 1.5938-1.5352 0-0.09375-0.09375-0.09375-0.12891-0.09375-0.08203 0-0.10547 0.035156-0.12891 0.10547-0.32812 1.0664-0.99609 1.3125-1.3242 1.3125-0.38672 0-0.53906-0.32812-0.53906-0.65625 0-0.22266 0.05859-0.44531 0.16406-0.87891zm4.3857 3c0-0.65625-0.25781-1.043-0.64453-1.043-0.32812 0-0.52734 0.24609-0.52734 0.52734 0 0.26953 0.19922 0.52734 0.52734 0.52734 0.11719 0 0.24609-0.035156 0.35156-0.12891 0.02344-0.023438 0.03516-0.035156 0.04687-0.035156 0.01172 0 0.02344 0.011719 0.02344 0.15234 0 0.73828-0.35156 1.3359-0.67969 1.6641-0.10547 0.10547-0.10547 0.12891-0.10547 0.16406 0 0.070312 0.04687 0.10547 0.09375 0.10547 0.11719 0 0.91406-0.76172 0.91406-1.9336zm7.2275-3.7852c0.04687-0.14062 0.04687-0.15234 0.04687-0.22266 0-0.1875-0.14062-0.26953-0.29297-0.26953-0.10547 0-0.25781 0.058594-0.35156 0.19922-0.02344 0.058594-0.09375 0.36328-0.14062 0.53906-0.07031 0.25781-0.14062 0.52734-0.19922 0.79688l-0.44531 1.793c-0.03516 0.15234-0.46875 0.85547-1.125 0.85547-0.50391 0-0.62109-0.44531-0.62109-0.80859 0-0.45703 0.17578-1.0781 0.51562-1.957 0.15234-0.41016 0.19922-0.51562 0.19922-0.71484 0-0.44531-0.32812-0.82031-0.82031-0.82031-0.94922 0-1.3125 1.4531-1.3125 1.5352 0 0.10547 0.09375 0.10547 0.11719 0.10547 0.09375 0 0.10547-0.023437 0.15234-0.1875 0.26953-0.9375 0.66797-1.2305 1.0078-1.2305 0.08203 0 0.25781 0 0.25781 0.31641 0 0.24609-0.10547 0.51562-0.17578 0.70312-0.39844 1.0547-0.57422 1.6172-0.57422 2.0859 0 0.89062 0.62109 1.1836 1.2188 1.1836 0.38672 0 0.72656-0.16406 0.99609-0.44531-0.1289 0.51562-0.24609 1.0078-0.64453 1.5352-0.25781 0.33984-0.63281 0.63281-1.0898 0.63281-0.14062 0-0.59766-0.035156-0.76172-0.42188 0.16406 0 0.29297 0 0.43359-0.11719 0.09375-0.09375 0.19922-0.22266 0.19922-0.41016 0-0.31641-0.26953-0.35156-0.375-0.35156-0.22266 0-0.55078 0.16406-0.55078 0.64453 0 0.50391 0.43359 0.86719 1.0547 0.86719 1.0195 0 2.0508-0.90234 2.332-2.0273z"/>
  <path d="m27.101-2.4962c0-0.77344-0.11719-1.9805-0.65625-3.1055-0.59766-1.2188-1.4648-1.875-1.5586-1.875-0.05859 0-0.10547 0.046875-0.10547 0.10547 0 0.035156 0 0.046875 0.19922 0.23438 0.97266 0.98438 1.5352 2.5664 1.5352 4.6406 0 1.7109-0.36328 3.457-1.5938 4.7227-0.14062 0.11719-0.14062 0.12891-0.14062 0.16406 0 0.058594 0.04687 0.10547 0.10547 0.10547 0.09375 0 0.99609-0.67969 1.582-1.9453 0.50391-1.1016 0.63281-2.2031 0.63281-3.0469zm5.6543-1.2656c0-0.29297-0.23438-0.52734-0.52734-0.52734-0.28125 0-0.52734 0.23438-0.52734 0.52734 0 0.28125 0.24609 0.52734 0.52734 0.52734 0.29297 0 0.52734-0.24609 0.52734-0.52734zm0 3.2344c0-0.29297-0.23438-0.52734-0.52734-0.52734-0.28125 0-0.52734 0.23437-0.52734 0.52734s0.24609 0.52734 0.52734 0.52734c0.29297 0 0.52734-0.23438 0.52734-0.52734z"/>
  <path d="m40.053-3.9845h0.85547c0.19922 0 0.30469 0 0.30469-0.19922 0-0.10547-0.10547-0.10547-0.26953-0.10547h-0.83203l0.21094-1.1367c0.03516-0.21094 0.17578-0.91406 0.23438-1.043 0.09375-0.1875 0.25781-0.33984 0.46875-0.33984 0.04687 0 0.30469 0 0.49219 0.1875-0.43359 0.035156-0.53906 0.38672-0.53906 0.53906 0 0.22266 0.17578 0.33984 0.36328 0.33984 0.26953 0 0.55078-0.21094 0.55078-0.59766 0-0.45703-0.45703-0.67969-0.86719-0.67969-0.33984 0-0.96094 0.17578-1.2656 1.1602-0.05859 0.21094-0.08203 0.31641-0.32812 1.5703h-0.67969c-0.19922 0-0.30469 0-0.30469 0.1875 0 0.11719 0.09375 0.11719 0.28125 0.11719h0.65625l-0.75 3.9375c-0.17578 0.96094-0.33984 1.875-0.86719 1.875-0.03516 0-0.28125 0-0.46875-0.1875 0.45703-0.023437 0.53906-0.38672 0.53906-0.53906 0-0.22266-0.17578-0.33984-0.36328-0.33984-0.25781 0-0.55078 0.21094-0.55078 0.59766 0 0.44531 0.43359 0.67969 0.84375 0.67969 0.55078 0 0.94922-0.58594 1.125-0.96094 0.32812-0.63281 0.55078-1.8398 0.5625-1.9102z"/>
  <path d="m45.64 2.3905c0-0.035156 0-0.046875-0.16406-0.22266-1.2422-1.2539-1.5703-3.1289-1.5703-4.6641 0-1.7227 0.38672-3.457 1.6055-4.7109 0.12891-0.11719 0.12891-0.12891 0.12891-0.16406 0-0.070312-0.03516-0.10547-0.09375-0.10547-0.10547 0-0.99609 0.67969-1.582 1.9453-0.51562 1.1016-0.63281 2.2031-0.63281 3.0352 0 0.78516 0.11719 1.9922 0.65625 3.1172 0.59766 1.2188 1.4531 1.875 1.5586 1.875 0.05859 0 0.09375-0.035156 0.09375-0.10547z"/>
  <path d="m49.548-3.0119c0.05859-0.25781 0.29297-1.1719 0.98438-1.1719 0.04687 0 0.29297 0 0.50391 0.12891-0.28125 0.046875-0.48047 0.30469-0.48047 0.53906 0 0.16406 0.10547 0.35156 0.375 0.35156 0.22266 0 0.53906-0.1875 0.53906-0.58594 0-0.51562-0.58594-0.65625-0.92578-0.65625-0.57422 0-0.92578 0.52734-1.043 0.76172-0.25781-0.65625-0.78516-0.76172-1.0781-0.76172-1.043 0-1.6055 1.2891-1.6055 1.5352 0 0.10547 0.10547 0.10547 0.11719 0.10547 0.08203 0 0.11719-0.023437 0.12891-0.11719 0.33984-1.0547 0.99609-1.3008 1.3359-1.3008 0.1875 0 0.53906 0.09375 0.53906 0.66797 0 0.30469-0.16406 0.97266-0.53906 2.3672-0.15234 0.62109-0.50391 1.043-0.94922 1.043-0.05859 0-0.28125 0-0.49219-0.12891 0.24609-0.058594 0.46875-0.26953 0.46875-0.53906s-0.22266-0.35156-0.375-0.35156c-0.29297 0-0.53906 0.25781-0.53906 0.57422 0 0.45703 0.49219 0.65625 0.9375 0.65625 0.65625 0 1.0078-0.69141 1.043-0.75 0.11719 0.36328 0.48047 0.75 1.0781 0.75 1.0195 0 1.5938-1.2773 1.5938-1.5352 0-0.09375-0.09375-0.09375-0.12891-0.09375-0.08203 0-0.10547 0.035156-0.12891 0.10547-0.32812 1.0664-0.99609 1.3125-1.3242 1.3125-0.38672 0-0.53906-0.32812-0.53906-0.65625 0-0.22266 0.05859-0.44531 0.16406-0.87891zm4.3887 3c0-0.65625-0.25781-1.043-0.64453-1.043-0.32812 0-0.52734 0.24609-0.52734 0.52734 0 0.26953 0.19922 0.52734 0.52734 0.52734 0.11719 0 0.24609-0.035156 0.35156-0.12891 0.02344-0.023438 0.03516-0.035156 0.04687-0.035156 0.01172 0 0.02344 0.011719 0.02344 0.15234 0 0.73828-0.35156 1.3359-0.67969 1.6641-0.10547 0.10547-0.10547 0.12891-0.10547 0.16406 0 0.070312 0.04687 0.10547 0.09375 0.10547 0.11719 0 0.91406-0.76172 0.91406-1.9336zm7.2246-3.7852c0.04687-0.14062 0.04687-0.15234 0.04687-0.22266 0-0.1875-0.14062-0.26953-0.29297-0.26953-0.10547 0-0.25781 0.058594-0.35156 0.19922-0.02344 0.058594-0.09375 0.36328-0.14062 0.53906-0.07031 0.25781-0.14062 0.52734-0.19922 0.79688l-0.44531 1.793c-0.03516 0.15234-0.46875 0.85547-1.125 0.85547-0.50391 0-0.62109-0.44531-0.62109-0.80859 0-0.45703 0.17578-1.0781 0.51562-1.957 0.15234-0.41016 0.19922-0.51562 0.19922-0.71484 0-0.44531-0.32812-0.82031-0.82031-0.82031-0.94922 0-1.3125 1.4531-1.3125 1.5352 0 0.10547 0.09375 0.10547 0.11719 0.10547 0.09375 0 0.10547-0.023437 0.15234-0.1875 0.26953-0.9375 0.66797-1.2305 1.0078-1.2305 0.08203 0 0.25781 0 0.25781 0.31641 0 0.24609-0.10547 0.51562-0.17578 0.70312-0.39844 1.0547-0.57422 1.6172-0.57422 2.0859 0 0.89062 0.62109 1.1836 1.2188 1.1836 0.38672 0 0.72656-0.16406 0.99609-0.44531-0.12891 0.51562-0.24609 1.0078-0.64453 1.5352-0.25781 0.33984-0.63281 0.63281-1.0898 0.63281-0.14062 0-0.59766-0.035156-0.76172-0.42188 0.16406 0 0.29297 0 0.43359-0.11719 0.09375-0.09375 0.19922-0.22266 0.19922-0.41016 0-0.31641-0.26953-0.35156-0.375-0.35156-0.22266 0-0.55078 0.16406-0.55078 0.64453 0 0.50391 0.43359 0.86719 1.0547 0.86719 1.0195 0 2.0508-0.90234 2.332-2.0273z"/>
  <path d="m64.466-2.4962c0-0.77344-0.11719-1.9805-0.65625-3.1055-0.59766-1.2188-1.4648-1.875-1.5586-1.875-0.05859 0-0.10547 0.046875-0.10547 0.10547 0 0.035156 0 0.046875 0.19922 0.23438 0.97266 0.98438 1.5352 2.5664 1.5352 4.6406 0 1.7109-0.36328 3.457-1.5938 4.7227-0.14062 0.11719-0.14062 0.12891-0.14062 0.16406 0 0.058594 0.04687 0.10547 0.10547 0.10547 0.09375 0 0.99609-0.67969 1.582-1.9453 0.50391-1.1016 0.63281-2.2031 0.63281-3.0469zm10.588-0.76172c0.15234 0 0.33984 0 0.33984-0.19922 0-0.19922-0.1875-0.19922-0.32812-0.19922h-5.9648c-0.14062 0-0.32812 0-0.32812 0.19922 0 0.19922 0.1875 0.19922 0.33984 0.19922zm0.01172 1.9336c0.14062 0 0.32812 0 0.32812-0.19922 0-0.19922-0.1875-0.19922-0.33984-0.19922h-5.9414c-0.15234 0-0.33984 0-0.33984 0.19922 0 0.19922 0.1875 0.19922 0.32812 0.19922zm8.2354-1.8633c0-0.79688-0.04687-1.5938-0.39844-2.332-0.45703-0.96094-1.2773-1.1133-1.6875-1.1133-0.59766 0-1.3359 0.25781-1.7344 1.1836-0.32812 0.69141-0.375 1.4648-0.375 2.2617 0 0.75 0.04687 1.6406 0.44531 2.4023 0.43359 0.80859 1.1602 1.0078 1.6523 1.0078 0.53906 0 1.2891-0.21094 1.7344-1.1602 0.3164-0.69141 0.36328-1.4648 0.36328-2.25zm-2.0977 3.1875c-0.38672 0-0.98438-0.24609-1.1602-1.207-0.10547-0.59766-0.10547-1.5117-0.10547-2.0977 0-0.64453 0-1.3008 0.08203-1.8398 0.1875-1.1836 0.92578-1.2656 1.1836-1.2656 0.32812 0 0.98438 0.17578 1.1719 1.1602 0.09375 0.5625 0.09375 1.3125 0.09375 1.9453 0 0.75 0 1.418-0.10547 2.0625-0.15234 0.9375-0.71484 1.2422-1.1602 1.2422z"/>
  <path d="m85.879 1.16c0 0.39844-0.25781 1.043-1.3477 1.1133-0.04687 0.011719-0.09375 0.046875-0.09375 0.10547 0 0.11719 0.11719 0.11719 0.19922 0.11719 0.97266 0 1.8984-0.49219 1.9102-1.2539v-2.2734c0-0.38672 0-0.70312 0.39844-1.0312 0.33984-0.29297 0.72656-0.30469 0.9375-0.31641 0.05859-0.011719 0.09375-0.046875 0.09375-0.11719 0-0.09375-0.05859-0.09375-0.16406-0.10547-0.65625-0.035156-1.1367-0.39844-1.2422-0.89062-0.02344-0.10547-0.02344-0.12891-0.02344-0.48047v-1.9688c0-0.42188 0-0.73828-0.48047-1.125-0.39844-0.30469-1.0898-0.41016-1.4297-0.41016-0.08203 0-0.19922 0-0.19922 0.11719 0 0.09375 0.05859 0.09375 0.16406 0.10547 0.62109 0.046875 1.1133 0.36328 1.2422 0.86719 0.03516 0.09375 0.03516 0.10547 0.03516 0.46875v2.0977c0 0.45703 0.07031 0.62109 0.39844 0.9375 0.19922 0.21094 0.49219 0.31641 0.77344 0.38672-0.82031 0.23438-1.1719 0.69141-1.1719 1.2656z"/>
 </g>
</svg>
